<svg width="18" height="18" viewBox="0 0 18 18" fill="none" xmlns="http://www.w3.org/2000/svg">
<path d="M12.435 3.34494C13.3147 3.75931 14.0849 4.37449 14.6834 5.14093C15.2818 5.90737 15.692 6.80366 15.8807 7.7576C16.0695 8.71154 16.0316 9.69647 15.77 10.6331C15.5085 11.5697 15.0307 12.4318 14.375 13.1499L15.085 13.8599C15.8538 13.0281 16.416 12.027 16.726 10.9375C17.036 9.8481 17.0851 8.70098 16.8695 7.58902C16.6538 6.47706 16.1793 5.43149 15.4845 4.53695C14.7897 3.64241 13.894 2.92402 12.87 2.43994C12.7513 2.38657 12.6164 2.38162 12.494 2.42615C12.3717 2.47069 12.2715 2.56119 12.2149 2.67841C12.1582 2.79564 12.1495 2.93034 12.1906 3.05387C12.2317 3.17741 12.3194 3.28004 12.435 3.33994V3.34494Z" fill="white"/>
<path d="M13.65 13.835L11.73 11.915L11.445 11.63L2.315 2.5L1.605 3.205L4.4 6H1.5C1.36739 6 1.24021 6.05268 1.14645 6.14645C1.05268 6.24021 1 6.36739 1 6.5V11.5C1 11.6326 1.05268 11.7598 1.14645 11.8536C1.24021 11.9473 1.36739 12 1.5 12H4.415L9.17 16.15C9.24219 16.2134 9.33112 16.2547 9.42616 16.2689C9.52119 16.2831 9.6183 16.2696 9.70587 16.23C9.79343 16.1905 9.86774 16.1265 9.91991 16.0458C9.97207 15.9651 9.99988 15.8711 10 15.775V11.6L12.795 14.395C12.71 14.445 12.625 14.495 12.54 14.54C12.4812 14.5695 12.4289 14.6104 12.3859 14.6602C12.3429 14.71 12.3101 14.7677 12.2895 14.8302C12.2688 14.8926 12.2607 14.9585 12.2655 15.0241C12.2703 15.0897 12.288 15.1537 12.3175 15.2125C12.347 15.2713 12.3879 15.3236 12.4377 15.3666C12.4875 15.4096 12.5452 15.4424 12.6077 15.463C12.6701 15.4837 12.736 15.4918 12.8016 15.487C12.8672 15.4822 12.9312 15.4645 12.99 15.435C13.175 15.34 13.35 15.235 13.53 15.125L14.6 16.195L15.305 15.5L13.68 13.875L13.65 13.835Z" fill="white"/>
<path d="M9.99996 2.30991C9.99984 2.21383 9.97203 2.11981 9.91987 2.03911C9.86771 1.95841 9.79339 1.89446 9.70583 1.8549C9.61826 1.81533 9.52115 1.80184 9.42612 1.81603C9.33108 1.83022 9.24215 1.8715 9.16996 1.93491L5.95996 4.73491L9.99996 8.76992V2.30991Z" fill="white"/>
</svg>
