<svg width="16" height="16" viewBox="0 0 16 16" fill="none" xmlns="http://www.w3.org/2000/svg">
<path d="M16 3.423V14.385C16 14.845 15.846 15.2293 15.538 15.538C15.23 15.8467 14.8453 16.0007 14.384 16H1.616C1.15533 16 0.771 15.846 0.463 15.538C0.155 15.23 0.000666667 14.8453 0 14.384V1.616C0 1.15533 0.154333 0.771 0.463 0.463C0.771667 0.155 1.156 0.000666667 1.616 0H12.577L16 3.423ZM15 3.85L12.15 1H1.616C1.436 1 1.28833 1.05767 1.173 1.173C1.05767 1.28833 1 1.436 1 1.616V14.385C1 14.5643 1.05767 14.7117 1.173 14.827C1.28833 14.9423 1.436 15 1.616 15H14.385C14.5643 15 14.7117 14.9423 14.827 14.827C14.9423 14.7117 15 14.564 15 14.384V3.85ZM8 12.538C8.55133 12.538 9.02267 12.3427 9.414 11.952C9.80533 11.5613 10.0007 11.09 10 10.538C9.99933 9.986 9.80367 9.515 9.413 9.125C9.02233 8.735 8.55133 8.53967 8 8.539C7.44867 8.53833 6.97767 8.73367 6.587 9.125C6.19633 9.51633 6.00067 9.98733 6 10.538C5.99933 11.0887 6.195 11.56 6.587 11.952C6.979 12.344 7.45 12.5393 8 12.538ZM2.77 5.77H10.192V2.77H2.77V5.77ZM1 3.85V15V1V3.85Z" fill="white"/>
</svg>
