<svg width="40" height="41" viewBox="0 0 40 41" fill="none" xmlns="http://www.w3.org/2000/svg">
<path d="M15.16 22.5801C14.229 22.5801 13.713 22.0871 13.666 21.4481H14.319C14.384 21.7941 14.715 22.0311 15.21 22.0311C15.734 22.0311 16.04 21.7851 16.04 21.4111C16.04 21.1081 15.837 20.9441 15.403 20.8391L14.747 20.6751C14.137 20.5281 13.769 20.1651 13.769 19.5971C13.769 18.8911 14.366 18.4131 15.213 18.4131C16.066 18.4131 16.599 18.8881 16.649 19.5001H16.004C15.94 19.1801 15.652 18.9581 15.207 18.9581C14.735 18.9581 14.437 19.2041 14.437 19.5581C14.437 19.8191 14.633 19.9951 14.99 20.0801L15.644 20.2411C16.317 20.4051 16.704 20.7281 16.704 21.3511C16.704 22.0871 16.13 22.5801 15.16 22.5801ZM18.587 19.0701V22.5001H17.922V19.0701H16.753V18.5001H19.759V19.0681H18.587V19.0701Z" fill="white"/>
<path fill-rule="evenodd" clip-rule="evenodd" d="M23.045 20.2299V20.7739C23.045 21.9049 22.409 22.5789 21.384 22.5789C20.358 22.5789 19.72 21.9049 19.72 20.7739V20.2299C19.72 19.0939 20.358 18.4229 21.384 18.4229C22.41 18.4229 23.044 19.0969 23.044 20.2299H23.045ZM22.371 20.7769V20.2239C22.371 19.3969 21.949 18.9899 21.384 18.9899C20.812 18.9899 20.394 19.3969 20.394 20.2239V20.7769C20.394 21.6069 20.812 22.0139 21.384 22.0139C21.949 22.0139 22.371 21.6059 22.371 20.7769ZM23.521 18.5009H25.056C25.876 18.5009 26.372 19.0509 26.372 19.7929C26.372 20.5399 25.871 21.0819 25.051 21.0819H24.186V22.4999H23.521V18.5009ZM24.957 20.5369C25.42 20.5369 25.692 20.2649 25.692 19.7929C25.692 19.3209 25.42 19.0519 24.957 19.0519H24.183V20.5369H24.957Z" fill="white"/>
<path fill-rule="evenodd" clip-rule="evenodd" d="M16.893 12.5C16.7606 12.5 16.6337 12.5525 16.54 12.646L12.146 17.04C12.0525 17.1337 12 17.2606 12 17.393V23.607C12 23.7394 12.0525 23.8663 12.146 23.96L16.54 28.354C16.6337 28.4475 16.7606 28.5 16.893 28.5H23.107C23.2394 28.5 23.3663 28.4475 23.46 28.354L27.854 23.96C27.9475 23.8663 28 23.7394 28 23.607V17.393C28 17.2606 27.9475 17.1337 27.854 17.04L23.46 12.646C23.3663 12.5525 23.2394 12.5 23.107 12.5H16.893ZM13 17.6L17.1 13.5H22.9L27 17.6V23.4L22.9 27.5H17.1L13 23.4V17.6Z" fill="white"/>
</svg>
