<svg width="16" height="16" viewBox="0 0 16 16" fill="none" xmlns="http://www.w3.org/2000/svg">
<path d="M8 8C8.79565 8 9.55871 7.68393 10.1213 7.12132C10.6839 6.55871 11 5.79565 11 5C11 4.20435 10.6839 3.44129 10.1213 2.87868C9.55871 2.31607 8.79565 2 8 2C7.20435 2 6.44129 2.31607 5.87868 2.87868C5.31607 3.44129 5 4.20435 5 5C5 5.79565 5.31607 6.55871 5.87868 7.12132C6.44129 7.68393 7.20435 8 8 8ZM8 9C6.93913 9 5.92172 8.57857 5.17157 7.82843C4.42143 7.07828 4 6.06087 4 5C4 3.93913 4.42143 2.92172 5.17157 2.17157C5.92172 1.42143 6.93913 1 8 1C9.06087 1 10.0783 1.42143 10.8284 2.17157C11.5786 2.92172 12 3.93913 12 5C12 6.06087 11.5786 7.07828 10.8284 7.82843C10.0783 8.57857 9.06087 9 8 9Z" fill="black"/>
<path d="M8 8C8.13261 8 8.25979 8.05268 8.35355 8.14645C8.44732 8.24021 8.5 8.36739 8.5 8.5V12.5C8.5 12.6326 8.44732 12.7598 8.35355 12.8536C8.25979 12.9473 8.13261 13 8 13C7.86739 13 7.74021 12.9473 7.64645 12.8536C7.55268 12.7598 7.5 12.6326 7.5 12.5V8.5C7.5 8.36739 7.55268 8.24021 7.64645 8.14645C7.74021 8.05268 7.86739 8 8 8Z" fill="black"/>
<path d="M6 10.1416V11.1566C4.215 11.4426 3 12.0606 3 12.4996C3 13.0886 5.186 13.9996 8 13.9996C10.814 13.9996 13 13.0886 13 12.4996C13 12.0596 11.785 11.4426 10 11.1566V10.1416C12.33 10.4846 14 11.4116 14 12.4996C14 13.8796 11.314 14.9996 8 14.9996C4.686 14.9996 2 13.8796 2 12.4996C2 11.4106 3.67 10.4846 6 10.1416Z" fill="black"/>
</svg>
