<svg width="19" height="18" viewBox="0 0 19 18" fill="none" xmlns="http://www.w3.org/2000/svg">
<path d="M2 16V2V6.475V6V16ZM5 10H8.525C8.80833 10 9.046 9.904 9.238 9.712C9.43 9.52 9.52567 9.28267 9.525 9C9.52433 8.71733 9.42833 8.48 9.237 8.288C9.04567 8.096 8.80833 8 8.525 8H5C4.71667 8 4.47933 8.096 4.288 8.288C4.09667 8.48 4.00067 8.71733 4 9C3.99933 9.28267 4.09533 9.52033 4.288 9.713C4.48067 9.90567 4.718 10.0013 5 10ZM5 14H8.525C8.80833 14 9.046 13.904 9.238 13.712C9.43 13.52 9.52567 13.2827 9.525 13C9.52433 12.7173 9.42833 12.48 9.237 12.288C9.04567 12.096 8.80833 12 8.525 12H5C4.71667 12 4.47933 12.096 4.288 12.288C4.09667 12.48 4.00067 12.7173 4 13C3.99933 13.2827 4.09533 13.5203 4.288 13.713C4.48067 13.9057 4.718 14.0013 5 14ZM5 6H13C13.2833 6 13.521 5.904 13.713 5.712C13.905 5.52 14.0007 5.28267 14 5C13.9993 4.71733 13.9033 4.48 13.712 4.288C13.5207 4.096 13.2833 4 13 4H5C4.71667 4 4.47933 4.096 4.288 4.288C4.09667 4.48 4.00067 4.71733 4 5C3.99933 5.28267 4.09533 5.52033 4.288 5.713C4.48067 5.90567 4.718 6.00133 5 6ZM2 18C1.45 18 0.979333 17.8043 0.588 17.413C0.196667 17.0217 0.000666667 16.5507 0 16V2C0 1.45 0.196 0.979333 0.588 0.588C0.98 0.196667 1.45067 0.000666667 2 0H16C16.55 0 17.021 0.196 17.413 0.588C17.805 0.98 18.0007 1.45067 18 2V6.45C18 6.73333 17.904 6.971 17.712 7.163C17.52 7.355 17.2827 7.45067 17 7.45C16.7173 7.44933 16.48 7.35367 16.288 7.163C16.096 6.97233 16 6.73467 16 6.45V2H2V16H6C6.28333 16 6.521 16.096 6.713 16.288C6.905 16.48 7.00067 16.7173 7 17C6.99933 17.2827 6.90333 17.5203 6.712 17.713C6.52067 17.9057 6.28333 18.0013 6 18H2ZM14 13C13.3 13 12.7083 12.7583 12.225 12.275C11.7417 11.7917 11.5 11.2 11.5 10.5C11.5 9.8 11.7417 9.20833 12.225 8.725C12.7083 8.24167 13.3 8 14 8C14.7 8 15.2917 8.24167 15.775 8.725C16.2583 9.20833 16.5 9.8 16.5 10.5C16.5 11.2 16.2583 11.7917 15.775 12.275C15.2917 12.7583 14.7 13 14 13ZM14 14C14.65 14 15.296 14.0627 15.938 14.188C16.58 14.3133 17.2007 14.5007 17.8 14.75C18.1833 14.9 18.4793 15.146 18.688 15.488C18.8967 15.83 19.0007 16.2007 19 16.6V17C19 17.2833 18.904 17.521 18.712 17.713C18.52 17.905 18.2827 18.0007 18 18H10C9.71667 18 9.47933 17.904 9.288 17.712C9.09667 17.52 9.00067 17.2827 9 17V16.6C9 16.2 9.10433 15.8293 9.313 15.488C9.52167 15.1467 9.81733 14.9007 10.2 14.75C10.8 14.5 11.421 14.3127 12.063 14.188C12.705 14.0633 13.3507 14.0007 14 14Z" fill="black"/>
</svg>
