<svg width="20" height="20" viewBox="0 0 20 20" fill="none" xmlns="http://www.w3.org/2000/svg">
<path d="M9.401 16.1607L16.797 8.76472C15.5528 8.24494 14.4227 7.48592 13.471 6.53072C12.5153 5.57877 11.756 4.44837 11.236 3.20372L3.84 10.5997C3.263 11.1767 2.974 11.4657 2.726 11.7837C2.43339 12.1592 2.18226 12.5652 1.977 12.9947C1.804 13.3587 1.675 13.7467 1.417 14.5207L0.0549955 18.6037C-0.00769076 18.7907 -0.0169912 18.9914 0.0281393 19.1833C0.0732699 19.3753 0.171042 19.5508 0.310467 19.6903C0.449892 19.8297 0.625441 19.9274 0.817383 19.9726C1.00932 20.0177 1.21005 20.0084 1.397 19.9457L5.48 18.5837C6.255 18.3257 6.642 18.1967 7.006 18.0237C7.43733 17.8184 7.841 17.5687 8.217 17.2747C8.535 17.0267 8.824 16.7377 9.401 16.1607ZM18.849 6.71272C19.5864 5.97529 20.0007 4.97511 20.0007 3.93222C20.0007 2.88933 19.5864 1.88916 18.849 1.15172C18.1116 0.414286 17.1114 7.77013e-09 16.0685 0C15.0256 -7.77013e-09 14.0254 0.414286 13.288 1.15172L12.401 2.03872L12.439 2.14972C12.876 3.4005 13.5913 4.53571 14.531 5.46972C15.4929 6.43754 16.6679 7.16696 17.962 7.59972L18.849 6.71272Z" fill="black"/>
</svg>
