<svg width="22" height="17" viewBox="0 0 22 17" fill="none" xmlns="http://www.w3.org/2000/svg">
<path d="M11.7866 17V12.1429H14.9296L11.0008 7.28571L7.07193 12.1429H10.215V17H6.28616V16.9595C6.15415 16.9676 6.02843 17 5.89328 17C4.33028 17 2.83131 16.3603 1.7261 15.2217C0.620897 14.0831 0 12.5388 0 10.9286C0 7.81352 2.28659 5.27486 5.22066 4.92676C5.47791 3.54134 6.19572 2.29156 7.25064 1.39239C8.30555 0.493223 9.63163 0.000864599 11.0008 0C12.3701 0.000779834 13.6964 0.493072 14.7516 1.39222C15.8068 2.29137 16.5249 3.54119 16.7825 4.92676C19.7166 5.27486 22 7.81352 22 10.9286C22 12.5388 21.3791 14.0831 20.2739 15.2217C19.1687 16.3603 17.6697 17 16.1067 17C15.9747 17 15.8474 16.9676 15.7138 16.9595V17H11.7866Z" fill="black"/>
</svg>
