<svg width="22" height="22" viewBox="0 0 22 22" fill="none" xmlns="http://www.w3.org/2000/svg">
<path d="M11.7068 0.292786C11.5193 0.105315 11.265 0 10.9998 0C10.7346 0 10.4803 0.105315 10.2928 0.292786L7.29279 3.29279C7.19728 3.38503 7.12109 3.49538 7.06868 3.61738C7.01628 3.73939 6.98869 3.87061 6.98754 4.00339C6.98638 4.13616 7.01168 4.26784 7.06196 4.39074C7.11225 4.51364 7.1865 4.62529 7.28039 4.71918C7.37428 4.81307 7.48594 4.88733 7.60883 4.93761C7.73173 4.98789 7.86341 5.01319 7.99619 5.01204C8.12897 5.01088 8.26019 4.9833 8.38219 4.93089C8.50419 4.87848 8.61454 4.8023 8.70679 4.70679L9.99979 3.41379V9.99979H3.41379L4.70679 8.70679C4.88894 8.51818 4.98974 8.26558 4.98746 8.00339C4.98518 7.74119 4.88001 7.49038 4.6946 7.30497C4.5092 7.11956 4.25838 7.01439 3.99619 7.01211C3.73399 7.00983 3.48139 7.11063 3.29279 7.29279L0.292786 10.2928C0.105315 10.4803 0 10.7346 0 10.9998C0 11.265 0.105315 11.5193 0.292786 11.7068L3.29279 14.7068C3.48139 14.8889 3.73399 14.9897 3.99619 14.9875C4.25838 14.9852 4.5092 14.88 4.6946 14.6946C4.88001 14.5092 4.98518 14.2584 4.98746 13.9962C4.98974 13.734 4.88894 13.4814 4.70679 13.2928L3.41379 11.9998H9.99979V18.5858L8.70679 17.2928C8.51818 17.1106 8.26558 17.0098 8.00339 17.0121C7.74119 17.0144 7.49038 17.1196 7.30497 17.305C7.11956 17.4904 7.01439 17.7412 7.01211 18.0034C7.00983 18.2656 7.11063 18.5182 7.29279 18.7068L10.2928 21.7068C10.4803 21.8943 10.7346 21.9996 10.9998 21.9996C11.265 21.9996 11.5193 21.8943 11.7068 21.7068L14.7068 18.7068C14.8889 18.5182 14.9897 18.2656 14.9875 18.0034C14.9852 17.7412 14.88 17.4904 14.6946 17.305C14.5092 17.1196 14.2584 17.0144 13.9962 17.0121C13.734 17.0098 13.4814 17.1106 13.2928 17.2928L11.9998 18.5858V11.9998H18.5858L17.2928 13.2928C17.1106 13.4814 17.0098 13.734 17.0121 13.9962C17.0144 14.2584 17.1196 14.5092 17.305 14.6946C17.4904 14.88 17.7412 14.9852 18.0034 14.9875C18.2656 14.9897 18.5182 14.8889 18.7068 14.7068L21.7068 11.7068C21.8943 11.5193 21.9996 11.265 21.9996 10.9998C21.9996 10.7346 21.8943 10.4803 21.7068 10.2928L18.7068 7.29279C18.6145 7.19728 18.5042 7.12109 18.3822 7.06868C18.2602 7.01628 18.129 6.98869 17.9962 6.98754C17.8634 6.98638 17.7317 7.01168 17.6088 7.06196C17.4859 7.11225 17.3743 7.1865 17.2804 7.28039C17.1865 7.37428 17.1122 7.48594 17.062 7.60883C17.0117 7.73173 16.9864 7.86341 16.9875 7.99619C16.9887 8.12897 17.0163 8.26019 17.0687 8.38219C17.1211 8.50419 17.1973 8.61454 17.2928 8.70679L18.5858 9.99979H11.9998V3.41379L13.2928 4.70679C13.385 4.8023 13.4954 4.87848 13.6174 4.93089C13.7394 4.9833 13.8706 5.01088 14.0034 5.01204C14.1362 5.01319 14.2678 4.98789 14.3907 4.93761C14.5136 4.88733 14.6253 4.81307 14.7192 4.71918C14.8131 4.62529 14.8873 4.51364 14.9376 4.39074C14.9879 4.26784 15.0132 4.13616 15.012 4.00339C15.0109 3.87061 14.9833 3.73939 14.9309 3.61738C14.8785 3.49538 14.8023 3.38503 14.7068 3.29279L11.7068 0.292786Z" fill="black"/>
</svg>
