<svg width="19" height="18" viewBox="0 0 19 18" fill="none" xmlns="http://www.w3.org/2000/svg">
<path d="M8.40994 2.505C10.0799 0.835 10.9149 0 11.9519 0C12.9899 0 13.8249 0.835 15.4949 2.505C17.1649 4.175 17.9999 5.01 17.9999 6.048C17.9999 7.085 17.1649 7.92 15.4949 9.59L11.3019 13.784L4.21594 6.698L8.40994 2.505Z" fill="black"/>
<path d="M3.156 7.75879L10.241 14.8438L9.591 15.4938C9.213 15.8728 8.878 16.2078 8.573 16.4998H18C18.1989 16.4998 18.3897 16.5788 18.5303 16.7195C18.671 16.8601 18.75 17.0509 18.75 17.2498C18.75 17.4487 18.671 17.6395 18.5303 17.7801C18.3897 17.9208 18.1989 17.9998 18 17.9998H6C4.984 17.9748 4.15 17.1398 2.505 15.4948C0.835 13.8248 0 12.9898 0 11.9518C0 10.9148 0.835 10.0798 2.505 8.40979L3.156 7.75879Z" fill="black"/>
</svg>
