<svg width="22" height="22" viewBox="0 0 22 22" fill="none" xmlns="http://www.w3.org/2000/svg">
<path d="M19.28 17.571L19.898 17.738C20.372 17.865 20.608 17.928 20.804 17.778C21 17.628 21 17.418 21 17C21.0002 16.2626 20.7965 15.5396 20.4116 14.9107C20.0266 14.2818 19.4754 13.7716 18.8187 13.4364C18.1619 13.1011 17.4253 12.9539 16.6902 13.011C15.9551 13.0681 15.2501 13.3273 14.653 13.76M14.714 16.429L14.102 16.263C13.629 16.136 13.392 16.072 13.197 16.221L13.195 16.223C13 16.373 13 16.582 13 17C12.9999 17.7303 13.1998 18.4467 13.5779 19.0715C13.9561 19.6963 14.498 20.2056 15.1451 20.5443C15.7921 20.883 16.5195 21.038 17.2485 20.9926C17.9774 20.9473 18.6799 20.7032 19.28 20.287" stroke="black" stroke-width="1.5" stroke-linecap="round" stroke-linejoin="round"/>
<path d="M21 11.0002V8.21716C21 6.27716 21 5.30816 20.414 4.70516C19.828 4.10316 18.886 4.10316 17 4.10316H14.921C14.004 4.10316 13.996 4.10116 13.171 3.68816L9.84 2.02116C8.449 1.32516 7.753 0.977162 7.012 1.00116C6.271 1.02516 5.6 1.41816 4.253 2.20416L3.026 2.92016C2.037 3.49716 1.543 3.78616 1.272 4.26616C1 4.74616 1 5.33016 1 6.49916V14.7162C1 16.2512 1 17.0192 1.342 17.4462C1.57 17.7312 1.889 17.9222 2.242 17.9862C2.772 18.0812 3.422 17.7022 4.72 16.9442C5.602 16.4292 6.45 15.8942 7.505 16.0392C8.389 16.1612 9.21 16.7192 10 17.1142" stroke="black" stroke-width="1.5" stroke-linecap="round" stroke-linejoin="round"/>
<path d="M7 1V16" stroke="black" stroke-width="1.5" stroke-linejoin="round"/>
<path d="M14 4V10.5" stroke="black" stroke-width="1.5" stroke-linecap="round" stroke-linejoin="round"/>
</svg>
