<svg width="15" height="15" viewBox="0 0 15 15" fill="none" xmlns="http://www.w3.org/2000/svg">
<path d="M7.50001 12.143H14M7.50001 12.143C7.50001 12.3259 7.46398 12.5071 7.39398 12.6761C7.32397 12.8451 7.22136 12.9986 7.09201 13.128C6.96266 13.2574 6.8091 13.36 6.64009 13.43C6.47108 13.5 6.28994 13.536 6.10701 13.536C5.92408 13.536 5.74294 13.5 5.57393 13.43C5.40493 13.36 5.25136 13.2574 5.12201 13.128C4.99266 12.9986 4.89005 12.8451 4.82005 12.6761C4.75004 12.5071 4.71401 12.3259 4.71401 12.143C4.71401 11.9601 4.75004 11.7789 4.82005 11.6099C4.89005 11.4409 4.99266 11.2874 5.12201 11.158C5.25136 11.0286 5.40493 10.926 5.57393 10.856C5.74294 10.786 5.92408 10.75 6.10701 10.75C6.28994 10.75 6.47108 10.786 6.64009 10.856C6.8091 10.926 6.96266 11.0286 7.09201 11.158C7.22136 11.2874 7.32397 11.4409 7.39398 11.6099C7.46398 11.7789 7.50001 11.9601 7.50001 12.143ZM14 12.143L12.143 10.286M14 12.143L12.143 14M3.78601 2.393C3.78601 2.76245 3.93277 3.11676 4.19401 3.378C4.45525 3.63924 4.80956 3.786 5.17901 3.786C5.54846 3.786 5.90277 3.63924 6.16401 3.378C6.42525 3.11676 6.57201 2.76245 6.57201 2.393C6.57201 2.02355 6.42525 1.66924 6.16401 1.408C5.90277 1.14676 5.54846 1 5.17901 1C4.80956 1 4.45525 1.14676 4.19401 1.408C3.93277 1.66924 3.78601 2.02355 3.78601 2.393ZM7.50001 7.036C7.50001 7.40545 7.64677 7.75976 7.90801 8.021C8.16925 8.28224 8.52356 8.429 8.89301 8.429C9.26246 8.429 9.61677 8.28224 9.87801 8.021C10.1392 7.75976 10.286 7.40545 10.286 7.036C10.286 6.66655 10.1392 6.31224 9.87801 6.051C9.61677 5.78976 9.26246 5.643 8.89301 5.643C8.52356 5.643 8.16925 5.78976 7.90801 6.051C7.64677 6.31224 7.50001 6.66655 7.50001 7.036Z" stroke="black" stroke-linecap="round" stroke-linejoin="round"/>
<path d="M7.5 7.03558H3.554C2.88552 7.04881 2.24888 7.32365 1.7808 7.80108C1.31273 8.27852 1.05053 8.92047 1.05053 9.58908C1.05053 10.2577 1.31273 10.8996 1.7808 11.3771C2.24888 11.8545 2.88552 12.1293 3.554 12.1426H4.714M10.286 7.03558H11.679C12.2947 7.03558 12.8852 6.79099 13.3205 6.35563C13.7559 5.92026 14.0005 5.32978 14.0005 4.71408C14.0005 4.09838 13.7559 3.5079 13.3205 3.07253C12.8852 2.63716 12.2947 2.39258 11.679 2.39258H6.57M3.786 2.39258H1" stroke="black" stroke-linecap="round" stroke-linejoin="round"/>
</svg>
