<svg width="25" height="25" viewBox="0 0 25 25" fill="none" xmlns="http://www.w3.org/2000/svg">
<g clip-path="url(#clip0_652_722)">
<path d="M12.4495 5.89844C10.491 5.89869 8.55048 6.74044 8.75448 8.42244L9.25448 12.0784C9.34223 12.7217 9.77698 13.7504 10.4262 13.7504H10.4725L11.0042 19.8832C11.0272 20.1592 11.2272 20.3832 11.5042 20.3832H13.5042C13.7812 20.3832 13.9812 20.1592 14.0042 19.8832L14.536 13.7504H14.5825C15.2317 13.7504 15.6662 12.7217 15.7542 12.0787L16.2542 8.42219C16.3852 6.73894 14.4082 5.89794 12.4495 5.89844Z" fill="black"/>
<path d="M12.5 5.25C13.9497 5.25 15.125 4.07475 15.125 2.625C15.125 1.17525 13.9497 0 12.5 0C11.0503 0 9.875 1.17525 9.875 2.625C9.875 4.07475 11.0503 5.25 12.5 5.25Z" fill="black"/>
<path d="M15.2305 17.2734C15.2093 17.5164 15.1867 17.7589 15.1655 18.0019C17.4035 18.3179 19.0625 19.0349 19.25 19.9219C19.5292 21.2409 15.2145 21.8344 12.435 21.8067C9.6555 21.7789 5.42025 21.2409 5.7905 19.9217C6.0335 19.0559 7.6685 18.3532 9.848 18.0259C9.82625 17.7822 9.8015 17.5384 9.7805 17.2949C6.979 17.6039 4.645 18.3647 3.7125 19.3564H0.55725L0 20.5122H3.2915C3.54725 21.8722 6.39825 23.0462 10.475 23.3427L10.3355 25.0004H14.3705L14.33 23.3429C18.4275 23.0462 21.3592 21.8722 21.7085 20.5122H25L24.5225 19.3564H21.3673C20.4815 18.3397 18.1053 17.5664 15.2305 17.2734Z" fill="black"/>
</g>
<defs>
<clipPath id="clip0_652_722">
<rect width="25" height="25" fill="white"/>
</clipPath>
</defs>
</svg>
