<svg width="12" height="10" viewBox="0 0 12 10" fill="none" xmlns="http://www.w3.org/2000/svg">
<path d="M6 0C6.26522 0 6.51957 0.105357 6.70711 0.292893C6.89464 0.48043 7 0.734784 7 1C7 1.37 6.8 1.695 6.5 1.865V2.5H7C7.92826 2.5 8.8185 2.86875 9.47487 3.52513C10.1313 4.1815 10.5 5.07174 10.5 6H11C11.1326 6 11.2598 6.05268 11.3536 6.14645C11.4473 6.24021 11.5 6.36739 11.5 6.5V8C11.5 8.13261 11.4473 8.25979 11.3536 8.35355C11.2598 8.44732 11.1326 8.5 11 8.5H10.5V9C10.5 9.26522 10.3946 9.51957 10.2071 9.70711C10.0196 9.89464 9.76522 10 9.5 10H2.5C2.23478 10 1.98043 9.89464 1.79289 9.70711C1.60536 9.51957 1.5 9.26522 1.5 9V8.5H1C0.867392 8.5 0.740215 8.44732 0.646447 8.35355C0.552678 8.25979 0.5 8.13261 0.5 8V6.5C0.5 6.36739 0.552678 6.24021 0.646447 6.14645C0.740215 6.05268 0.867392 6 1 6H1.5C1.5 5.07174 1.86875 4.1815 2.52513 3.52513C3.1815 2.86875 4.07174 2.5 5 2.5H5.5V1.865C5.2 1.695 5 1.37 5 1C5 0.734784 5.10536 0.48043 5.29289 0.292893C5.48043 0.105357 5.73478 0 6 0ZM3.75 5.5C3.41848 5.5 3.10054 5.6317 2.86612 5.86612C2.6317 6.10054 2.5 6.41848 2.5 6.75C2.5 7.08152 2.6317 7.39946 2.86612 7.63388C3.10054 7.8683 3.41848 8 3.75 8C4.08152 8 4.39946 7.8683 4.63388 7.63388C4.8683 7.39946 5 7.08152 5 6.75C5 6.41848 4.8683 6.10054 4.63388 5.86612C4.39946 5.6317 4.08152 5.5 3.75 5.5ZM8.25 5.5C7.91848 5.5 7.60054 5.6317 7.36612 5.86612C7.1317 6.10054 7 6.41848 7 6.75C7 7.08152 7.1317 7.39946 7.36612 7.63388C7.60054 7.8683 7.91848 8 8.25 8C8.58152 8 8.89946 7.8683 9.13388 7.63388C9.3683 7.39946 9.5 7.08152 9.5 6.75C9.5 6.41848 9.3683 6.10054 9.13388 5.86612C8.89946 5.6317 8.58152 5.5 8.25 5.5Z" fill="white"/>
</svg>
