<svg width="22" height="22" viewBox="0 0 22 22" fill="none" xmlns="http://www.w3.org/2000/svg">
<path d="M7.002 19.004V20.004H3V17.004H4V19.004H7.002ZM19.004 17.004V20.004H16.004V19.004H18.004V17.004H19.004ZM15.003 20.005V22.005H8.002V20.005H9.002V19.005H11.002V18.005H10.002V17.004H9.002V14.004H10.002V13.003H13.003V14.003H14.003V17.003H13.003V18.004H12.003V19.004H14.003V20.004L15.003 20.005ZM22.005 14.003V16.003H15.003V14.003H16.003V13.003H18.004V12.003H17.004V11.003H16.004V8.001H17.004V7.001H20.004V8.001H21.004V11.001H20.004V12.001H19.004V13.001H21.004V14.002L22.005 14.003ZM7.002 14.003V16.003H0V14.003H1V13.003H3V12.003H2V11.003H1V8.001H2V7.001H5.001V8.001H6.001V11.001H5.001V12.001H4.001V13.001H6.001V14.002L7.002 14.003ZM7.002 2V3H4V6.001H3V2.001L7.002 2ZM19.004 2V6.001H18.004V3.001H14.004V2.001L19.004 2ZM14.003 7.002V9.002H7.002V7.002H8.002V6.002H10.002V5.002H9.002V4H8.002V1H9.002V0H12.002V1H13.003V4H12.003V5.001H11.003V6.001H13.003V7.001L14.003 7.002Z" fill="black"/>
</svg>
