<svg width="24" height="23" viewBox="0 0 24 23" fill="none" xmlns="http://www.w3.org/2000/svg">
<path d="M1.5 1C6.2605 1 10.1265 4.86 10.1835 9.643L12.0285 12.263C12.303 12.652 12.2545 13.175 11.8485 13.424C11.441 13.6745 10.835 13.968 10.0115 14.1705L9.734 17.5235C9.7173 17.7252 9.65998 17.9213 9.56548 18.1003C9.47098 18.2792 9.34126 18.4371 9.18412 18.5646C9.02698 18.6921 8.84568 18.7864 8.65112 18.842C8.45656 18.8976 8.25276 18.9132 8.052 18.888L6.7105 18.719V20.338C6.7105 20.9825 6.2955 21.546 5.6625 21.663C4.803 21.8235 3.415 22 1.5 22H1V1H1.5Z" fill="#8FBFFA"/>
<path d="M1.5 1C6.2605 1 10.1265 4.86 10.1835 9.643L12.0285 12.263C12.303 12.652 12.2545 13.175 11.8485 13.424C11.441 13.6745 10.835 13.968 10.0115 14.1705L9.7345 17.5235C9.71781 17.7252 9.66047 17.9214 9.56594 18.1004C9.47141 18.2793 9.34164 18.4373 9.18444 18.5648C9.02725 18.6923 8.84589 18.7866 8.65127 18.8422C8.45665 18.8977 8.2528 18.9133 8.052 18.888L6.7105 18.719V20.338C6.7105 20.9825 6.2955 21.546 5.6625 21.663C4.803 21.8235 3.415 22 1.5 22M20 8.5C23.3335 11.8135 23.3335 17.1865 20 20.5M17.625 10.5C19.625 12.709 19.625 16.291 17.625 18.5M14.75 12.25C16.0835 13.4925 16.0835 15.5075 14.75 16.75M6 8.5V9" stroke="#2859C5" stroke-width="1.5" stroke-linecap="round" stroke-linejoin="round"/>
</svg>
