<?xml version="1.0" standalone="no"?><!DOCTYPE svg PUBLIC "-//W3C//DTD SVG 1.1//EN" "http://www.w3.org/Graphics/SVG/1.1/DTD/svg11.dtd"><svg t="1768465066922" class="icon" viewBox="0 0 1024 1024" version="1.1" xmlns="http://www.w3.org/2000/svg" p-id="7508" xmlns:xlink="http://www.w3.org/1999/xlink" width="128" height="128"><path d="M511.786667 64a225.386667 225.386667 0 0 1 125.952 36.586667c58.517333 37.610667 94.186667 90.922667 105.92 158.656 11.157333 64.405333-9.109333 129.28-54.016 187.264-25.6 33.045333-70.314667 87.168-156.544 189.696L511.936 661.333333l-21.077333-25.173333c-106.88-127.744-133.248-159.573333-156.522667-189.653333-44.885333-58.112-65.152-122.901333-53.994667-187.264 11.733333-67.733333 47.402667-121.045333 105.92-158.656C424.704 75.882667 466.858667 63.637333 511.786667 64z m0.213333 149.333333a85.333333 85.333333 0 1 0 0 170.666667 85.333333 85.333333 0 0 0 0-170.666667zM746.517333 576a142.378667 142.378667 0 0 1 80.170667 23.509333c37.226667 24.192 59.946667 58.453333 67.413333 101.994667 7.082667 41.408-5.824 83.114667-34.389333 120.405333-16.277333 21.226667-44.757333 56.021333-99.626667 121.92L746.666667 960l-13.44-16.213333c-68.010667-82.090667-84.8-102.549333-99.584-121.898667-28.586667-37.333333-41.472-78.997333-34.368-120.384 7.466667-43.52 30.144-77.802667 67.413333-101.973333A142.122667 142.122667 0 0 1 746.496 576zM746.666667 661.333333a64 64 0 1 0 0 128 64 64 0 0 0 0-128zM277.184 576a142.378667 142.378667 0 0 1 80.170667 23.509333c37.226667 24.192 59.946667 58.453333 67.413333 101.994667 7.082667 41.408-5.824 83.114667-34.389333 120.405333-16.277333 21.226667-44.757333 56.021333-99.626667 121.92L277.333333 960l-13.44-16.213333c-68.010667-82.090667-84.8-102.549333-99.584-121.898667-28.586667-37.333333-41.472-78.997333-34.368-120.384 7.466667-43.52 30.144-77.802667 67.413334-101.973333A142.122667 142.122667 0 0 1 277.162667 576zM277.333333 661.333333a64 64 0 1 0 0 128 64 64 0 0 0 0-128z" fill="#2c2c2c" p-id="7509"></path></svg>