<?xml version="1.0" standalone="no"?><!DOCTYPE svg PUBLIC "-//W3C//DTD SVG 1.1//EN" "http://www.w3.org/Graphics/SVG/1.1/DTD/svg11.dtd"><svg t="1768465029150" class="icon" viewBox="0 0 1024 1024" version="1.1" xmlns="http://www.w3.org/2000/svg" p-id="5344" xmlns:xlink="http://www.w3.org/1999/xlink" width="128" height="128"><path d="M938.666667 588.8l-34.133334-17.066667 25.6-17.066666c76.8-42.666667 93.866667-145.066667 34.133334-204.8 59.733333-34.133333 59.733333-119.466667-8.533334-153.6L546.133333 17.066667c-25.6-8.533333-51.2-8.533333-68.266666 0L68.266667 196.266667C0 230.4 0 315.733333 59.733333 349.866667 0 409.6 17.066667 512 93.866667 554.666667l25.6 17.066666-34.133334 17.066667C0 640 8.533333 768 93.866667 810.666667l358.4 187.733333c34.133333 17.066667 76.8 17.066667 119.466666 0l358.4-187.733333c85.333333-42.666667 93.866667-170.666667 8.533334-221.866667zM128 401.066667l17.066667-17.066667 324.266666 145.066667c25.6 8.533333 51.2 8.533333 68.266667 0l324.266667-145.066667 17.066666 17.066667c25.6 17.066667 25.6 59.733333 0 76.8L529.066667 665.6c-8.533333 8.533333-25.6 8.533333-42.666667 0L136.533333 477.866667c-34.133333-17.066667-34.133333-59.733333-8.533333-76.8z m759.466667 332.8l-358.4 187.733333c-8.533333 8.533333-25.6 8.533333-42.666667 0L136.533333 733.866667c-25.6-17.066667-34.133333-59.733333 0-76.8l76.8-51.2 247.466667 128c34.133333 17.066667 76.8 17.066667 119.466667 0l247.466666-128 76.8 51.2c17.066667 17.066667 17.066667 59.733333-17.066666 76.8z" fill="#2c2c2c" p-id="5345"></path></svg>