<?xml version="1.0" standalone="no"?><!DOCTYPE svg PUBLIC "-//W3C//DTD SVG 1.1//EN" "http://www.w3.org/Graphics/SVG/1.1/DTD/svg11.dtd"><svg t="1768799146650" class="icon" viewBox="0 0 1024 1024" version="1.1" xmlns="http://www.w3.org/2000/svg" p-id="5665" xmlns:xlink="http://www.w3.org/1999/xlink" width="128" height="128"><path d="M632.746667 675.413333c-5.12 0-10.24-2.56-13.226667-6.826666-13.653333-19.2-133.973333-190.72-133.973333-264.106667 0-79.36 66.133333-144.213333 147.2-144.213333 81.066667 0 147.2 64.426667 147.2 144.213333 0 73.813333-120.32 244.906667-133.973334 264.106667-2.986667 4.266667-8.106667 6.826667-13.226666 6.826666z m0-383.573333c-63.146667 0-114.773333 50.346667-114.773334 112.213333 0 48.213333 73.813333 166.4 114.773334 226.986667 40.96-60.586667 114.773333-178.773333 114.773333-226.986667 0-61.866667-51.626667-112.213333-114.773333-112.213333z" p-id="5666"></path><path d="M632.746667 467.626667c-35.84 0-64.853333-28.586667-64.853334-63.573334s29.013333-63.573333 64.853334-63.573333 64.853333 28.586667 64.853333 63.573333c0 35.413333-29.44 63.573333-64.853333 63.573334z m0-95.146667a32 32 0 0 0-32.426667 31.573333c0 17.493333 14.506667 31.573333 32.426667 31.573334s32.426667-14.08 32.426666-31.573334c0-17.066667-14.506667-31.573333-32.426666-31.573333z" p-id="5667"></path><path d="M828.586667 789.76H426.666667c-8.96 0-16.213333-7.253333-16.213334-15.786667s7.253333-15.786667 16.213334-15.786666h401.92c33.28 0 60.16-26.026667 60.16-58.453334 0-32-26.88-58.453333-60.16-58.453333H763.733333c-8.96 0-16.213333-7.253333-16.213333-15.786667 0-8.96 7.253333-15.786667 16.213333-15.786666h64.853334c51.2 0 92.586667 40.533333 92.586666 90.026666 0 49.92-41.386667 90.026667-92.586666 90.026667zM504.746667 641.28H281.173333c-8.96 0-16.213333-7.253333-16.213333-15.786667 0-8.96 7.253333-15.786667 16.213333-15.786666h223.573334c8.96 0 16.213333 7.253333 16.213333 15.786666 0 8.533333-7.253333 15.786667-16.213333 15.786667z" p-id="5668"></path><path d="M979.2 938.24H403.2c-51.2 0-92.586667-40.533333-92.586667-90.026667s41.386667-90.026667 92.586667-90.026666h400.64c8.96 0 16.213333 7.253333 16.213333 15.786666s-7.253333 15.786667-16.213333 15.786667H403.2c-33.28 0-60.16 26.026667-60.16 58.453333s26.88 58.453333 60.16 58.453334h576c8.96 0 16.213333 7.253333 16.213333 15.786666s-7.253333 15.786667-16.213333 15.786667z" p-id="5669"></path><path d="M274.773333 955.733333H177.493333c-35.413333 0-64-28.586667-64-64V99.413333c0-35.413333 28.586667-64 64-64h672c35.413333 0 64 28.586667 64 64v160c0 11.946667-9.386667 21.333333-21.333333 21.333334s-21.333333-9.386667-21.333333-21.333334V99.413333c0-11.946667-9.386667-21.333333-21.333334-21.333333H177.493333c-11.946667 0-21.333333 9.386667-21.333333 21.333333V891.733333c0 11.946667 9.386667 21.333333 21.333333 21.333334h97.28c11.946667 0 21.333333 9.386667 21.333334 21.333333s-9.813333 21.333333-21.333334 21.333333z" p-id="5670"></path></svg>