<svg width="18" height="18" viewBox="0 0 18 18" fill="none" xmlns="http://www.w3.org/2000/svg">
<path d="M18 13.8252V18H13.5V15.75H11.25V13.5H9V11.6807C8.56641 11.9092 8.1123 12.082 7.6377 12.1992C7.16309 12.3164 6.67969 12.375 6.1875 12.375C5.61914 12.375 5.07129 12.3018 4.54395 12.1553C4.0166 12.0088 3.52441 11.8008 3.06738 11.5312C2.61035 11.2617 2.19434 10.9395 1.81934 10.5645C1.44434 10.1895 1.11914 9.77051 0.84375 9.30762C0.568359 8.84473 0.360352 8.35254 0.219727 7.83105C0.0791016 7.30957 0.00585938 6.76172 0 6.1875C0 5.61914 0.0732422 5.07129 0.219727 4.54395C0.366211 4.0166 0.574219 3.52441 0.84375 3.06738C1.11328 2.61035 1.43555 2.19434 1.81055 1.81934C2.18555 1.44434 2.60449 1.11914 3.06738 0.84375C3.53027 0.568359 4.02246 0.360352 4.54395 0.219727C5.06543 0.0791016 5.61328 0.00585938 6.1875 0C6.75586 0 7.30371 0.0732422 7.83105 0.219727C8.3584 0.366211 8.85059 0.574219 9.30762 0.84375C9.76465 1.11328 10.1807 1.43555 10.5557 1.81055C10.9307 2.18555 11.2559 2.60449 11.5312 3.06738C11.8066 3.53027 12.0146 4.02246 12.1553 4.54395C12.2959 5.06543 12.3691 5.61328 12.375 6.1875C12.375 6.48633 12.3516 6.78223 12.3047 7.0752C12.2578 7.36816 12.1904 7.65527 12.1025 7.93652L18 13.8252ZM4.5 6.1875C4.73438 6.1875 4.9541 6.14355 5.15918 6.05566C5.36426 5.96777 5.54297 5.84766 5.69531 5.69531C5.84766 5.54297 5.96777 5.36426 6.05566 5.15918C6.14355 4.9541 6.1875 4.73438 6.1875 4.5C6.1875 4.26562 6.14355 4.0459 6.05566 3.84082C5.96777 3.63574 5.84766 3.45703 5.69531 3.30469C5.54297 3.15234 5.36426 3.03223 5.15918 2.94434C4.9541 2.85645 4.73438 2.8125 4.5 2.8125C4.26562 2.8125 4.0459 2.85645 3.84082 2.94434C3.63574 3.03223 3.45703 3.15234 3.30469 3.30469C3.15234 3.45703 3.03223 3.63574 2.94434 3.84082C2.85645 4.0459 2.8125 4.26562 2.8125 4.5C2.8125 4.73438 2.85645 4.9541 2.94434 5.15918C3.03223 5.36426 3.15234 5.54297 3.30469 5.69531C3.45703 5.84766 3.63574 5.96777 3.84082 6.05566C4.0459 6.14355 4.26562 6.1875 4.5 6.1875Z" fill="#068755"/>
</svg>
