<svg width="65" height="43" viewBox="0 0 65 43" fill="none" xmlns="http://www.w3.org/2000/svg">
<path d="M8.44935 16.875C8.84932 17.375 9.36594 17.62 9.99923 17.61C10.6325 17.6 11.0991 17.3133 11.3991 16.75L16.9987 6.25L8.59934 13.25C8.14937 13.625 7.91206 14.1979 7.88739 14.9688C7.86273 15.7396 8.05005 16.375 8.44935 16.875ZM9.99923 2.5C10.9825 2.5 11.9284 2.67167 12.837 3.015C13.7456 3.35833 14.5995 3.87417 15.3988 4.5625L13.499 6.0625C12.949 5.70833 12.3784 5.44292 11.7871 5.26625C11.1958 5.08958 10.5998 5.00083 9.99923 5C7.78273 5 5.89521 5.97417 4.33666 7.9225C2.77812 9.87083 1.99918 12.23 1.99985 15C1.99985 15.875 2.09584 16.7396 2.28782 17.5938C2.47981 18.4479 2.75045 19.25 3.09976 20H16.8987C17.282 19.2083 17.5613 18.3854 17.7366 17.5312C17.912 16.6771 17.9993 15.7917 17.9986 14.875C17.9986 14.125 17.9276 13.3958 17.7856 12.6875C17.6436 11.9792 17.4313 11.2917 17.1487 10.625L18.3486 8.25C18.8485 9.22917 19.2445 10.2708 19.5365 11.375C19.8285 12.4792 19.9825 13.625 19.9985 14.8125C20.0145 16 19.9061 17.1354 19.6735 18.2188C19.4408 19.3021 19.0992 20.3333 18.6486 21.3125C18.4652 21.6875 18.2153 21.9792 17.8986 22.1875C17.582 22.3958 17.2487 22.5 16.8987 22.5H3.09976C2.74979 22.5 2.41648 22.3958 2.09984 22.1875C1.7832 21.9792 1.53321 21.6875 1.3499 21.3125C0.916596 20.375 0.583288 19.3804 0.349973 18.3288C0.116658 17.2771 0 16.1675 0 15C0 13.2708 0.262646 11.6512 0.787939 10.1412C1.31323 8.63125 2.02984 7.30833 2.93777 6.1725C3.8457 5.03667 4.90795 4.14083 6.12453 3.485C7.3411 2.82917 8.63267 2.50083 9.99923 2.5Z" fill="#6FDAFE"/>
<path d="M31.144 11.16V15.408H30.268V12H28.588V11.16H31.144ZM31.144 15.012C31.432 15.452 31.832 15.78 32.344 15.996C32.856 16.212 33.46 16.332 34.156 16.356C34.484 16.372 34.88 16.384 35.344 16.392C35.816 16.392 36.308 16.388 36.82 16.38C37.34 16.372 37.84 16.36 38.32 16.344C38.8 16.328 39.22 16.308 39.58 16.284C39.54 16.348 39.5 16.436 39.46 16.548C39.42 16.66 39.384 16.772 39.352 16.884C39.32 17.004 39.296 17.108 39.28 17.196C38.952 17.212 38.564 17.224 38.116 17.232C37.668 17.24 37.204 17.244 36.724 17.244C36.244 17.252 35.776 17.252 35.32 17.244C34.872 17.244 34.484 17.24 34.156 17.232C33.372 17.2 32.7 17.072 32.14 16.848C31.588 16.624 31.12 16.272 30.736 15.792C30.448 16.048 30.152 16.304 29.848 16.56C29.544 16.824 29.228 17.092 28.9 17.364L28.432 16.44C28.72 16.248 29.028 16.028 29.356 15.78C29.692 15.524 30.016 15.268 30.328 15.012H31.144ZM28.72 7.248L29.38 6.708C29.644 6.876 29.912 7.072 30.184 7.296C30.456 7.512 30.704 7.732 30.928 7.956C31.16 8.18 31.348 8.388 31.492 8.58L30.772 9.18C30.652 8.988 30.476 8.776 30.244 8.544C30.02 8.312 29.772 8.084 29.5 7.86C29.236 7.628 28.976 7.424 28.72 7.248ZM33.16 10.164V11.7H37.912V10.164H33.16ZM32.32 9.432H38.788V12.42H32.32V9.432ZM31.816 7.668H39.34V8.448H31.816V7.668ZM35.044 6.432H35.92V15.912H35.044V6.432ZM34.744 12.144L35.416 12.396C35.176 12.82 34.88 13.236 34.528 13.644C34.184 14.044 33.808 14.412 33.4 14.748C32.992 15.076 32.584 15.344 32.176 15.552C32.136 15.48 32.08 15.404 32.008 15.324C31.944 15.236 31.876 15.152 31.804 15.072C31.732 14.992 31.664 14.924 31.6 14.868C32 14.692 32.396 14.464 32.788 14.184C33.188 13.896 33.56 13.576 33.904 13.224C34.248 12.864 34.528 12.504 34.744 12.144ZM36.124 12.144C36.364 12.496 36.664 12.844 37.024 13.188C37.384 13.532 37.772 13.848 38.188 14.136C38.604 14.416 39.008 14.644 39.4 14.82C39.336 14.876 39.264 14.948 39.184 15.036C39.104 15.116 39.028 15.2 38.956 15.288C38.892 15.368 38.836 15.444 38.788 15.516C38.396 15.308 37.992 15.036 37.576 14.7C37.168 14.364 36.78 14 36.412 13.608C36.052 13.216 35.744 12.82 35.488 12.42L36.124 12.144ZM43.7 9.78H52.244V10.524H43.7V9.78ZM43.868 13.284H50.744V14.028H43.868V13.284ZM45.632 8.736H46.496V11.796H49.412V8.736H50.3V12.516H45.632V8.736ZM50.504 13.284H50.684L50.84 13.248L51.404 13.548C51.076 14.172 50.648 14.712 50.12 15.168C49.592 15.616 48.992 15.992 48.32 16.296C47.648 16.6 46.928 16.844 46.16 17.028C45.392 17.22 44.6 17.364 43.784 17.46C43.76 17.356 43.708 17.228 43.628 17.076C43.556 16.924 43.48 16.8 43.4 16.704C44.16 16.624 44.904 16.508 45.632 16.356C46.36 16.196 47.04 15.984 47.672 15.72C48.312 15.456 48.876 15.136 49.364 14.76C49.852 14.384 50.232 13.936 50.504 13.416V13.284ZM46.004 13.908C46.388 14.444 46.904 14.904 47.552 15.288C48.208 15.672 48.96 15.98 49.808 16.212C50.656 16.444 51.564 16.608 52.532 16.704C52.476 16.768 52.412 16.848 52.34 16.944C52.276 17.04 52.212 17.132 52.148 17.22C52.092 17.316 52.044 17.404 52.004 17.484C51.02 17.356 50.096 17.152 49.232 16.872C48.368 16.6 47.592 16.244 46.904 15.804C46.224 15.356 45.668 14.824 45.236 14.208L46.004 13.908ZM46.892 6.42H47.816V8.064H46.892V6.42ZM42.896 7.608H52.316V8.424H42.896V7.608ZM42.452 7.608H43.316V11.076C43.316 11.54 43.3 12.048 43.268 12.6C43.244 13.152 43.188 13.716 43.1 14.292C43.02 14.868 42.9 15.428 42.74 15.972C42.588 16.516 42.38 17.016 42.116 17.472C42.068 17.424 41.996 17.364 41.9 17.292C41.812 17.228 41.72 17.164 41.624 17.1C41.536 17.044 41.452 17.004 41.372 16.98C41.62 16.548 41.816 16.084 41.96 15.588C42.104 15.084 42.212 14.568 42.284 14.04C42.356 13.512 42.4 12.996 42.416 12.492C42.44 11.98 42.452 11.508 42.452 11.076V7.608Z" fill="#D4EDFD"/>
<path d="M14.4141 38.1193C13.772 38.1193 13.2251 37.9446 12.7734 37.5952C12.3217 37.2429 11.9766 36.733 11.7379 36.0653C11.4993 35.3949 11.38 34.5852 11.38 33.6364C11.38 32.6932 11.4993 31.8878 11.7379 31.2202C11.9794 30.5497 12.326 30.0384 12.7777 29.6861C13.2322 29.331 13.7777 29.1534 14.4141 29.1534C15.0504 29.1534 15.5945 29.331 16.0462 29.6861C16.5007 30.0384 16.8473 30.5497 17.0859 31.2202C17.3274 31.8878 17.4482 32.6932 17.4482 33.6364C17.4482 34.5852 17.3288 35.3949 17.0902 36.0653C16.8516 36.733 16.5064 37.2429 16.0547 37.5952C15.603 37.9446 15.0561 38.1193 14.4141 38.1193ZM14.4141 37.1818C15.0504 37.1818 15.5447 36.875 15.897 36.2614C16.2493 35.6477 16.4254 34.7727 16.4254 33.6364C16.4254 32.8807 16.3445 32.2372 16.1825 31.706C16.0234 31.1747 15.7933 30.7699 15.4922 30.4915C15.1939 30.2131 14.8345 30.0739 14.4141 30.0739C13.7834 30.0739 13.2905 30.3849 12.9354 31.0071C12.5803 31.6264 12.4027 32.5028 12.4027 33.6364C12.4027 34.392 12.4822 35.0341 12.6413 35.5625C12.8004 36.0909 13.0291 36.4929 13.3274 36.7685C13.6286 37.044 13.9908 37.1818 14.4141 37.1818ZM20.5128 38.0682C20.3026 38.0682 20.1222 37.9929 19.9716 37.8423C19.821 37.6918 19.7457 37.5114 19.7457 37.3011C19.7457 37.0909 19.821 36.9105 19.9716 36.7599C20.1222 36.6094 20.3026 36.5341 20.5128 36.5341C20.723 36.5341 20.9034 36.6094 21.054 36.7599C21.2045 36.9105 21.2798 37.0909 21.2798 37.3011C21.2798 37.4403 21.2443 37.5682 21.1733 37.6847C21.1051 37.8011 21.0128 37.8949 20.8963 37.9659C20.7827 38.0341 20.6548 38.0682 20.5128 38.0682ZM26.6094 38.1193C25.9673 38.1193 25.4205 37.9446 24.9688 37.5952C24.517 37.2429 24.1719 36.733 23.9332 36.0653C23.6946 35.3949 23.5753 34.5852 23.5753 33.6364C23.5753 32.6932 23.6946 31.8878 23.9332 31.2202C24.1747 30.5497 24.5213 30.0384 24.973 29.6861C25.4276 29.331 25.973 29.1534 26.6094 29.1534C27.2457 29.1534 27.7898 29.331 28.2415 29.6861C28.696 30.0384 29.0426 30.5497 29.2812 31.2202C29.5227 31.8878 29.6435 32.6932 29.6435 33.6364C29.6435 34.5852 29.5241 35.3949 29.2855 36.0653C29.0469 36.733 28.7017 37.2429 28.25 37.5952C27.7983 37.9446 27.2514 38.1193 26.6094 38.1193ZM26.6094 37.1818C27.2457 37.1818 27.7401 36.875 28.0923 36.2614C28.4446 35.6477 28.6207 34.7727 28.6207 33.6364C28.6207 32.8807 28.5398 32.2372 28.3778 31.706C28.2188 31.1747 27.9886 30.7699 27.6875 30.4915C27.3892 30.2131 27.0298 30.0739 26.6094 30.0739C25.9787 30.0739 25.4858 30.3849 25.1307 31.0071C24.7756 31.6264 24.598 32.5028 24.598 33.6364C24.598 34.392 24.6776 35.0341 24.8366 35.5625C24.9957 36.0909 25.2244 36.4929 25.5227 36.7685C25.8239 37.044 26.1861 37.1818 26.6094 37.1818ZM32.2798 38V31.4545H33.2514V32.4773H33.3366C33.473 32.1278 33.6932 31.8565 33.9972 31.6634C34.3011 31.4673 34.6662 31.3693 35.0923 31.3693C35.5241 31.3693 35.8835 31.4673 36.1705 31.6634C36.4602 31.8565 36.6861 32.1278 36.848 32.4773H36.9162C37.0838 32.1392 37.3352 31.8707 37.6705 31.6719C38.0057 31.4702 38.4077 31.3693 38.8764 31.3693C39.4616 31.3693 39.9403 31.5526 40.3125 31.919C40.6847 32.2827 40.8707 32.8494 40.8707 33.6193V38H39.8651V33.6193C39.8651 33.1364 39.733 32.7912 39.4688 32.5838C39.2045 32.3764 38.8935 32.2727 38.5355 32.2727C38.0753 32.2727 37.7188 32.4119 37.4659 32.6903C37.2131 32.9659 37.0866 33.3153 37.0866 33.7386V38H36.0639V33.517C36.0639 33.1449 35.9432 32.8452 35.7017 32.6179C35.4602 32.3878 35.1491 32.2727 34.7685 32.2727C34.5071 32.2727 34.2628 32.3423 34.0355 32.4815C33.8111 32.6207 33.6293 32.8139 33.4901 33.0611C33.3537 33.3054 33.2855 33.5881 33.2855 33.9091V38H32.2798ZM46.7947 28.8636L43.9822 39.3125H43.0618L45.8743 28.8636H46.7947ZM53.6232 32.9205L52.7198 33.1761C52.663 33.0256 52.5792 32.8793 52.4684 32.7372C52.3604 32.5923 52.2127 32.473 52.0252 32.3793C51.8377 32.2855 51.5977 32.2386 51.305 32.2386C50.9045 32.2386 50.5707 32.331 50.3036 32.5156C50.0394 32.6974 49.9073 32.929 49.9073 33.2102C49.9073 33.4602 49.9982 33.6577 50.18 33.8026C50.3619 33.9474 50.646 34.0682 51.0323 34.1648L52.0039 34.4034C52.5891 34.5455 53.0252 34.7628 53.3121 35.0554C53.5991 35.3452 53.7425 35.7187 53.7425 36.1761C53.7425 36.5511 53.6346 36.8864 53.4187 37.1818C53.2056 37.4773 52.9073 37.7102 52.5238 37.8807C52.1403 38.0511 51.6942 38.1364 51.1857 38.1364C50.5181 38.1364 49.9656 37.9915 49.5281 37.7017C49.0906 37.4119 48.8136 36.9886 48.6971 36.4318L49.6516 36.1932C49.7425 36.5455 49.9144 36.8097 50.1673 36.9858C50.4229 37.1619 50.7567 37.25 51.1687 37.25C51.6374 37.25 52.0096 37.1506 52.2852 36.9517C52.5636 36.75 52.7028 36.5085 52.7028 36.2273C52.7028 36 52.6232 35.8097 52.4641 35.6562C52.305 35.5 52.0607 35.3835 51.7312 35.3068L50.6403 35.0511C50.0408 34.9091 49.6005 34.6889 49.3192 34.3906C49.0408 34.0895 48.9016 33.7131 48.9016 33.2614C48.9016 32.892 49.0053 32.5653 49.2127 32.2812C49.4229 31.9972 49.7085 31.7741 50.0692 31.6122C50.4329 31.4503 50.8448 31.3693 51.305 31.3693C51.9528 31.3693 52.4613 31.5114 52.8306 31.7955C53.2028 32.0795 53.467 32.4545 53.6232 32.9205Z" fill="#999999"/>
</svg>
