<svg width="23" height="23" viewBox="0 0 23 23" fill="none" xmlns="http://www.w3.org/2000/svg">
<path d="M0 6.10267H23V19.2847C23 20.3172 22.6612 21.1942 21.9837 21.9159C21.3061 22.6376 20.4839 22.999 19.5169 23H3.48306C2.51515 23 1.6929 22.6386 1.01631 21.9159C0.339729 21.1932 0.000958333 20.3162 0 19.2847V6.10267ZM1.4375 7.636V19.2847C1.4375 19.9032 1.63396 20.4214 2.02687 20.8395C2.41787 21.2576 2.90327 21.4667 3.48306 21.4667H19.5169C20.0967 21.4667 20.5826 21.2571 20.9746 20.838C21.3665 20.4209 21.5625 19.9032 21.5625 19.2847V7.63753L1.4375 7.636ZM0 3.98207V2.44873H7.90625V1.2696C7.90625 0.909778 8.01646 0.608222 8.23687 0.364933C8.45729 0.121644 8.73856 0 9.08069 0H13.9193C14.2624 0 14.5437 0.121644 14.7631 0.364933C14.9826 0.608222 15.0928 0.909267 15.0938 1.26807V2.44873H23V3.98207H0Z" fill="#9F9F9F"/>
</svg>
