<svg width="66" height="43" viewBox="0 0 66 43" fill="none" xmlns="http://www.w3.org/2000/svg">
<path opacity="0.5" d="M20.5 17.0006C20.4998 17.9306 20.0707 18.8455 19.253 19.6596C18.4353 20.4736 17.2556 21.1604 15.8243 21.6556C14.3929 22.1508 12.7566 22.4382 11.0684 22.4911C9.38015 22.544 7.69512 22.3605 6.17082 21.9579C4.64653 21.5552 3.33276 20.9466 2.35236 20.1888C1.37195 19.431 0.756919 18.5488 0.564773 17.6248C0.372627 16.7007 0.609638 15.765 1.25365 14.905C1.89766 14.045 2.92763 13.2889 4.24727 12.7074C4.72727 12.4964 5.04546 12.1864 5.04546 11.8474V5.50011C5.04546 4.70443 5.62013 3.94134 6.64305 3.37871C7.66598 2.81608 9.05336 2.5 10.5 2.5C11.9466 2.5 13.334 2.81608 14.3569 3.37871C15.3799 3.94134 15.9545 4.70443 15.9545 5.50011V11.8484C15.9545 12.1864 16.2727 12.4964 16.7527 12.7084C17.9231 13.2232 18.8676 13.8764 19.5163 14.6194C20.165 15.3625 20.5012 16.1763 20.5 17.0006Z" fill="#6FDAFE"/>
<path d="M11.8637 5.50003C11.8637 5.30111 11.72 5.11034 11.4643 4.96968C11.2085 4.82902 10.8617 4.75 10.5 4.75C10.1384 4.75 9.79154 4.82902 9.53581 4.96968C9.28008 5.11034 9.13641 5.30111 9.13641 5.50003V13.8803C9.13641 14.3174 8.59641 14.6884 7.94004 14.9344C7.1372 15.2354 6.53082 15.6699 6.20983 16.1743C5.88884 16.6787 5.87012 17.2264 6.15643 17.737C6.44275 18.2477 7.01902 18.6944 7.80073 19.0118C8.58244 19.3291 9.52846 19.5004 10.5 19.5004C11.4716 19.5004 12.4176 19.3291 13.1994 19.0118C13.9811 18.6944 14.5573 18.2477 14.8437 17.737C15.13 17.2264 15.1113 16.6787 14.7903 16.1743C14.4693 15.6699 13.8629 15.2354 13.06 14.9344C12.4055 14.6884 11.8637 14.3174 11.8637 13.8803V5.50003Z" fill="#6FDAFE"/>
<path d="M33.84 9.6V10.776H37.944V9.6H33.84ZM33.84 7.716V8.88H37.944V7.716H33.84ZM33 6.948H38.832V11.544H33V6.948ZM32.592 12.564H39.228V16.752H38.376V13.356H37.188V16.752H36.468V13.356H35.292V16.752H34.584V13.356H33.42V16.752H32.592V12.564ZM31.572 16.308H40.044V17.112H31.572V16.308ZM29.676 7.212L30.156 6.564C30.412 6.66 30.68 6.78 30.96 6.924C31.24 7.06 31.504 7.204 31.752 7.356C32.008 7.5 32.212 7.64 32.364 7.776L31.86 8.508C31.708 8.372 31.508 8.224 31.26 8.064C31.012 7.904 30.748 7.752 30.468 7.608C30.196 7.456 29.932 7.324 29.676 7.212ZM28.956 10.476L29.436 9.828C29.692 9.924 29.96 10.044 30.24 10.188C30.52 10.332 30.788 10.48 31.044 10.632C31.3 10.776 31.508 10.916 31.668 11.052L31.176 11.784C31.016 11.648 30.812 11.504 30.564 11.352C30.316 11.192 30.052 11.036 29.772 10.884C29.492 10.724 29.22 10.588 28.956 10.476ZM29.268 16.692C29.476 16.38 29.704 16.012 29.952 15.588C30.208 15.156 30.464 14.7 30.72 14.22C30.976 13.74 31.212 13.276 31.428 12.828L32.1 13.368C31.9 13.792 31.68 14.232 31.44 14.688C31.208 15.144 30.972 15.592 30.732 16.032C30.492 16.472 30.26 16.88 30.036 17.256L29.268 16.692ZM44.2 9.78H52.744V10.524H44.2V9.78ZM44.368 13.284H51.244V14.028H44.368V13.284ZM46.132 8.736H46.996V11.796H49.912V8.736H50.8V12.516H46.132V8.736ZM51.004 13.284H51.184L51.34 13.248L51.904 13.548C51.576 14.172 51.148 14.712 50.62 15.168C50.092 15.616 49.492 15.992 48.82 16.296C48.148 16.6 47.428 16.844 46.66 17.028C45.892 17.22 45.1 17.364 44.284 17.46C44.26 17.356 44.208 17.228 44.128 17.076C44.056 16.924 43.98 16.8 43.9 16.704C44.66 16.624 45.404 16.508 46.132 16.356C46.86 16.196 47.54 15.984 48.172 15.72C48.812 15.456 49.376 15.136 49.864 14.76C50.352 14.384 50.732 13.936 51.004 13.416V13.284ZM46.504 13.908C46.888 14.444 47.404 14.904 48.052 15.288C48.708 15.672 49.46 15.98 50.308 16.212C51.156 16.444 52.064 16.608 53.032 16.704C52.976 16.768 52.912 16.848 52.84 16.944C52.776 17.04 52.712 17.132 52.648 17.22C52.592 17.316 52.544 17.404 52.504 17.484C51.52 17.356 50.596 17.152 49.732 16.872C48.868 16.6 48.092 16.244 47.404 15.804C46.724 15.356 46.168 14.824 45.736 14.208L46.504 13.908ZM47.392 6.42H48.316V8.064H47.392V6.42ZM43.396 7.608H52.816V8.424H43.396V7.608ZM42.952 7.608H43.816V11.076C43.816 11.54 43.8 12.048 43.768 12.6C43.744 13.152 43.688 13.716 43.6 14.292C43.52 14.868 43.4 15.428 43.24 15.972C43.088 16.516 42.88 17.016 42.616 17.472C42.568 17.424 42.496 17.364 42.4 17.292C42.312 17.228 42.22 17.164 42.124 17.1C42.036 17.044 41.952 17.004 41.872 16.98C42.12 16.548 42.316 16.084 42.46 15.588C42.604 15.084 42.712 14.568 42.784 14.04C42.856 13.512 42.9 12.996 42.916 12.492C42.94 11.98 42.952 11.508 42.952 11.076V7.608Z" fill="#D4EDFD"/>
<path d="M21.3562 38.1193C20.7937 38.1193 20.2923 38.0227 19.8519 37.8295C19.4144 37.6364 19.0664 37.3679 18.8079 37.0241C18.5522 36.6776 18.413 36.2756 18.3903 35.8182H19.4641C19.4869 36.0994 19.5835 36.3423 19.7539 36.5469C19.9244 36.7486 20.1474 36.9048 20.4229 37.0156C20.6985 37.1264 21.0039 37.1818 21.3391 37.1818C21.7141 37.1818 22.0465 37.1165 22.3363 36.9858C22.6261 36.8551 22.8533 36.6733 23.0181 36.4403C23.1829 36.2074 23.2653 35.9375 23.2653 35.6307C23.2653 35.3097 23.1857 35.027 23.0266 34.7827C22.8675 34.5355 22.6346 34.3423 22.3278 34.2031C22.021 34.0639 21.646 33.9943 21.2028 33.9943H20.5039V33.0568H21.2028C21.5494 33.0568 21.8533 32.9943 22.1147 32.8693C22.3789 32.7443 22.5849 32.5682 22.7326 32.3409C22.8832 32.1136 22.9585 31.8466 22.9585 31.5398C22.9585 31.2443 22.8931 30.9872 22.7624 30.7685C22.6317 30.5497 22.4471 30.3793 22.2085 30.2571C21.9727 30.1349 21.6942 30.0739 21.3732 30.0739C21.0721 30.0739 20.788 30.1293 20.521 30.2401C20.2567 30.348 20.0408 30.5057 19.8732 30.7131C19.7056 30.9176 19.6147 31.1648 19.6005 31.4545H18.5778C18.5948 30.9972 18.7326 30.5966 18.9911 30.2528C19.2496 29.9062 19.5877 29.6364 20.0053 29.4432C20.4258 29.25 20.8874 29.1534 21.3903 29.1534C21.93 29.1534 22.3931 29.2628 22.7795 29.4815C23.1658 29.6974 23.4627 29.983 23.6701 30.3381C23.8775 30.6932 23.9812 31.0767 23.9812 31.4886C23.9812 31.9801 23.8519 32.3991 23.5934 32.7457C23.3377 33.0923 22.9897 33.3324 22.5494 33.4659V33.5341C23.1005 33.625 23.5309 33.8594 23.8406 34.2372C24.1502 34.6122 24.305 35.0767 24.305 35.6307C24.305 36.1051 24.1758 36.5312 23.9173 36.9091C23.6616 37.2841 23.3121 37.5795 22.869 37.7955C22.4258 38.0114 21.9215 38.1193 21.3562 38.1193ZM29.7752 38.1193C29.2752 38.1193 28.8249 38.0199 28.4244 37.821C28.0238 37.6222 27.7028 37.3494 27.4613 37.0028C27.2198 36.6562 27.0877 36.2614 27.065 35.8182H28.0877C28.1275 36.2131 28.3065 36.5398 28.6246 36.7983C28.9457 37.054 29.3292 37.1818 29.7752 37.1818C30.1332 37.1818 30.4513 37.098 30.7298 36.9304C31.011 36.7628 31.2312 36.5327 31.3903 36.2401C31.5522 35.9446 31.6332 35.6108 31.6332 35.2386C31.6332 34.858 31.5494 34.5185 31.3817 34.2202C31.217 33.919 30.9897 33.6818 30.6999 33.5085C30.4102 33.3352 30.0792 33.2472 29.707 33.2443C29.44 33.2415 29.1658 33.2827 28.8846 33.3679C28.6033 33.4503 28.3718 33.5568 28.19 33.6875L27.2013 33.5682L27.7298 29.2727H32.2638V30.2102H28.6161L28.3093 32.7841H28.3604C28.5394 32.642 28.7638 32.5241 29.0337 32.4304C29.3036 32.3366 29.5849 32.2898 29.8775 32.2898C30.4116 32.2898 30.8874 32.4176 31.305 32.6733C31.7255 32.9261 32.055 33.2727 32.2937 33.7131C32.5352 34.1534 32.6559 34.6562 32.6559 35.2216C32.6559 35.7784 32.5309 36.2756 32.2809 36.7131C32.0337 37.1477 31.6928 37.4915 31.2582 37.7443C30.8235 37.9943 30.3292 38.1193 29.7752 38.1193ZM37.1726 33.125C36.8118 33.125 36.4822 33.0369 36.1839 32.8608C35.8885 32.6847 35.6527 32.4489 35.4766 32.1534C35.3004 31.8551 35.2124 31.5256 35.2124 31.1648C35.2124 30.804 35.3004 30.4759 35.4766 30.1804C35.6527 29.8821 35.8885 29.6449 36.1839 29.4688C36.4822 29.2926 36.8118 29.2045 37.1726 29.2045C37.5334 29.2045 37.8615 29.2926 38.157 29.4688C38.4553 29.6449 38.6925 29.8821 38.8686 30.1804C39.0447 30.4759 39.1328 30.804 39.1328 31.1648C39.1328 31.5256 39.0447 31.8551 38.8686 32.1534C38.6925 32.4489 38.4553 32.6847 38.157 32.8608C37.8615 33.0369 37.5334 33.125 37.1726 33.125ZM37.1726 32.2727C37.3771 32.2727 37.5632 32.223 37.7308 32.1236C37.8984 32.0241 38.032 31.8906 38.1314 31.723C38.2308 31.5554 38.2805 31.3693 38.2805 31.1648C38.2805 30.9602 38.2308 30.7741 38.1314 30.6065C38.032 30.4389 37.8984 30.3054 37.7308 30.206C37.5632 30.1065 37.3771 30.0568 37.1726 30.0568C36.968 30.0568 36.782 30.1065 36.6143 30.206C36.4467 30.3054 36.3132 30.4389 36.2138 30.6065C36.1143 30.7741 36.0646 30.9602 36.0646 31.1648C36.0646 31.3693 36.1143 31.5554 36.2138 31.723C36.3132 31.8906 36.4467 32.0241 36.6143 32.1236C36.782 32.223 36.968 32.2727 37.1726 32.2727ZM47.843 32H46.7862C46.7237 31.696 46.6143 31.429 46.4581 31.1989C46.3047 30.9688 46.1172 30.7756 45.8956 30.6193C45.6768 30.4602 45.4339 30.3409 45.1669 30.2614C44.8999 30.1818 44.6214 30.142 44.3317 30.142C43.8033 30.142 43.3246 30.2756 42.8956 30.5426C42.4695 30.8097 42.13 31.2031 41.8771 31.723C41.6271 32.2429 41.5021 32.8807 41.5021 33.6364C41.5021 34.392 41.6271 35.0298 41.8771 35.5497C42.13 36.0696 42.4695 36.4631 42.8956 36.7301C43.3246 36.9972 43.8033 37.1307 44.3317 37.1307C44.6214 37.1307 44.8999 37.0909 45.1669 37.0114C45.4339 36.9318 45.6768 36.8139 45.8956 36.6577C46.1172 36.4986 46.3047 36.304 46.4581 36.0739C46.6143 35.8409 46.7237 35.5739 46.7862 35.2727H47.843C47.7635 35.7187 47.6186 36.1179 47.4084 36.4702C47.1982 36.8224 46.9368 37.1222 46.6243 37.3693C46.3118 37.6136 45.9609 37.7997 45.5717 37.9276C45.1854 38.0554 44.772 38.1193 44.3317 38.1193C43.5874 38.1193 42.9254 37.9375 42.3459 37.5739C41.7663 37.2102 41.3104 36.6932 40.978 36.0227C40.6456 35.3523 40.4794 34.5568 40.4794 33.6364C40.4794 32.7159 40.6456 31.9205 40.978 31.25C41.3104 30.5795 41.7663 30.0625 42.3459 29.6989C42.9254 29.3352 43.5874 29.1534 44.3317 29.1534C44.772 29.1534 45.1854 29.2173 45.5717 29.3452C45.9609 29.473 46.3118 29.6605 46.6243 29.9077C46.9368 30.152 47.1982 30.4503 47.4084 30.8026C47.6186 31.152 47.7635 31.5511 47.843 32Z" fill="#999999"/>
</svg>
