<svg width="19" height="20" viewBox="0 0 19 20" fill="none" xmlns="http://www.w3.org/2000/svg">
<path d="M1.192 18V12C1.192 9.87827 2.03485 7.84344 3.53515 6.34315C5.03544 4.84285 7.07027 4 9.192 4C11.3137 4 13.3486 4.84285 14.8489 6.34315C16.3491 7.84344 17.192 9.87827 17.192 12V18H18.192V20H0.192V18H1.192ZM3.192 18H15.192V12C15.192 10.4087 14.5599 8.88258 13.4346 7.75736C12.3094 6.63214 10.7833 6 9.192 6C7.6007 6 6.07458 6.63214 4.94936 7.75736C3.82414 8.88258 3.192 10.4087 3.192 12V18ZM8.192 0H10.192V3H8.192V0ZM16.97 2.808L18.384 4.222L16.264 6.343L14.849 4.929L16.97 2.808ZM0 4.222L1.414 2.808L3.535 4.928L2.122 6.344L0 4.222ZM4.192 12C4.192 10.6739 4.71878 9.40215 5.65647 8.46447C6.59415 7.52678 7.86592 7 9.192 7V9C8.39635 9 7.63329 9.31607 7.07068 9.87868C6.50807 10.4413 6.192 11.2044 6.192 12H4.192Z" fill="white"/>
</svg>
