<svg width="16" height="15" viewBox="0 0 16 15" fill="none" xmlns="http://www.w3.org/2000/svg">
<path d="M0.578125 1.48438L1.28125 0.78125L14.0156 13.5078L13.3047 14.2188L9.73438 10.6484C9.45312 10.8307 9.17969 10.9688 8.91406 11.0625C8.64844 11.1562 8.34375 11.2031 8 11.2031C7.58333 11.2031 7.19271 11.125 6.82812 10.9688C6.46354 10.8125 6.14583 10.599 5.875 10.3281C5.60417 10.0573 5.39062 9.73958 5.23438 9.375C5.07812 9.01042 5 8.61979 5 8.20312C5 7.86458 5.04688 7.5625 5.14062 7.29688C5.23438 7.03125 5.3724 6.75521 5.55469 6.46875L3.05469 3.96875C2.40365 4.51562 1.89844 5.14323 1.53906 5.85156C1.17969 6.5599 1 7.34375 1 8.20312H0C0 7.72917 0.0546875 7.26302 0.164062 6.80469C0.273438 6.34635 0.429688 5.90365 0.632812 5.47656C0.835938 5.04948 1.08073 4.65104 1.36719 4.28125C1.65365 3.91146 1.98177 3.57292 2.35156 3.26562L0.578125 1.48438ZM6 8.20312C6 8.47917 6.05208 8.73698 6.15625 8.97656C6.26042 9.21615 6.40365 9.42969 6.58594 9.61719C6.76823 9.80469 6.97917 9.94792 7.21875 10.0469C7.45833 10.1458 7.71875 10.1979 8 10.2031C8.1875 10.2031 8.36198 10.1797 8.52344 10.1328C8.6849 10.0859 8.84635 10.0156 9.00781 9.92188L6.28125 7.19531C6.19271 7.35677 6.125 7.51823 6.07812 7.67969C6.03125 7.84115 6.00521 8.01562 6 8.20312ZM8.5625 6.28906L7.52344 5.25L7.75781 5.21875C7.83594 5.20833 7.91667 5.20312 8 5.20312C8.41146 5.20312 8.79948 5.28125 9.16406 5.4375C9.52865 5.59375 9.84635 5.80729 10.1172 6.07812C10.388 6.34896 10.6042 6.66927 10.7656 7.03906C10.9271 7.40885 11.0052 7.79688 11 8.20312C11 8.28125 10.9948 8.35938 10.9844 8.4375C10.974 8.51562 10.9635 8.59635 10.9531 8.67969L9.91406 7.64062C9.69531 6.95833 9.24479 6.50781 8.5625 6.28906ZM16 8.20312H15C15 7.58854 14.9062 7.01302 14.7188 6.47656C14.5312 5.9401 14.2734 5.45052 13.9453 5.00781C13.6172 4.5651 13.2266 4.16927 12.7734 3.82031C12.3203 3.47135 11.8385 3.17708 11.3281 2.9375C10.8177 2.69792 10.276 2.51562 9.70312 2.39062C9.13021 2.26562 8.5625 2.20312 8 2.20312C7.48958 2.20312 6.98958 2.2526 6.5 2.35156C6.01042 2.45052 5.52865 2.59635 5.05469 2.78906L4.28906 2.02344C4.89323 1.7474 5.49479 1.54167 6.09375 1.40625C6.69271 1.27083 7.32812 1.20312 8 1.20312C8.75 1.20312 9.49219 1.29427 10.2266 1.47656C10.9609 1.65885 11.651 1.93229 12.2969 2.29688C12.9427 2.66146 13.5312 3.10417 14.0625 3.625C14.5938 4.14583 15.026 4.75521 15.3594 5.45312C15.5677 5.88021 15.7266 6.32552 15.8359 6.78906C15.9453 7.2526 16 7.72396 16 8.20312Z" fill="white"/>
</svg>
