<svg width="23" height="14" viewBox="0 0 23 14" fill="none" xmlns="http://www.w3.org/2000/svg">
<path d="M22.0572 4.28208C22.1199 4.02514 22.0842 3.75407 21.9572 3.52208C21.6332 2.95972 21.2012 2.4669 20.6862 2.07188C20.1712 1.67686 19.5832 1.38743 18.9561 1.22019C18.3289 1.05295 17.6749 1.0112 17.0316 1.09732C16.3883 1.18345 15.7683 1.39577 15.2072 1.72208L13.0572 2.96208L8.05724 0.612081C7.91509 0.538438 7.75733 0.5 7.59724 0.5C7.43714 0.5 7.27939 0.538438 7.13724 0.612081L4.13724 2.34208C3.98898 2.4276 3.86515 2.54975 3.7776 2.69682C3.69006 2.8439 3.64173 3.01098 3.63724 3.18208C3.6324 3.35445 3.67221 3.52514 3.75281 3.67758C3.83341 3.83002 3.95206 3.95903 4.09724 4.05208L7.39724 6.13208L5.65724 7.13208L0.877239 7.71208C0.685085 7.73585 0.503963 7.81489 0.355862 7.93961C0.207761 8.06432 0.0990511 8.22935 0.0429296 8.41466C-0.0131919 8.59997 -0.0143111 8.79758 0.0397077 8.98351C0.0937266 9.16944 0.20056 9.33569 0.347239 9.46208L3.88724 12.5221C4.35329 12.9669 4.95014 13.2498 5.58949 13.3291C6.22883 13.4083 6.8767 13.2796 7.43724 12.9621L21.5572 4.89208C21.6776 4.82961 21.784 4.74332 21.8699 4.63846C21.9559 4.53359 22.0196 4.41234 22.0572 4.28208ZM6.52724 11.2821C6.33515 11.3878 6.11364 11.4274 5.89682 11.3949C5.67999 11.3624 5.47987 11.2595 5.32724 11.1021L3.42724 9.47208L6.15724 9.14208C6.29139 9.12489 6.42067 9.08067 6.53724 9.01208L9.89724 7.08208C10.0469 6.99569 10.1717 6.87197 10.2593 6.723C10.3469 6.57403 10.3945 6.40489 10.3972 6.23208C10.3993 6.06045 10.3571 5.89118 10.2748 5.74056C10.1925 5.58994 10.0728 5.46304 9.92724 5.37208L6.62724 3.28208L7.72724 2.65208L12.7272 4.97208C12.8694 5.04572 13.0271 5.08416 13.1872 5.08416C13.3473 5.08416 13.5051 5.04572 13.6472 4.97208L16.2072 3.49208C16.7318 3.19808 17.3327 3.06854 17.9318 3.12025C18.531 3.17196 19.1008 3.40254 19.5672 3.78208L6.52724 11.2821Z" fill="white"/>
</svg>
