<svg width="14" height="15" viewBox="0 0 14 15" fill="none" xmlns="http://www.w3.org/2000/svg">
<path d="M3.96635 0.84375V4.28125H0.264423C0.194294 4.28125 0.127037 4.24503 0.0774478 4.18057C0.0278588 4.1161 0 4.02867 0 3.9375V1.875C0 1.51033 0.111435 1.16059 0.309791 0.902728C0.508147 0.644866 0.777175 0.5 1.05769 0.5H3.70192C3.77205 0.5 3.83931 0.536216 3.8889 0.600682C3.93849 0.665148 3.96635 0.752582 3.96635 0.84375ZM5.02404 13.9062C5.02404 13.9974 5.0519 14.0849 5.10149 14.1493C5.15107 14.2138 5.21833 14.25 5.28846 14.25H8.46154C8.53167 14.25 8.59892 14.2138 8.64851 14.1493C8.6981 14.0849 8.72596 13.9974 8.72596 13.9062V10.4688H5.02404V13.9062ZM0 10.8125V12.875C0 13.2397 0.111435 13.5894 0.309791 13.8473C0.508147 14.1051 0.777175 14.25 1.05769 14.25H3.70192C3.77205 14.25 3.83931 14.2138 3.8889 14.1493C3.93849 14.0849 3.96635 13.9974 3.96635 13.9062V10.4688H0.264423C0.194294 10.4688 0.127037 10.505 0.0774478 10.5694C0.0278588 10.6339 0 10.7213 0 10.8125ZM0 6V8.75C0 8.84117 0.0278588 8.9286 0.0774478 8.99307C0.127037 9.05753 0.194294 9.09375 0.264423 9.09375H3.96635V5.65625H0.264423C0.194294 5.65625 0.127037 5.69247 0.0774478 5.75693C0.0278588 5.8214 0 5.90883 0 6ZM8.46154 0.5H5.28846C5.21833 0.5 5.15107 0.536216 5.10149 0.600682C5.0519 0.665148 5.02404 0.752582 5.02404 0.84375V4.28125H8.72596V0.84375C8.72596 0.752582 8.6981 0.665148 8.64851 0.600682C8.59892 0.536216 8.53167 0.5 8.46154 0.5ZM13.4856 5.65625H9.78365V9.09375H13.4856C13.5557 9.09375 13.623 9.05753 13.6726 8.99307C13.7221 8.9286 13.75 8.84117 13.75 8.75V6C13.75 5.90883 13.7221 5.8214 13.6726 5.75693C13.623 5.69247 13.5557 5.65625 13.4856 5.65625ZM5.02404 9.09375H8.72596V5.65625H5.02404V9.09375ZM12.6923 0.5H10.0481C9.97795 0.5 9.91069 0.536216 9.8611 0.600682C9.81151 0.665148 9.78365 0.752582 9.78365 0.84375V4.28125H13.4856C13.5557 4.28125 13.623 4.24503 13.6726 4.18057C13.7221 4.1161 13.75 4.02867 13.75 3.9375V1.875C13.75 1.51033 13.6386 1.16059 13.4402 0.902728C13.2419 0.644866 12.9728 0.5 12.6923 0.5ZM13.4856 10.4688H9.78365V13.9062C9.78365 13.9974 9.81151 14.0849 9.8611 14.1493C9.91069 14.2138 9.97795 14.25 10.0481 14.25H12.6923C12.9728 14.25 13.2419 14.1051 13.4402 13.8473C13.6386 13.5894 13.75 13.2397 13.75 12.875V10.8125C13.75 10.7213 13.7221 10.6339 13.6726 10.5694C13.623 10.505 13.5557 10.4688 13.4856 10.4688Z" fill="#999999"/>
</svg>
