<?xml version="1.0" encoding="UTF-8" standalone="no"?>
<svg width="100" height="100" viewBox="0 0 20 20" xmlns="http://www.w3.org/2000/svg">
  <path d="M8.934 0a1 1 0 0 1 .857.486l.709 1.18h2a1.5 1.5 0 0 1 1.5 1.5V5h-3.684a3.167 3.167 0 1 0-3.315 3.496L7 10H1.5A1.5 1.5 0 0 1 0 8.5V3.167a1.5 1.5 0 0 1 1.5-1.5h2.352L4.543.493A1 1 0 0 1 5.405 0h3.529zM7.167 3c1.175 0 2.148.87 2.31 2H7v2.66A2.333 2.333 0 0 1 7.168 3zM2.333.667a.5.5 0 0 1 .5.5v.166h-1.5v-.166a.5.5 0 0 1 .5-.5h.5z" fill="black"/>
</svg>
