<svg xmlns="http://www.w3.org/2000/svg" viewBox="0 0 16 16" width="24" height="24">
  <g style="mix-blend-mode:passthrough">
    <path d="M19.2 1c1.897 0 3.665.76 4.956 2.055L26.2 1.01v5.048h-5.048l1.942-1.942A5.487 5.487 0 0 0 19.201 2.5c-1.617 0-3.07.697-4.077 1.808L13.6 3.8A6.99 6.99 0 0 1 19.2 1zm-4.155 13.284 3.717-7.434a.2.2 0 0 1 .358 0l3.717 7.409a.2.2 0 0 1-.277.264l-3.62-2.043-3.617 2.067a.2.2 0 0 1-.278-.263z"
      fill-rule="evenodd"
      transform="matrix(-1 0 0 1 27.2 0)"
      style="mix-blend-mode:passthrough" />
    <path d="M12.955 3.055A6.986 6.986 0 0 0 8 1a6.99 6.99 0 0 0-5.6 2.8l1.523.508A5.486 5.486 0 0 1 8 2.5c1.491 0 2.88.597 3.895 1.616L9.952 6.058H15V1.01l-2.045 2.045z"
      fill-rule="evenodd"
      style="mix-blend-mode:passthrough" />
  </g>
</svg>