<svg width="22" height="17" viewBox="0 0 22 17" fill="none" xmlns="http://www.w3.org/2000/svg">
<path d="M0.499975 6.22474L8.23682 11.9495L8.23682 0.5L0.499975 6.22474Z" fill="white"/>
<path d="M21.5 10.1391L21.5 16.4999H17.0789L17.0789 10.1391C17.0789 9.06266 16.0842 8.18193 14.8684 8.18193L5.47368 8.18193V4.26758L14.8684 4.26758C18.5158 4.26758 21.5 6.90976 21.5 10.1391Z" fill="white"/>
<path d="M0.499975 6.22474L8.23682 11.9495L8.23682 0.5L0.499975 6.22474Z" fill="white"/>
<path d="M21.5 10.1391L21.5 16.4999H17.0789L17.0789 10.1391C17.0789 9.06266 16.0842 8.18193 14.8684 8.18193L5.47368 8.18193V4.26758L14.8684 4.26758C18.5158 4.26758 21.5 6.90976 21.5 10.1391Z" fill="white"/>
</svg>
