<svg width="65" height="43" viewBox="0 0 65 43" fill="none" xmlns="http://www.w3.org/2000/svg">
<path d="M15.4545 11.3889V6.72222L14 8.5L12.7273 6.94444L16.3636 2.5L20 6.94444L18.7273 8.52778L17.2727 6.75V11.3889H15.4545ZM0 22.5L5.45455 13.6111L9.54545 20.2778H16.3636L11.8182 12.8889L9.54545 16.5556L8.40909 14.7222L11.8182 9.16667L20 22.5H0Z" fill="#6FDAFE"/>
<path d="M28.78 7.56H39.208V8.352H28.78V7.56ZM33.472 6.408H34.396V7.944H33.472V6.408ZM29.32 12.252H38.236V13.02H30.196V17.46H29.32V12.252ZM37.864 12.252H38.764V16.38C38.764 16.628 38.728 16.824 38.656 16.968C38.592 17.112 38.464 17.22 38.272 17.292C38.08 17.364 37.816 17.404 37.48 17.412C37.152 17.428 36.736 17.436 36.232 17.436C36.216 17.308 36.18 17.164 36.124 17.004C36.068 16.844 36.008 16.704 35.944 16.584C36.336 16.592 36.684 16.596 36.988 16.596C37.3 16.604 37.504 16.604 37.6 16.596C37.704 16.588 37.772 16.568 37.804 16.536C37.844 16.504 37.864 16.448 37.864 16.368V12.252ZM31.72 13.8H32.512V16.956H31.72V13.8ZM32.14 13.8H36.292V16.344H32.14V15.684H35.488V14.46H32.14V13.8ZM31.636 9.684V10.836H36.34V9.684H31.636ZM30.772 9.024H37.24V11.508H30.772V9.024ZM43.7 9.78H52.244V10.524H43.7V9.78ZM43.868 13.284H50.744V14.028H43.868V13.284ZM45.632 8.736H46.496V11.796H49.412V8.736H50.3V12.516H45.632V8.736ZM50.504 13.284H50.684L50.84 13.248L51.404 13.548C51.076 14.172 50.648 14.712 50.12 15.168C49.592 15.616 48.992 15.992 48.32 16.296C47.648 16.6 46.928 16.844 46.16 17.028C45.392 17.22 44.6 17.364 43.784 17.46C43.76 17.356 43.708 17.228 43.628 17.076C43.556 16.924 43.48 16.8 43.4 16.704C44.16 16.624 44.904 16.508 45.632 16.356C46.36 16.196 47.04 15.984 47.672 15.72C48.312 15.456 48.876 15.136 49.364 14.76C49.852 14.384 50.232 13.936 50.504 13.416V13.284ZM46.004 13.908C46.388 14.444 46.904 14.904 47.552 15.288C48.208 15.672 48.96 15.98 49.808 16.212C50.656 16.444 51.564 16.608 52.532 16.704C52.476 16.768 52.412 16.848 52.34 16.944C52.276 17.04 52.212 17.132 52.148 17.22C52.092 17.316 52.044 17.404 52.004 17.484C51.02 17.356 50.096 17.152 49.232 16.872C48.368 16.6 47.592 16.244 46.904 15.804C46.224 15.356 45.668 14.824 45.236 14.208L46.004 13.908ZM46.892 6.42H47.816V8.064H46.892V6.42ZM42.896 7.608H52.316V8.424H42.896V7.608ZM42.452 7.608H43.316V11.076C43.316 11.54 43.3 12.048 43.268 12.6C43.244 13.152 43.188 13.716 43.1 14.292C43.02 14.868 42.9 15.428 42.74 15.972C42.588 16.516 42.38 17.016 42.116 17.472C42.068 17.424 41.996 17.364 41.9 17.292C41.812 17.228 41.72 17.164 41.624 17.1C41.536 17.044 41.452 17.004 41.372 16.98C41.62 16.548 41.816 16.084 41.96 15.588C42.104 15.084 42.212 14.568 42.284 14.04C42.356 13.512 42.4 12.996 42.416 12.492C42.44 11.98 42.452 11.508 42.452 11.076V7.608Z" fill="#D4EDFD"/>
<path d="M19.3141 36.2102V35.3409L23.1493 29.2727H23.78V30.6193H23.3539L20.4561 35.2045V35.2727H25.6209V36.2102H19.3141ZM23.4221 38V35.946V35.5412V29.2727H24.4277V38H23.4221ZM31.1667 38.1193C30.6042 38.1193 30.1028 38.0227 29.6625 37.8295C29.225 37.6364 28.877 37.3679 28.6184 37.0241C28.3627 36.6776 28.2235 36.2756 28.2008 35.8182H29.2747C29.2974 36.0994 29.394 36.3423 29.5645 36.5469C29.7349 36.7486 29.9579 36.9048 30.2335 37.0156C30.5091 37.1264 30.8145 37.1818 31.1497 37.1818C31.5247 37.1818 31.8571 37.1165 32.1468 36.9858C32.4366 36.8551 32.6639 36.6733 32.8287 36.4403C32.9934 36.2074 33.0758 35.9375 33.0758 35.6307C33.0758 35.3097 32.9963 35.027 32.8372 34.7827C32.6781 34.5355 32.4451 34.3423 32.1383 34.2031C31.8315 34.0639 31.4565 33.9943 31.0133 33.9943H30.3145V33.0568H31.0133C31.3599 33.0568 31.6639 32.9943 31.9252 32.8693C32.1895 32.7443 32.3954 32.5682 32.5431 32.3409C32.6937 32.1136 32.769 31.8466 32.769 31.5398C32.769 31.2443 32.7037 30.9872 32.573 30.7685C32.4423 30.5497 32.2576 30.3793 32.019 30.2571C31.7832 30.1349 31.5048 30.0739 31.1838 30.0739C30.8826 30.0739 30.5985 30.1293 30.3315 30.2401C30.0673 30.348 29.8514 30.5057 29.6838 30.7131C29.5162 30.9176 29.4252 31.1648 29.411 31.4545H28.3883C28.4054 30.9972 28.5431 30.5966 28.8017 30.2528C29.0602 29.9062 29.3983 29.6364 29.8159 29.4432C30.2363 29.25 30.698 29.1534 31.2008 29.1534C31.7406 29.1534 32.2037 29.2628 32.59 29.4815C32.9764 29.6974 33.2733 29.983 33.4806 30.3381C33.688 30.6932 33.7917 31.0767 33.7917 31.4886C33.7917 31.9801 33.6625 32.3991 33.4039 32.7457C33.1483 33.0923 32.8002 33.3324 32.3599 33.4659V33.5341C32.911 33.625 33.3414 33.8594 33.6511 34.2372C33.9608 34.6122 34.1156 35.0767 34.1156 35.6307C34.1156 36.1051 33.9863 36.5312 33.7278 36.9091C33.4721 37.2841 33.1227 37.5795 32.6795 37.7955C32.2363 38.0114 31.7321 38.1193 31.1667 38.1193ZM36.8755 38V31.4545H37.8471V32.4773H37.9324C38.0687 32.1278 38.2889 31.8565 38.5929 31.6634C38.8968 31.4673 39.2619 31.3693 39.688 31.3693C40.1199 31.3693 40.4792 31.4673 40.7662 31.6634C41.0559 31.8565 41.2818 32.1278 41.4437 32.4773H41.5119C41.6795 32.1392 41.9309 31.8707 42.2662 31.6719C42.6014 31.4702 43.0034 31.3693 43.4721 31.3693C44.0574 31.3693 44.536 31.5526 44.9082 31.919C45.2804 32.2827 45.4664 32.8494 45.4664 33.6193V38H44.4608V33.6193C44.4608 33.1364 44.3287 32.7912 44.0645 32.5838C43.8002 32.3764 43.4892 32.2727 43.1312 32.2727C42.671 32.2727 42.3145 32.4119 42.0616 32.6903C41.8088 32.9659 41.6824 33.3153 41.6824 33.7386V38H40.6596V33.517C40.6596 33.1449 40.5389 32.8452 40.2974 32.6179C40.0559 32.3878 39.7449 32.2727 39.3642 32.2727C39.1028 32.2727 38.8585 32.3423 38.6312 32.4815C38.4068 32.6207 38.225 32.8139 38.0858 33.0611C37.9494 33.3054 37.8812 33.5881 37.8812 33.9091V38H36.8755Z" fill="#999999"/>
</svg>
