<svg width="66" height="43" viewBox="0 0 66 43" fill="none" xmlns="http://www.w3.org/2000/svg">
<path d="M2.76339 3.68304L0.5 8.21429H9.78571V2.5H4.68304C3.87054 2.5 3.12946 2.95982 2.76339 3.68304ZM11.2143 8.21429H20.5L18.2366 3.68304C17.8705 2.95982 17.1295 2.5 16.317 2.5H11.2143V8.21429ZM20.5 9.64286H0.5V19.6429C0.5 21.2188 1.78125 22.5 3.35714 22.5H17.6429C19.2188 22.5 20.5 21.2188 20.5 19.6429V9.64286Z" fill="#6FDAFE"/>
<path d="M30.156 7.908H32.952V8.64H30.156V7.908ZM32.724 7.908H33.54V16.356C33.54 16.572 33.512 16.744 33.456 16.872C33.4 17 33.3 17.1 33.156 17.172C33.012 17.244 32.824 17.288 32.592 17.304C32.36 17.32 32.06 17.328 31.692 17.328C31.676 17.224 31.64 17.092 31.584 16.932C31.528 16.78 31.472 16.648 31.416 16.536C31.672 16.544 31.904 16.548 32.112 16.548C32.32 16.548 32.46 16.548 32.532 16.548C32.604 16.54 32.652 16.524 32.676 16.5C32.708 16.476 32.724 16.424 32.724 16.344V7.908ZM29.82 7.908H30.624V12.372C30.624 12.772 30.612 13.2 30.588 13.656C30.564 14.104 30.516 14.56 30.444 15.024C30.372 15.48 30.268 15.924 30.132 16.356C30.004 16.78 29.828 17.164 29.604 17.508C29.564 17.46 29.5 17.408 29.412 17.352C29.324 17.296 29.236 17.236 29.148 17.172C29.06 17.116 28.98 17.076 28.908 17.052C29.196 16.612 29.4 16.124 29.52 15.588C29.648 15.052 29.728 14.508 29.76 13.956C29.8 13.396 29.82 12.868 29.82 12.372V7.908ZM30.972 9.396L31.56 9.168C31.704 9.424 31.844 9.712 31.98 10.032C32.124 10.344 32.224 10.612 32.28 10.836L31.668 11.1C31.604 10.868 31.504 10.592 31.368 10.272C31.24 9.952 31.108 9.66 30.972 9.396ZM31.224 6.384L32.136 6.564C32.032 6.876 31.92 7.192 31.8 7.512C31.68 7.832 31.572 8.1 31.476 8.316L30.768 8.136C30.856 7.896 30.944 7.608 31.032 7.272C31.12 6.936 31.184 6.64 31.224 6.384ZM28.968 11.652H33.3V12.432H28.968V11.652ZM30.948 13.092L31.524 12.84C31.708 13.12 31.884 13.432 32.052 13.776C32.228 14.12 32.356 14.416 32.436 14.664L31.812 14.94C31.74 14.684 31.62 14.384 31.452 14.04C31.292 13.688 31.124 13.372 30.948 13.092ZM36.672 6.324L37.488 6.564C37.232 7.196 36.928 7.808 36.576 8.4C36.224 8.984 35.84 9.532 35.424 10.044C35.008 10.548 34.572 10.992 34.116 11.376C34.084 11.304 34.036 11.22 33.972 11.124C33.908 11.028 33.84 10.932 33.768 10.836C33.704 10.732 33.644 10.648 33.588 10.584C34.228 10.088 34.82 9.468 35.364 8.724C35.908 7.972 36.344 7.172 36.672 6.324ZM37.26 6.768C37.468 7.256 37.728 7.748 38.04 8.244C38.352 8.74 38.692 9.196 39.06 9.612C39.436 10.028 39.808 10.368 40.176 10.632C40.072 10.704 39.956 10.808 39.828 10.944C39.708 11.08 39.612 11.204 39.54 11.316C39.172 11.012 38.8 10.628 38.424 10.164C38.056 9.692 37.712 9.184 37.392 8.64C37.08 8.096 36.812 7.552 36.588 7.008L37.26 6.768ZM35.364 10.632H38.316V11.412H35.364V10.632ZM34.884 10.632H35.724V15.888C35.724 16.112 35.764 16.26 35.844 16.332C35.932 16.396 36.12 16.428 36.408 16.428C36.48 16.428 36.608 16.428 36.792 16.428C36.976 16.428 37.176 16.428 37.392 16.428C37.616 16.428 37.824 16.428 38.016 16.428C38.216 16.428 38.356 16.428 38.436 16.428C38.62 16.428 38.756 16.384 38.844 16.296C38.932 16.208 38.996 16.04 39.036 15.792C39.076 15.536 39.104 15.164 39.12 14.676C39.216 14.748 39.336 14.816 39.48 14.88C39.632 14.944 39.768 14.992 39.888 15.024C39.848 15.584 39.784 16.024 39.696 16.344C39.616 16.656 39.48 16.876 39.288 17.004C39.104 17.132 38.84 17.196 38.496 17.196C38.44 17.196 38.34 17.196 38.196 17.196C38.052 17.196 37.884 17.196 37.692 17.196C37.508 17.196 37.32 17.196 37.128 17.196C36.944 17.196 36.776 17.196 36.624 17.196C36.48 17.196 36.384 17.196 36.336 17.196C35.968 17.196 35.68 17.16 35.472 17.088C35.264 17.016 35.112 16.884 35.016 16.692C34.928 16.5 34.884 16.232 34.884 15.888V10.632ZM38.076 10.632H38.88C38.88 10.632 38.88 10.672 38.88 10.752C38.88 10.832 38.876 10.9 38.868 10.956C38.852 11.66 38.828 12.228 38.796 12.66C38.764 13.092 38.724 13.424 38.676 13.656C38.628 13.888 38.564 14.052 38.484 14.148C38.388 14.26 38.288 14.336 38.184 14.376C38.08 14.416 37.944 14.44 37.776 14.448C37.632 14.464 37.428 14.472 37.164 14.472C36.9 14.472 36.624 14.46 36.336 14.436C36.328 14.332 36.304 14.212 36.264 14.076C36.232 13.932 36.18 13.808 36.108 13.704C36.396 13.728 36.66 13.744 36.9 13.752C37.14 13.76 37.308 13.764 37.404 13.764C37.588 13.764 37.712 13.728 37.776 13.656C37.84 13.592 37.888 13.46 37.92 13.26C37.96 13.06 37.992 12.76 38.016 12.36C38.04 11.952 38.06 11.416 38.076 10.752V10.632ZM42.04 16.32H52.972V17.124H42.04V16.32ZM42.808 7.98H52.168V8.712H42.808V7.98ZM42.328 11.58H52.696V12.312H42.328V11.58ZM43.408 9.756H51.652V10.464H43.408V9.756ZM43.336 13.224H51.724V16.704H50.848V14.004H49.168V16.704H48.328V14.004H46.672V16.704H45.832V14.004H44.176V16.704H43.336V13.224ZM44.524 6.684L45.304 6.42C45.488 6.628 45.656 6.86 45.808 7.116C45.968 7.372 46.088 7.6 46.168 7.8L45.328 8.136C45.264 7.936 45.152 7.7 44.992 7.428C44.84 7.156 44.684 6.908 44.524 6.684ZM49.708 6.396L50.596 6.648C50.42 6.976 50.232 7.296 50.032 7.608C49.84 7.92 49.66 8.196 49.492 8.436L48.736 8.184C48.904 7.936 49.08 7.644 49.264 7.308C49.448 6.972 49.596 6.668 49.708 6.396ZM47.032 8.316H47.956V12.012H47.032V8.316Z" fill="#D4EDFD"/>
<path d="M15.752 30.74H16.664V36.788C16.664 37.044 16.704 37.24 16.784 37.376C16.872 37.512 17.028 37.608 17.252 37.664C17.484 37.712 17.82 37.736 18.26 37.736C18.38 37.736 18.588 37.736 18.884 37.736C19.18 37.736 19.516 37.736 19.892 37.736C20.276 37.736 20.66 37.736 21.044 37.736C21.436 37.736 21.788 37.736 22.1 37.736C22.42 37.736 22.664 37.736 22.832 37.736C23.16 37.736 23.424 37.704 23.624 37.64C23.832 37.576 23.992 37.46 24.104 37.292C24.216 37.116 24.3 36.876 24.356 36.572C24.42 36.26 24.472 35.864 24.512 35.384C24.592 35.44 24.684 35.492 24.788 35.54C24.9 35.588 25.012 35.632 25.124 35.672C25.236 35.712 25.336 35.74 25.424 35.756C25.368 36.308 25.292 36.768 25.196 37.136C25.1 37.504 24.96 37.796 24.776 38.012C24.6 38.228 24.352 38.384 24.032 38.48C23.72 38.576 23.316 38.624 22.82 38.624C22.74 38.624 22.584 38.624 22.352 38.624C22.128 38.624 21.856 38.624 21.536 38.624C21.224 38.624 20.896 38.624 20.552 38.624C20.208 38.624 19.88 38.624 19.568 38.624C19.256 38.624 18.988 38.624 18.764 38.624C18.54 38.624 18.388 38.624 18.308 38.624C17.66 38.624 17.148 38.572 16.772 38.468C16.396 38.364 16.132 38.18 15.98 37.916C15.828 37.652 15.752 37.272 15.752 36.776V30.74ZM16.244 32.72H23.324V33.608H16.244V32.72ZM15.116 28.664H23.9V34.208H22.964V29.564H15.116V28.664ZM29.472 30.632H36.528V31.496H29.472V30.632ZM29.016 33.548H37.008V34.4H29.016V33.548ZM33.432 33.836C33.712 34.892 34.168 35.8 34.8 36.56C35.432 37.312 36.26 37.848 37.284 38.168C37.212 38.224 37.136 38.3 37.056 38.396C36.984 38.492 36.912 38.588 36.84 38.684C36.776 38.788 36.72 38.88 36.672 38.96C35.6 38.568 34.74 37.952 34.092 37.112C33.444 36.264 32.964 35.232 32.652 34.016L33.432 33.836ZM35.208 27.932L36.144 28.256C35.936 28.64 35.708 29.036 35.46 29.444C35.212 29.852 34.98 30.196 34.764 30.476L34.032 30.176C34.168 29.976 34.308 29.744 34.452 29.48C34.604 29.216 34.744 28.948 34.872 28.676C35.008 28.404 35.12 28.156 35.208 27.932ZM29.952 28.424L30.684 28.064C30.86 28.264 31.028 28.488 31.188 28.736C31.356 28.976 31.504 29.216 31.632 29.456C31.768 29.688 31.872 29.9 31.944 30.092L31.152 30.524C31.088 30.324 30.992 30.104 30.864 29.864C30.736 29.624 30.592 29.38 30.432 29.132C30.28 28.876 30.12 28.64 29.952 28.424ZM32.472 30.824H33.396V33.332C33.396 33.7 33.368 34.084 33.312 34.484C33.264 34.876 33.16 35.276 33 35.684C32.848 36.084 32.62 36.48 32.316 36.872C32.012 37.264 31.612 37.64 31.116 38C30.62 38.36 30.004 38.692 29.268 38.996C29.228 38.924 29.172 38.844 29.1 38.756C29.028 38.676 28.952 38.592 28.872 38.504C28.8 38.424 28.724 38.352 28.644 38.288C29.364 38.024 29.956 37.732 30.42 37.412C30.892 37.084 31.264 36.748 31.536 36.404C31.816 36.06 32.02 35.712 32.148 35.36C32.284 35 32.372 34.648 32.412 34.304C32.452 33.96 32.472 33.632 32.472 33.32V30.824ZM42.904 31.856H49.372V32.708H42.904V31.856ZM46.756 30.248H47.692V36.8C47.692 37.064 47.652 37.268 47.572 37.412C47.5 37.548 47.368 37.652 47.176 37.724C46.992 37.796 46.74 37.84 46.42 37.856C46.1 37.872 45.7 37.88 45.22 37.88C45.204 37.76 45.164 37.616 45.1 37.448C45.044 37.28 44.984 37.132 44.92 37.004C45.16 37.012 45.388 37.02 45.604 37.028C45.82 37.028 46.008 37.028 46.168 37.028C46.328 37.028 46.44 37.028 46.504 37.028C46.6 37.02 46.664 37 46.696 36.968C46.736 36.936 46.756 36.872 46.756 36.776V30.248ZM41.068 30.62H41.956V38.96H41.068V30.62ZM41.248 28.484L41.944 28.052C42.136 28.22 42.328 28.408 42.52 28.616C42.72 28.816 42.904 29.02 43.072 29.228C43.248 29.428 43.384 29.612 43.48 29.78L42.736 30.272C42.648 30.104 42.52 29.92 42.352 29.72C42.192 29.512 42.016 29.3 41.824 29.084C41.632 28.86 41.44 28.66 41.248 28.484ZM44.26 28.58H50.584V29.42H44.26V28.58ZM50.068 28.58H50.956V37.82C50.956 38.068 50.92 38.26 50.848 38.396C50.784 38.54 50.672 38.648 50.512 38.72C50.344 38.792 50.124 38.836 49.852 38.852C49.58 38.876 49.244 38.884 48.844 38.876C48.82 38.764 48.78 38.624 48.724 38.456C48.676 38.288 48.62 38.148 48.556 38.036C48.836 38.044 49.1 38.048 49.348 38.048C49.596 38.048 49.76 38.048 49.84 38.048C49.928 38.04 49.988 38.02 50.02 37.988C50.052 37.956 50.068 37.9 50.068 37.82V28.58ZM46.492 32.276L47.332 32.552C46.868 33.4 46.26 34.184 45.508 34.904C44.764 35.616 43.92 36.228 42.976 36.74C42.936 36.676 42.876 36.608 42.796 36.536C42.724 36.456 42.648 36.38 42.568 36.308C42.496 36.228 42.424 36.164 42.352 36.116C42.968 35.804 43.54 35.444 44.068 35.036C44.604 34.628 45.076 34.188 45.484 33.716C45.9 33.244 46.236 32.764 46.492 32.276Z" fill="#999999"/>
</svg>
