<svg width="60" height="60" viewBox="0 0 60 60" fill="none" xmlns="http://www.w3.org/2000/svg">
<path d="M35.7692 0C30.4846 0 26.1046 2.9877 23.4369 7.14923C22.9385 7.07991 22.4654 6.93202 21.9231 6.93202C16.1492 6.93202 11.5385 10.941 10.0246 16.2464C4.49077 16.452 0 20.9832 0 26.5728C0 32.2871 4.67769 36.9708 10.3846 36.9708H47.3077C54.2908 36.9708 60 31.2542 60 24.2621C60 18.3121 55.7954 13.4897 50.2638 12.131C48.8838 5.26603 43.0154 0 35.7692 0ZM35.7692 4.62135C38.3721 4.61416 40.8815 5.59252 42.7942 7.36025C44.7069 9.12798 45.8814 11.5544 46.0823 14.1529L46.2969 16.1031L48.1731 16.2464C50.1536 16.4497 51.9881 17.3824 53.3206 18.8636C54.6531 20.3447 55.3887 22.2686 55.3846 24.2621C55.3846 28.754 51.7938 32.3494 47.3077 32.3494H10.3846C9.62571 32.354 8.87343 32.2078 8.1714 31.9191C7.46937 31.6304 6.83155 31.2051 6.29491 30.6677C5.75827 30.1304 5.33349 29.4918 5.04518 28.7888C4.75688 28.0859 4.61079 27.3326 4.61538 26.5728C4.61043 25.7396 4.78661 24.9154 5.13169 24.1572C5.47677 23.3991 5.98249 22.7252 6.61375 22.1824C7.24501 21.6396 7.98667 21.2408 8.78727 21.0138C9.58787 20.7868 10.4282 20.7369 11.25 20.8677L13.7031 21.3021L13.9177 18.8459C14.1041 16.8499 15.0284 14.9956 16.5093 13.6466C17.9902 12.2975 19.921 11.551 21.9231 11.5534C22.5231 11.5534 23.1462 11.6158 23.7992 11.7706L25.5992 12.2027L26.3954 10.5436C27.2375 8.76905 28.5655 7.27038 30.225 6.22197C31.8844 5.17355 33.8071 4.61849 35.7692 4.62135ZM48.39 38.921C46.1977 40.0578 41.1808 41.8925 39.8792 43.9744C39.5651 44.4672 39.3513 45.0173 39.2501 45.5931C39.149 46.1689 39.1625 46.759 39.2899 47.3295C39.4173 47.9001 39.656 48.4398 39.9924 48.9176C40.3288 49.3954 40.7562 49.802 41.25 50.1139C43.3246 51.4194 45.9138 50.6384 47.3792 48.6697C48.6831 46.9182 48.3877 43.6348 48.39 38.921ZM16.0823 41.2317C13.89 42.3685 8.87308 44.2032 7.57154 46.2851C7.25738 46.7779 7.04358 47.328 6.94245 47.9038C6.84131 48.4795 6.85482 49.0697 6.9822 49.6402C7.10959 50.2107 7.34833 50.7504 7.68472 51.2283C8.0211 51.7061 8.44849 52.1127 8.94231 52.4246C11.0169 53.7301 13.6062 52.9491 15.0715 50.9804C16.3754 49.2289 16.08 45.9454 16.0823 41.2317ZM32.2362 48.1637C30.0438 49.3005 25.0269 51.1352 23.7254 53.2171C23.4112 53.7099 23.1974 54.26 23.0963 54.8358C22.9952 55.4116 23.0087 56.0017 23.136 56.5722C23.2634 57.1428 23.5022 57.6824 23.8386 58.1603C24.1749 58.6381 24.6023 59.0447 25.0962 59.3566C27.1708 60.6621 29.76 59.8811 31.2254 57.9124C32.5292 56.1609 32.2338 52.8775 32.2362 48.1637Z" fill="#6FDAFE"/>
</svg>
