<svg width="60" height="60" viewBox="0 0 60 60" fill="none" xmlns="http://www.w3.org/2000/svg">
<path d="M25.2174 0L18.2609 10.2C20.5797 9.6 22.8985 9 25.2174 9C27.5362 9 29.8551 9.6 32.1739 10.2M51.3043 9C48.087 9 45.5072 11.67 45.5072 15V35.28C43.6522 36.99 42.6087 39.45 42.6087 42C42.6087 46.98 46.4928 51 51.3043 51C56.1159 51 60 46.98 60 42C60 39.45 58.9565 36.99 57.1014 35.31V15C57.1014 11.67 54.5217 9 51.3043 9ZM51.3043 12C52.8985 12 54.2029 13.35 54.2029 15V18H48.4058V15C48.4058 13.35 49.7101 12 51.3043 12ZM12.1739 14.1L0 15L5.21739 26.4C5.50725 24 6.37681 21.6 7.53623 19.5C8.98551 17.4 10.4348 15.6 12.1739 14.1ZM25.2174 15C17.1014 15 10.7246 21.6 10.7246 30C10.7246 38.4 17.1014 45 25.2174 45C33.3333 45 39.7101 38.4 39.7101 30C39.7101 21.6 33.3333 15 25.2174 15ZM5.50725 33.6L0.289855 45L12.1739 46.2C10.7246 44.7 8.98551 42.6 7.82609 40.5C6.37681 38.4 5.7971 36 5.50725 33.6ZM18.2609 49.8L25.2174 60L32.1739 49.8C29.8551 50.4 27.5362 51 25.2174 51C22.6087 51 20.2899 50.4 18.2609 49.8Z" fill="#6FDAFE"/>
</svg>
