<svg xmlns="http://www.w3.org/2000/svg" viewBox="0 0 20 20" width="24" height="24">
  <path d="M7.002 3.83A3.003 3.003 0 0 0 1 4.006a3.003 3.003 0 0 0 3.004 3.002V5.997l-.149-.006a1.991 1.991 0 1 1 2.14-1.984h1.012l-.005-.177zM15 4.007a3.003 3.003 0 0 0-6.007 0h1.012l.005-.149a1.991 1.991 0 0 1 3.978.149c0 1.099-.892 1.99-1.992 1.99v1.011l.177-.005A3.003 3.003 0 0 0 15 4.007zm-8.93 6.831c.666-.463 1.28-.857 1.93-.867V8h1.908c.053-.607.41-1.228.938-1.904q.424-.541.772-1.03c.078-.082.242-.37.56-.511h-.003a.548.548 0 0 0-.233-1.047.551.551 0 0 0-.552.517c-.046.154-.255.427-.334.498q-.66.506-1.049.826c-.887.728-2.517.92-3.812.07q-.172-.114-.847-.62-.632-.534-.746-.841a.552.552 0 0 0-.544-.45.547.547 0 0 0-.27 1.028h-.003c.287.145.584.439.885.813.301.375.602.759.742.967.397.59.783 1.09.783 1.78 0 .482-.293 1.064-.847 1.84a13.05 13.05 0 0 1-.835 1.056c-.299.326-.26.257-.596.422a.55.55 0 0 0-.413.53c0 .303.248.548.554.548.214 0 .4-.12.492-.297l.004.005q.238-.412.642-.715c.404-.302.713-.535.874-.647zm-2.066-.835V8.992l-.176.005A3.003 3.003 0 0 0 1 11.993a3.003 3.003 0 0 0 6.007 0H5.996l-.006.149a1.991 1.991 0 0 1-3.978-.149c0-1.099.892-1.99 1.992-1.99zm7.496.002H10v5h1.5v-5zm3 0H13v5h1.5v-5z" fill-rule="evenodd"></path>
</svg>
