<svg width="66" height="43" viewBox="0 0 66 43" fill="none" xmlns="http://www.w3.org/2000/svg">
<path d="M0.5 14.7635C0.5 13.8434 0.823886 12.7875 1.47166 11.5957C2.44332 9.80789 2.95614 9.24333 3.98178 8.13513C6.08705 5.98144 7.9224 4.3505 9.46086 3.25274L10.473 2.5C10.8104 2.77182 11.1883 3.02274 11.5931 3.25274C12.1464 3.69184 12.9966 4.41323 14.1302 5.43779C15.2638 6.46236 16.249 7.37193 17.0587 8.20831C18.0169 9.26424 18.8401 10.4038 19.5014 11.6061C20.1626 12.8084 20.5 13.8643 20.5 14.7739C20.5 15.8194 20.2436 16.8126 19.7173 17.764C19.191 18.7154 18.4892 19.5413 17.5985 20.2313C16.7078 20.9213 15.6417 21.4754 14.4001 21.8832C13.1586 22.2909 11.8495 22.5 10.473 22.5C9.12348 22.5 7.84143 22.3014 6.61336 21.9041C5.38529 21.5068 4.31916 20.9736 3.42847 20.2836C2.53779 19.604 1.82254 18.7781 1.29622 17.8267C0.769905 16.8753 0.5 15.8508 0.5 14.7635ZM3.54993 11.7002C3.54993 12.568 3.77935 13.258 4.25169 13.7807C4.72402 14.293 5.43927 14.5544 6.39744 14.5544C7.3691 14.5544 8.08435 14.293 8.57018 13.7807C9.04251 13.2684 9.28543 12.5784 9.29892 11.7002C9.28543 10.822 9.04251 10.132 8.57018 9.60925C8.09784 9.09697 7.3691 8.8356 6.39744 8.8356C5.43927 8.8356 4.72402 9.09697 4.25169 9.60925C3.77935 10.132 3.54993 10.822 3.54993 11.7002ZM5.66869 11.7002V11.3343C5.66869 11.2507 5.68219 11.1356 5.69568 10.9893C5.70918 10.8429 5.72267 10.7279 5.76316 10.6547C5.80364 10.5815 5.83063 10.4875 5.88462 10.4038C5.9386 10.3202 6.00607 10.247 6.08704 10.2156C6.18151 10.1738 6.27598 10.1529 6.39744 10.1529C6.58637 10.1529 6.73482 10.1947 6.84278 10.2784C7.00472 10.4038 7.03171 10.4979 7.0722 10.6756C7.11269 10.8638 7.13968 11.0102 7.15317 11.1461C7.16667 11.282 7.16667 11.4597 7.16667 11.6898C7.16667 11.9302 7.16667 12.1079 7.15317 12.2334C7.13968 12.3589 7.11269 12.5157 7.0722 12.7039C7.03171 12.8816 6.95074 13.0175 6.84278 13.1011C6.73482 13.1848 6.58637 13.2266 6.39744 13.2266C6.27598 13.2266 6.18151 13.2057 6.08704 13.1639C5.99292 13.1217 5.92118 13.055 5.88462 12.9757C5.83063 12.8921 5.79015 12.798 5.76316 12.7248C5.73617 12.6411 5.70918 12.5261 5.69568 12.3902C5.68219 12.2439 5.66869 12.1289 5.66869 12.0557V11.7002ZM6.46491 19.8027H8.24629L14.9804 8.57423H13.1586L6.46491 19.8027ZM12.2679 16.6767C12.2814 17.5549 12.5378 18.2449 13.0101 18.7676C13.4825 19.2799 14.2112 19.5413 15.1694 19.5413C16.141 19.5413 16.8563 19.2799 17.3286 18.7676C17.8009 18.2554 18.0304 17.5549 18.0439 16.6767C18.0304 15.7985 17.8009 15.1085 17.3286 14.5962C16.8563 14.0839 16.141 13.8225 15.1694 13.8225C14.2112 13.8225 13.4825 14.0839 13.0101 14.5962C12.5243 15.1085 12.2814 15.7985 12.2679 16.6767ZM14.3866 16.6767C14.3866 16.4362 14.3866 16.2585 14.4001 16.133C14.4136 16.0076 14.4406 15.8508 14.4811 15.6626C14.5418 15.3803 14.6026 15.3489 14.7105 15.2653C14.8185 15.1817 14.9669 15.1398 15.1559 15.1398C15.2773 15.1398 15.3853 15.1607 15.4798 15.2026C15.5742 15.2444 15.6417 15.3071 15.6957 15.4012C15.7497 15.4953 15.7901 15.5789 15.8306 15.6521C15.8711 15.7253 15.8846 15.8403 15.8981 15.9867L15.9116 16.3212V17.0426L15.8981 17.3772L15.8306 17.7117L15.6957 17.9626L15.4798 18.1613L15.1559 18.224C14.9669 18.224 14.8185 18.1822 14.7105 18.0985C14.5486 17.9731 14.5216 17.879 14.4811 17.7013C14.4406 17.5131 14.4136 17.3562 14.4001 17.2308C14.3799 17.0426 14.3866 16.9171 14.3866 16.6767Z" fill="#6FDAFE"/>
<path d="M33.696 9.624V10.836H38.304V9.624H33.696ZM33.696 7.692V8.892H38.304V7.692H33.696ZM32.844 6.936H39.18V11.592H32.844V6.936ZM31.62 16.308H40.032V17.112H31.62V16.308ZM32.328 12.936L33.06 12.672C33.236 12.96 33.396 13.268 33.54 13.596C33.692 13.924 33.824 14.248 33.936 14.568C34.048 14.888 34.128 15.172 34.176 15.42L33.384 15.708C33.336 15.452 33.26 15.164 33.156 14.844C33.052 14.516 32.928 14.188 32.784 13.86C32.648 13.524 32.496 13.216 32.328 12.936ZM38.916 12.612L39.78 12.888C39.644 13.2 39.492 13.528 39.324 13.872C39.164 14.216 39.004 14.548 38.844 14.868C38.692 15.188 38.54 15.468 38.388 15.708L37.728 15.456C37.864 15.2 38.004 14.908 38.148 14.58C38.3 14.244 38.444 13.904 38.58 13.56C38.716 13.216 38.828 12.9 38.916 12.612ZM34.548 11.988H35.376V16.776H34.548V11.988ZM36.6 11.988H37.44V16.776H36.6V11.988ZM29.616 7.212L30.108 6.564C30.356 6.66 30.612 6.78 30.876 6.924C31.14 7.06 31.388 7.204 31.62 7.356C31.86 7.508 32.052 7.652 32.196 7.788L31.68 8.52C31.536 8.384 31.348 8.236 31.116 8.076C30.884 7.916 30.636 7.76 30.372 7.608C30.116 7.456 29.864 7.324 29.616 7.212ZM28.956 10.38L29.472 9.72C29.72 9.824 29.976 9.948 30.24 10.092C30.512 10.228 30.768 10.372 31.008 10.524C31.248 10.676 31.444 10.82 31.596 10.956L31.068 11.676C30.924 11.54 30.732 11.396 30.492 11.244C30.26 11.084 30.008 10.928 29.736 10.776C29.472 10.616 29.212 10.484 28.956 10.38ZM29.28 16.692C29.456 16.38 29.648 16.012 29.856 15.588C30.064 15.156 30.272 14.7 30.48 14.22C30.696 13.74 30.892 13.276 31.068 12.828L31.776 13.344C31.616 13.76 31.44 14.2 31.248 14.664C31.056 15.12 30.86 15.568 30.66 16.008C30.46 16.44 30.264 16.844 30.072 17.22L29.28 16.692ZM44.2 9.78H52.744V10.524H44.2V9.78ZM44.368 13.284H51.244V14.028H44.368V13.284ZM46.132 8.736H46.996V11.796H49.912V8.736H50.8V12.516H46.132V8.736ZM51.004 13.284H51.184L51.34 13.248L51.904 13.548C51.576 14.172 51.148 14.712 50.62 15.168C50.092 15.616 49.492 15.992 48.82 16.296C48.148 16.6 47.428 16.844 46.66 17.028C45.892 17.22 45.1 17.364 44.284 17.46C44.26 17.356 44.208 17.228 44.128 17.076C44.056 16.924 43.98 16.8 43.9 16.704C44.66 16.624 45.404 16.508 46.132 16.356C46.86 16.196 47.54 15.984 48.172 15.72C48.812 15.456 49.376 15.136 49.864 14.76C50.352 14.384 50.732 13.936 51.004 13.416V13.284ZM46.504 13.908C46.888 14.444 47.404 14.904 48.052 15.288C48.708 15.672 49.46 15.98 50.308 16.212C51.156 16.444 52.064 16.608 53.032 16.704C52.976 16.768 52.912 16.848 52.84 16.944C52.776 17.04 52.712 17.132 52.648 17.22C52.592 17.316 52.544 17.404 52.504 17.484C51.52 17.356 50.596 17.152 49.732 16.872C48.868 16.6 48.092 16.244 47.404 15.804C46.724 15.356 46.168 14.824 45.736 14.208L46.504 13.908ZM47.392 6.42H48.316V8.064H47.392V6.42ZM43.396 7.608H52.816V8.424H43.396V7.608ZM42.952 7.608H43.816V11.076C43.816 11.54 43.8 12.048 43.768 12.6C43.744 13.152 43.688 13.716 43.6 14.292C43.52 14.868 43.4 15.428 43.24 15.972C43.088 16.516 42.88 17.016 42.616 17.472C42.568 17.424 42.496 17.364 42.4 17.292C42.312 17.228 42.22 17.164 42.124 17.1C42.036 17.044 41.952 17.004 41.872 16.98C42.12 16.548 42.316 16.084 42.46 15.588C42.604 15.084 42.712 14.568 42.784 14.04C42.856 13.512 42.9 12.996 42.916 12.492C42.94 11.98 42.952 11.508 42.952 11.076V7.608Z" fill="#D4EDFD"/>
<path d="M23.5316 38.1193C23.1737 38.1136 22.8157 38.0455 22.4577 37.9148C22.0998 37.7841 21.7731 37.5639 21.4776 37.2543C21.1822 36.9418 20.945 36.5199 20.766 35.9886C20.587 35.4545 20.4975 34.7841 20.4975 33.9773C20.4975 33.2045 20.57 32.5199 20.7148 31.9233C20.8597 31.3239 21.07 30.8196 21.3455 30.4105C21.6211 29.9986 21.9535 29.6861 22.3427 29.473C22.7347 29.2599 23.1765 29.1534 23.668 29.1534C24.1566 29.1534 24.5913 29.2514 24.9719 29.4474C25.3555 29.6406 25.668 29.9105 25.9094 30.2571C26.1509 30.6037 26.3072 31.0028 26.3782 31.4545H25.3384C25.2418 31.0625 25.0543 30.7372 24.7759 30.4787C24.4975 30.2202 24.1282 30.0909 23.668 30.0909C22.9918 30.0909 22.4592 30.3849 22.07 30.973C21.6836 31.5611 21.489 32.3864 21.4862 33.4489H21.5543C21.7134 33.2074 21.9023 33.0014 22.1211 32.831C22.3427 32.6577 22.587 32.5241 22.854 32.4304C23.1211 32.3366 23.4038 32.2898 23.7021 32.2898C24.2021 32.2898 24.6594 32.4148 25.0742 32.6648C25.489 32.9119 25.8214 33.2543 26.0714 33.6918C26.3214 34.1264 26.4464 34.625 26.4464 35.1875C26.4464 35.7273 26.3256 36.2216 26.0842 36.6705C25.8427 37.1165 25.5032 37.4716 25.0657 37.7358C24.631 37.9972 24.1197 38.125 23.5316 38.1193ZM23.5316 37.1818C23.8896 37.1818 24.2106 37.0923 24.4947 36.9134C24.7816 36.7344 25.0075 36.4943 25.1722 36.1932C25.3398 35.892 25.4237 35.5568 25.4237 35.1875C25.4237 34.8267 25.3427 34.4986 25.1808 34.2031C25.0217 33.9048 24.8015 33.6676 24.5202 33.4915C24.2418 33.3153 23.9237 33.2273 23.5657 33.2273C23.2958 33.2273 23.0444 33.2812 22.8114 33.3892C22.5785 33.4943 22.3739 33.6392 22.1978 33.8239C22.0245 34.0085 21.8881 34.2202 21.7887 34.4588C21.6893 34.6946 21.6396 34.9432 21.6396 35.2045C21.6396 35.5511 21.7205 35.875 21.8825 36.1761C22.0472 36.4773 22.2717 36.7202 22.5558 36.9048C22.8427 37.0895 23.168 37.1818 23.5316 37.1818ZM31.8494 38.1193C31.3494 38.1193 30.8991 38.0199 30.4986 37.821C30.098 37.6222 29.777 37.3494 29.5355 37.0028C29.294 36.6562 29.1619 36.2614 29.1392 35.8182H30.1619C30.2017 36.2131 30.3807 36.5398 30.6989 36.7983C31.0199 37.054 31.4034 37.1818 31.8494 37.1818C32.2074 37.1818 32.5256 37.098 32.804 36.9304C33.0852 36.7628 33.3054 36.5327 33.4645 36.2401C33.6264 35.9446 33.7074 35.6108 33.7074 35.2386C33.7074 34.858 33.6236 34.5185 33.456 34.2202C33.2912 33.919 33.0639 33.6818 32.7741 33.5085C32.4844 33.3352 32.1534 33.2472 31.7812 33.2443C31.5142 33.2415 31.2401 33.2827 30.9588 33.3679C30.6776 33.4503 30.446 33.5568 30.2642 33.6875L29.2756 33.5682L29.804 29.2727H34.3381V30.2102H30.6903L30.3835 32.7841H30.4347C30.6136 32.642 30.8381 32.5241 31.108 32.4304C31.3778 32.3366 31.6591 32.2898 31.9517 32.2898C32.4858 32.2898 32.9616 32.4176 33.3793 32.6733C33.7997 32.9261 34.1293 33.2727 34.3679 33.7131C34.6094 34.1534 34.7301 34.6562 34.7301 35.2216C34.7301 35.7784 34.6051 36.2756 34.3551 36.7131C34.108 37.1477 33.767 37.4915 33.3324 37.7443C32.8977 37.9943 32.4034 38.1193 31.8494 38.1193ZM41.8718 36.3636V35.9034C41.8718 35.5852 41.9371 35.294 42.0678 35.0298C42.2013 34.7628 42.3945 34.5497 42.6474 34.3906C42.9031 34.2287 43.2127 34.1477 43.5763 34.1477C43.9457 34.1477 44.2553 34.2287 44.5053 34.3906C44.7553 34.5497 44.9442 34.7628 45.0721 35.0298C45.1999 35.294 45.2638 35.5852 45.2638 35.9034V36.3636C45.2638 36.6818 45.1985 36.9744 45.0678 37.2415C44.94 37.5057 44.7496 37.7187 44.4968 37.8807C44.2468 38.0398 43.94 38.1193 43.5763 38.1193C43.207 38.1193 42.896 38.0398 42.6431 37.8807C42.3903 37.7187 42.1985 37.5057 42.0678 37.2415C41.9371 36.9744 41.8718 36.6818 41.8718 36.3636ZM42.7411 35.9034V36.3636C42.7411 36.6278 42.8036 36.8651 42.9286 37.0753C43.0536 37.2827 43.2695 37.3864 43.5763 37.3864C43.8746 37.3864 44.0849 37.2827 44.207 37.0753C44.332 36.8651 44.3945 36.6278 44.3945 36.3636V35.9034C44.3945 35.6392 44.3349 35.4034 44.2156 35.196C44.0962 34.9858 43.8832 34.8807 43.5763 34.8807C43.2781 34.8807 43.0636 34.9858 42.9329 35.196C42.805 35.4034 42.7411 35.6392 42.7411 35.9034ZM37.5252 31.3693V30.9091C37.5252 30.5909 37.5906 30.2997 37.7212 30.0355C37.8548 29.7685 38.0479 29.5554 38.3008 29.3963C38.5565 29.2344 38.8661 29.1534 39.2298 29.1534C39.5991 29.1534 39.9087 29.2344 40.1587 29.3963C40.4087 29.5554 40.5977 29.7685 40.7255 30.0355C40.8533 30.2997 40.9173 30.5909 40.9173 30.9091V31.3693C40.9173 31.6875 40.8519 31.9801 40.7212 32.2472C40.5934 32.5114 40.4031 32.7244 40.1502 32.8864C39.9002 33.0455 39.5934 33.125 39.2298 33.125C38.8604 33.125 38.5494 33.0455 38.2965 32.8864C38.0437 32.7244 37.8519 32.5114 37.7212 32.2472C37.5906 31.9801 37.5252 31.6875 37.5252 31.3693ZM38.3945 30.9091V31.3693C38.3945 31.6335 38.457 31.8707 38.582 32.081C38.707 32.2884 38.9229 32.392 39.2298 32.392C39.5281 32.392 39.7383 32.2884 39.8604 32.081C39.9854 31.8707 40.0479 31.6335 40.0479 31.3693V30.9091C40.0479 30.6449 39.9883 30.4091 39.869 30.2017C39.7496 29.9915 39.5366 29.8864 39.2298 29.8864C38.9315 29.8864 38.717 29.9915 38.5863 30.2017C38.4585 30.4091 38.3945 30.6449 38.3945 30.9091ZM37.8491 38L43.8491 29.2727H44.8207L38.8207 38H37.8491Z" fill="#999999"/>
</svg>
