<svg width="66" height="43" viewBox="0 0 66 43" fill="none" xmlns="http://www.w3.org/2000/svg">
<path d="M21 12.5C21 6.977 16.523 2.5 11 2.5C5.477 2.5 1 6.977 1 12.5M21 12.5C21 18.023 16.523 22.5 11 22.5C5.477 22.5 1 18.023 1 12.5M21 12.5H1M19 7.5H3M19 17.5H3" stroke="#6FDAFE" stroke-width="1.5" stroke-linecap="round" stroke-linejoin="round"/>
<path d="M29.828 14.316C29.812 14.26 29.788 14.184 29.756 14.088C29.732 13.992 29.7 13.892 29.66 13.788C29.628 13.684 29.596 13.596 29.564 13.524C29.684 13.5 29.812 13.42 29.948 13.284C30.092 13.14 30.256 12.956 30.44 12.732C30.536 12.628 30.676 12.452 30.86 12.204C31.044 11.956 31.252 11.66 31.484 11.316C31.716 10.964 31.948 10.592 32.18 10.2C32.42 9.8 32.64 9.392 32.84 8.976L33.524 9.42C33.06 10.244 32.556 11.044 32.012 11.82C31.468 12.596 30.924 13.276 30.38 13.86V13.884C30.38 13.884 30.352 13.9 30.296 13.932C30.24 13.956 30.176 13.992 30.104 14.04C30.032 14.08 29.968 14.124 29.912 14.172C29.856 14.22 29.828 14.268 29.828 14.316ZM29.828 14.316L29.78 13.608L30.188 13.296L33.392 12.672C33.376 12.784 33.368 12.912 33.368 13.056C33.376 13.2 33.384 13.32 33.392 13.416C32.656 13.576 32.064 13.708 31.616 13.812C31.168 13.908 30.824 13.988 30.584 14.052C30.352 14.116 30.18 14.168 30.068 14.208C29.964 14.24 29.884 14.276 29.828 14.316ZM29.744 11.424C29.728 11.368 29.7 11.288 29.66 11.184C29.628 11.08 29.596 10.976 29.564 10.872C29.532 10.76 29.5 10.668 29.468 10.596C29.572 10.572 29.676 10.492 29.78 10.356C29.884 10.22 30 10.052 30.128 9.852C30.2 9.748 30.296 9.584 30.416 9.36C30.544 9.128 30.688 8.852 30.848 8.532C31.016 8.212 31.176 7.872 31.328 7.512C31.48 7.144 31.62 6.78 31.748 6.42L32.528 6.804C32.32 7.3 32.092 7.796 31.844 8.292C31.596 8.788 31.336 9.264 31.064 9.72C30.792 10.176 30.516 10.584 30.236 10.944V10.968C30.236 10.968 30.212 10.984 30.164 11.016C30.116 11.048 30.056 11.088 29.984 11.136C29.92 11.184 29.864 11.232 29.816 11.28C29.768 11.328 29.744 11.376 29.744 11.424ZM29.744 11.424L29.72 10.776L30.116 10.5L32.228 10.26C32.22 10.372 32.208 10.5 32.192 10.644C32.176 10.78 32.168 10.892 32.168 10.98C31.688 11.044 31.296 11.1 30.992 11.148C30.696 11.196 30.464 11.236 30.296 11.268C30.136 11.3 30.016 11.328 29.936 11.352C29.856 11.376 29.792 11.4 29.744 11.424ZM29.54 15.864C29.892 15.784 30.292 15.692 30.74 15.588C31.196 15.476 31.68 15.36 32.192 15.24C32.712 15.112 33.228 14.984 33.74 14.856L33.824 15.624C33.096 15.816 32.368 16.008 31.64 16.2C30.912 16.392 30.268 16.568 29.708 16.728L29.54 15.864ZM33.908 8.052H40.052V8.892H33.908V8.052ZM34.172 10.2H39.608V11.04H34.172V10.2ZM39.584 12.408H40.376C40.376 12.408 40.376 12.452 40.376 12.54C40.376 12.62 40.372 12.692 40.364 12.756C40.316 13.46 40.264 14.036 40.208 14.484C40.16 14.932 40.104 15.276 40.04 15.516C39.984 15.748 39.912 15.916 39.824 16.02C39.744 16.116 39.656 16.184 39.56 16.224C39.464 16.264 39.344 16.292 39.2 16.308C39.096 16.316 38.952 16.32 38.768 16.32C38.592 16.32 38.4 16.32 38.192 16.32C38.184 16.2 38.16 16.068 38.12 15.924C38.088 15.772 38.044 15.648 37.988 15.552C38.18 15.568 38.352 15.58 38.504 15.588C38.664 15.588 38.78 15.588 38.852 15.588C38.924 15.588 38.984 15.584 39.032 15.576C39.08 15.56 39.124 15.528 39.164 15.48C39.228 15.408 39.284 15.272 39.332 15.072C39.38 14.864 39.424 14.556 39.464 14.148C39.512 13.74 39.552 13.2 39.584 12.528V12.408ZM33.704 12.408H39.8V13.248H33.704V12.408ZM36.392 6.408H37.316V17.436H36.392V6.408ZM44.7 9.78H53.244V10.524H44.7V9.78ZM44.868 13.284H51.744V14.028H44.868V13.284ZM46.632 8.736H47.496V11.796H50.412V8.736H51.3V12.516H46.632V8.736ZM51.504 13.284H51.684L51.84 13.248L52.404 13.548C52.076 14.172 51.648 14.712 51.12 15.168C50.592 15.616 49.992 15.992 49.32 16.296C48.648 16.6 47.928 16.844 47.16 17.028C46.392 17.22 45.6 17.364 44.784 17.46C44.76 17.356 44.708 17.228 44.628 17.076C44.556 16.924 44.48 16.8 44.4 16.704C45.16 16.624 45.904 16.508 46.632 16.356C47.36 16.196 48.04 15.984 48.672 15.72C49.312 15.456 49.876 15.136 50.364 14.76C50.852 14.384 51.232 13.936 51.504 13.416V13.284ZM47.004 13.908C47.388 14.444 47.904 14.904 48.552 15.288C49.208 15.672 49.96 15.98 50.808 16.212C51.656 16.444 52.564 16.608 53.532 16.704C53.476 16.768 53.412 16.848 53.34 16.944C53.276 17.04 53.212 17.132 53.148 17.22C53.092 17.316 53.044 17.404 53.004 17.484C52.02 17.356 51.096 17.152 50.232 16.872C49.368 16.6 48.592 16.244 47.904 15.804C47.224 15.356 46.668 14.824 46.236 14.208L47.004 13.908ZM47.892 6.42H48.816V8.064H47.892V6.42ZM43.896 7.608H53.316V8.424H43.896V7.608ZM43.452 7.608H44.316V11.076C44.316 11.54 44.3 12.048 44.268 12.6C44.244 13.152 44.188 13.716 44.1 14.292C44.02 14.868 43.9 15.428 43.74 15.972C43.588 16.516 43.38 17.016 43.116 17.472C43.068 17.424 42.996 17.364 42.9 17.292C42.812 17.228 42.72 17.164 42.624 17.1C42.536 17.044 42.452 17.004 42.372 16.98C42.62 16.548 42.816 16.084 42.96 15.588C43.104 15.084 43.212 14.568 43.284 14.04C43.356 13.512 43.4 12.996 43.416 12.492C43.44 11.98 43.452 11.508 43.452 11.076V7.608Z" fill="#D4EDFD"/>
<path d="M10.5925 38.1193C10.03 38.1193 9.52859 38.0227 9.08825 37.8295C8.65075 37.6364 8.30273 37.3679 8.04421 37.0241C7.78853 36.6776 7.64933 36.2756 7.6266 35.8182H8.70046C8.72319 36.0994 8.81978 36.3423 8.99023 36.5469C9.16069 36.7486 9.3837 36.9048 9.65927 37.0156C9.93484 37.1264 10.2402 37.1818 10.5755 37.1818C10.9505 37.1818 11.2828 37.1165 11.5726 36.9858C11.8624 36.8551 12.0897 36.6733 12.2544 36.4403C12.4192 36.2074 12.5016 35.9375 12.5016 35.6307C12.5016 35.3097 12.4221 35.027 12.263 34.7827C12.1039 34.5355 11.8709 34.3423 11.5641 34.2031C11.2573 34.0639 10.8823 33.9943 10.4391 33.9943H9.74023V33.0568H10.4391C10.7857 33.0568 11.0897 32.9943 11.351 32.8693C11.6152 32.7443 11.8212 32.5682 11.9689 32.3409C12.1195 32.1136 12.1948 31.8466 12.1948 31.5398C12.1948 31.2443 12.1294 30.9872 11.9988 30.7685C11.8681 30.5497 11.6834 30.3793 11.4448 30.2571C11.209 30.1349 10.9306 30.0739 10.6096 30.0739C10.3084 30.0739 10.0243 30.1293 9.75728 30.2401C9.49308 30.348 9.27717 30.5057 9.10955 30.7131C8.94194 30.9176 8.85103 31.1648 8.83683 31.4545H7.8141C7.83114 30.9972 7.96893 30.5966 8.22745 30.2528C8.48597 29.9062 8.82404 29.6364 9.24165 29.4432C9.66211 29.25 10.1238 29.1534 10.6266 29.1534C11.1664 29.1534 11.6294 29.2628 12.0158 29.4815C12.4022 29.6974 12.699 29.983 12.9064 30.3381C13.1138 30.6932 13.2175 31.0767 13.2175 31.4886C13.2175 31.9801 13.0882 32.3991 12.8297 32.7457C12.574 33.0923 12.226 33.3324 11.7857 33.4659V33.5341C12.3368 33.625 12.7672 33.8594 13.0769 34.2372C13.3865 34.6122 13.5414 35.0767 13.5414 35.6307C13.5414 36.1051 13.4121 36.5312 13.1536 36.9091C12.8979 37.2841 12.5485 37.5795 12.1053 37.7955C11.6621 38.0114 11.1578 38.1193 10.5925 38.1193ZM19.0627 29.1534C19.4206 29.1562 19.7786 29.2244 20.1365 29.358C20.4945 29.4915 20.8212 29.7131 21.1167 30.0227C21.4121 30.3295 21.6493 30.7486 21.8283 31.2798C22.0073 31.8111 22.0968 32.4773 22.0968 33.2784C22.0968 34.054 22.0229 34.7429 21.8752 35.3452C21.7303 35.9446 21.5201 36.4503 21.2445 36.8622C20.9718 37.2741 20.6394 37.5866 20.2473 37.7997C19.8581 38.0128 19.4178 38.1193 18.9263 38.1193C18.4377 38.1193 18.0016 38.0227 17.6181 37.8295C17.2374 37.6335 16.9249 37.3622 16.6806 37.0156C16.4391 36.6662 16.2843 36.2614 16.2161 35.8011H17.2559C17.3496 36.2017 17.5357 36.5327 17.8141 36.794C18.0953 37.0526 18.4661 37.1818 18.9263 37.1818C19.5996 37.1818 20.1309 36.8878 20.5201 36.2997C20.9121 35.7116 21.1081 34.8807 21.1081 33.8068H21.04C20.8809 34.0455 20.6919 34.2514 20.4732 34.4247C20.2544 34.598 20.0115 34.7315 19.7445 34.8253C19.4775 34.919 19.1934 34.9659 18.8922 34.9659C18.3922 34.9659 17.9334 34.8423 17.5158 34.5952C17.101 34.3452 16.7686 34.0028 16.5186 33.5682C16.2715 33.1307 16.1479 32.6307 16.1479 32.0682C16.1479 31.5341 16.2672 31.0455 16.5059 30.6023C16.7473 30.1562 17.0854 29.8011 17.5201 29.5369C17.9576 29.2727 18.4718 29.1449 19.0627 29.1534ZM19.0627 30.0909C18.7047 30.0909 18.3823 30.1804 18.0953 30.3594C17.8113 30.5355 17.5854 30.7741 17.4178 31.0753C17.253 31.3736 17.1706 31.7045 17.1706 32.0682C17.1706 32.4318 17.2502 32.7628 17.4093 33.0611C17.5712 33.3565 17.7914 33.5923 18.0698 33.7685C18.351 33.9418 18.6706 34.0284 19.0286 34.0284C19.2985 34.0284 19.5499 33.9759 19.7828 33.8707C20.0158 33.7628 20.2189 33.6165 20.3922 33.4318C20.5684 33.2443 20.7061 33.0327 20.8056 32.7969C20.905 32.5582 20.9547 32.3097 20.9547 32.0511C20.9547 31.7102 20.8723 31.3906 20.7076 31.0923C20.5456 30.794 20.3212 30.5526 20.0343 30.3679C19.7502 30.1832 19.4263 30.0909 19.0627 30.0909ZM25.2179 38.0682C25.0076 38.0682 24.8272 37.9929 24.6767 37.8423C24.5261 37.6918 24.4508 37.5114 24.4508 37.3011C24.4508 37.0909 24.5261 36.9105 24.6767 36.7599C24.8272 36.6094 25.0076 36.5341 25.2179 36.5341C25.4281 36.5341 25.6085 36.6094 25.7591 36.7599C25.9096 36.9105 25.9849 37.0909 25.9849 37.3011C25.9849 37.4403 25.9494 37.5682 25.8784 37.6847C25.8102 37.8011 25.7179 37.8949 25.6014 37.9659C25.4877 38.0341 25.3599 38.0682 25.2179 38.0682ZM31.4689 29.1534C31.8269 29.1562 32.1848 29.2244 32.5428 29.358C32.9007 29.4915 33.2275 29.7131 33.5229 30.0227C33.8184 30.3295 34.0556 30.7486 34.2346 31.2798C34.4135 31.8111 34.503 32.4773 34.503 33.2784C34.503 34.054 34.4292 34.7429 34.2814 35.3452C34.1365 35.9446 33.9263 36.4503 33.6507 36.8622C33.378 37.2741 33.0456 37.5866 32.6536 37.7997C32.2644 38.0128 31.824 38.1193 31.3326 38.1193C30.8439 38.1193 30.4078 38.0227 30.0243 37.8295C29.6436 37.6335 29.3311 37.3622 29.0868 37.0156C28.8453 36.6662 28.6905 36.2614 28.6223 35.8011H29.6621C29.7559 36.2017 29.9419 36.5327 30.2203 36.794C30.5016 37.0526 30.8723 37.1818 31.3326 37.1818C32.0059 37.1818 32.5371 36.8878 32.9263 36.2997C33.3184 35.7116 33.5144 34.8807 33.5144 33.8068H33.4462C33.2871 34.0455 33.0982 34.2514 32.8794 34.4247C32.6607 34.598 32.4178 34.7315 32.1507 34.8253C31.8837 34.919 31.5996 34.9659 31.2985 34.9659C30.7985 34.9659 30.3397 34.8423 29.9221 34.5952C29.5073 34.3452 29.1749 34.0028 28.9249 33.5682C28.6777 33.1307 28.5542 32.6307 28.5542 32.0682C28.5542 31.5341 28.6735 31.0455 28.9121 30.6023C29.1536 30.1562 29.4917 29.8011 29.9263 29.5369C30.3638 29.2727 30.878 29.1449 31.4689 29.1534ZM31.4689 30.0909C31.111 30.0909 30.7885 30.1804 30.5016 30.3594C30.2175 30.5355 29.9917 30.7741 29.824 31.0753C29.6593 31.3736 29.5769 31.7045 29.5769 32.0682C29.5769 32.4318 29.6564 32.7628 29.8155 33.0611C29.9775 33.3565 30.1976 33.5923 30.476 33.7685C30.7573 33.9418 31.0769 34.0284 31.4348 34.0284C31.7047 34.0284 31.9561 33.9759 32.1891 33.8707C32.4221 33.7628 32.6252 33.6165 32.7985 33.4318C32.9746 33.2443 33.1124 33.0327 33.2118 32.7969C33.3113 32.5582 33.361 32.3097 33.361 32.0511C33.361 31.7102 33.2786 31.3906 33.1138 31.0923C32.9519 30.794 32.7275 30.5526 32.4405 30.3679C32.1564 30.1832 31.8326 30.0909 31.4689 30.0909ZM40.0254 38.1193C39.3833 38.1193 38.8365 37.9446 38.3848 37.5952C37.9331 37.2429 37.5879 36.733 37.3493 36.0653C37.1106 35.3949 36.9913 34.5852 36.9913 33.6364C36.9913 32.6932 37.1106 31.8878 37.3493 31.2202C37.5907 30.5497 37.9373 30.0384 38.389 29.6861C38.8436 29.331 39.389 29.1534 40.0254 29.1534C40.6618 29.1534 41.2058 29.331 41.6575 29.6861C42.112 30.0384 42.4586 30.5497 42.6973 31.2202C42.9387 31.8878 43.0595 32.6932 43.0595 33.6364C43.0595 34.5852 42.9402 35.3949 42.7015 36.0653C42.4629 36.733 42.1177 37.2429 41.666 37.5952C41.2143 37.9446 40.6674 38.1193 40.0254 38.1193ZM40.0254 37.1818C40.6618 37.1818 41.1561 36.875 41.5083 36.2614C41.8606 35.6477 42.0368 34.7727 42.0368 33.6364C42.0368 32.8807 41.9558 32.2372 41.7939 31.706C41.6348 31.1747 41.4047 30.7699 41.1035 30.4915C40.8052 30.2131 40.4458 30.0739 40.0254 30.0739C39.3947 30.0739 38.9018 30.3849 38.5467 31.0071C38.1916 31.6264 38.014 32.5028 38.014 33.6364C38.014 34.392 38.0936 35.0341 38.2527 35.5625C38.4118 36.0909 38.6404 36.4929 38.9387 36.7685C39.2399 37.044 39.6021 37.1818 40.0254 37.1818ZM47.5027 33.125C47.1419 33.125 46.8123 33.0369 46.514 32.8608C46.2186 32.6847 45.9828 32.4489 45.8066 32.1534C45.6305 31.8551 45.5424 31.5256 45.5424 31.1648C45.5424 30.804 45.6305 30.4759 45.8066 30.1804C45.9828 29.8821 46.2186 29.6449 46.514 29.4688C46.8123 29.2926 47.1419 29.2045 47.5027 29.2045C47.8635 29.2045 48.1916 29.2926 48.487 29.4688C48.7853 29.6449 49.0225 29.8821 49.1987 30.1804C49.3748 30.4759 49.4629 30.804 49.4629 31.1648C49.4629 31.5256 49.3748 31.8551 49.1987 32.1534C49.0225 32.4489 48.7853 32.6847 48.487 32.8608C48.1916 33.0369 47.8635 33.125 47.5027 33.125ZM47.5027 32.2727C47.7072 32.2727 47.8933 32.223 48.0609 32.1236C48.2285 32.0241 48.362 31.8906 48.4615 31.723C48.5609 31.5554 48.6106 31.3693 48.6106 31.1648C48.6106 30.9602 48.5609 30.7741 48.4615 30.6065C48.362 30.4389 48.2285 30.3054 48.0609 30.206C47.8933 30.1065 47.7072 30.0568 47.5027 30.0568C47.2981 30.0568 47.112 30.1065 46.9444 30.206C46.7768 30.3054 46.6433 30.4389 46.5439 30.6065C46.4444 30.7741 46.3947 30.9602 46.3947 31.1648C46.3947 31.3693 46.4444 31.5554 46.5439 31.723C46.6433 31.8906 46.7768 32.0241 46.9444 32.1236C47.112 32.223 47.2981 32.2727 47.5027 32.2727ZM59.2019 29.2727V38H58.1792L53.4235 31.1477H53.3382V38H52.2814V29.2727H53.3042L58.0769 36.142H58.1621V29.2727H59.2019Z" fill="#999999"/>
</svg>
