<svg width="66" height="43" viewBox="0 0 66 43" fill="none" xmlns="http://www.w3.org/2000/svg">
<path d="M7.66667 22.5L4.33333 15.5L1 22.5H7.66667Z" stroke="#6FDAFE" stroke-width="1.5" stroke-linecap="round" stroke-linejoin="round"/>
<path d="M17.88 13.8351C19.3167 15.1281 20.0356 15.7751 19.8645 16.7731C19.8537 16.8308 19.8412 16.8881 19.8267 16.9451C19.56 17.9251 18.8267 18.1991 17.3645 18.7451C15.3485 19.4971 13.13 19.694 10.9897 19.3109C8.84931 18.9279 6.88329 17.9821 5.34033 16.5932C3.79736 15.2043 2.74678 13.4348 2.3215 11.5084C1.89621 9.58201 2.11534 7.5854 2.95114 5.77113C3.5567 4.45413 3.86003 3.79613 4.95114 3.55513C5.00114 3.54513 5.09003 3.52813 5.14003 3.52113C6.25114 3.36813 6.96892 4.01413 8.40559 5.30713L17.88 13.8351Z" stroke="#6FDAFE" stroke-width="1.5" stroke-linecap="round" stroke-linejoin="round"/>
<path d="M18.7778 6.5C20.0051 6.5 21 5.60457 21 4.5C21 3.39543 20.0051 2.5 18.7778 2.5C17.5505 2.5 16.5555 3.39543 16.5555 4.5C16.5555 5.60457 17.5505 6.5 18.7778 6.5Z" stroke="#6FDAFE" stroke-width="1.5" stroke-linecap="round" stroke-linejoin="round"/>
<path d="M11.5555 7.63281L17.3478 6.02881L15.3078 11.0288" stroke="#6FDAFE" stroke-width="1.5" stroke-linecap="round" stroke-linejoin="round"/>
<path d="M35.672 6.864L36.332 7.452C36.028 7.628 35.688 7.796 35.312 7.956C34.936 8.108 34.58 8.24 34.244 8.352C34.22 8.264 34.18 8.164 34.124 8.052C34.076 7.932 34.028 7.828 33.98 7.74C34.284 7.62 34.592 7.484 34.904 7.332C35.216 7.172 35.472 7.016 35.672 6.864ZM33.8 7.476L34.604 7.728V11.592H33.8V7.476ZM33.8 11.184H39.224V8.148H37.7V7.404H40.04V11.94H33.8V11.184ZM34.16 9.312H35.9V9.996H34.16V9.312ZM37.76 9.312H39.584V9.996H37.76V9.312ZM36.44 6.42H37.268V13.2H36.44V6.42ZM33.476 13.032H39.38V13.8H33.476V13.032ZM39.116 13.032H39.296L39.452 12.996L40.004 13.26C39.724 13.9 39.348 14.46 38.876 14.94C38.412 15.412 37.88 15.816 37.28 16.152C36.68 16.48 36.032 16.752 35.336 16.968C34.64 17.184 33.928 17.352 33.2 17.472C33.16 17.36 33.1 17.228 33.02 17.076C32.948 16.932 32.872 16.808 32.792 16.704C33.48 16.616 34.148 16.484 34.796 16.308C35.452 16.124 36.064 15.888 36.632 15.6C37.2 15.312 37.696 14.968 38.12 14.568C38.552 14.16 38.884 13.688 39.116 13.152V13.032ZM35.048 13.704C35.376 14.24 35.816 14.712 36.368 15.12C36.928 15.528 37.572 15.868 38.3 16.14C39.028 16.412 39.812 16.612 40.652 16.74C40.588 16.804 40.516 16.884 40.436 16.98C40.364 17.076 40.296 17.172 40.232 17.268C40.176 17.364 40.124 17.452 40.076 17.532C39.22 17.372 38.42 17.132 37.676 16.812C36.932 16.5 36.268 16.112 35.684 15.648C35.108 15.176 34.632 14.628 34.256 14.004L35.048 13.704ZM29.336 12.804C29.856 12.66 30.476 12.488 31.196 12.288C31.924 12.08 32.656 11.868 33.392 11.652L33.512 12.456C32.824 12.672 32.136 12.888 31.448 13.104C30.768 13.32 30.148 13.512 29.588 13.68L29.336 12.804ZM29.504 8.832H33.38V9.684H29.504V8.832ZM31.172 6.42H32.036V16.416C32.036 16.664 32.004 16.856 31.94 16.992C31.876 17.128 31.768 17.232 31.616 17.304C31.456 17.368 31.248 17.408 30.992 17.424C30.744 17.448 30.42 17.46 30.02 17.46C30.004 17.348 29.968 17.212 29.912 17.052C29.856 16.9 29.8 16.764 29.744 16.644C30.016 16.652 30.264 16.656 30.488 16.656C30.712 16.656 30.864 16.652 30.944 16.644C31.024 16.644 31.08 16.628 31.112 16.596C31.152 16.564 31.172 16.504 31.172 16.416V6.42ZM44.184 14.316H51.984V15.048H44.184V14.316ZM44.436 12.408H52.488V13.176H44.436V12.408ZM42.78 16.356H53.244V17.148H42.78V16.356ZM47.544 11.436H48.48V16.896H47.544V11.436ZM44.904 9.372V10.452H51.096V9.372H44.904ZM44.904 7.632V8.688H51.096V7.632H44.904ZM44.028 6.912H52.02V11.172H44.028V6.912ZM44.796 11.184L45.684 11.436C45.5 11.828 45.28 12.212 45.024 12.588C44.768 12.964 44.496 13.316 44.208 13.644C43.928 13.972 43.644 14.264 43.356 14.52C43.3 14.464 43.224 14.4 43.128 14.328C43.04 14.256 42.948 14.188 42.852 14.124C42.756 14.052 42.672 13.996 42.6 13.956C43.04 13.612 43.456 13.196 43.848 12.708C44.24 12.22 44.556 11.712 44.796 11.184Z" fill="#D4EDFD"/>
<path d="M30.3493 36.2102V35.3409L34.1845 29.2727H34.8152V30.6193H34.389L31.4913 35.2045V35.2727H36.6561V36.2102H30.3493ZM34.4572 38V35.946V35.5412V29.2727H35.4629V38H34.4572Z" fill="#999999"/>
</svg>
