<svg width="23" height="23" viewBox="0 0 23 23" fill="none" xmlns="http://www.w3.org/2000/svg">
<path d="M7.18784 11.8625C7.18784 11.5766 7.30143 11.3025 7.50362 11.1003C7.7058 10.8982 7.98002 10.7847 8.26596 10.7847H14.0159C14.3018 10.7847 14.5761 10.8982 14.7782 11.1003C14.9804 11.3025 15.094 11.5766 15.094 11.8625C15.094 12.1483 14.9804 12.4224 14.7782 12.6246C14.5761 12.8267 14.3018 12.9402 14.0159 12.9402H8.26596C7.98002 12.9402 7.7058 12.8267 7.50362 12.6246C7.30143 12.4224 7.18784 12.1483 7.18784 11.8625ZM5.75036 15.0958C5.46442 15.0958 5.1902 15.2094 4.98801 15.4115C4.78583 15.6136 4.67224 15.8878 4.67224 16.1736C4.67224 16.4595 4.78583 16.7336 4.98801 16.9357C5.1902 17.1378 5.46442 17.2514 5.75036 17.2514H11.5003C11.7862 17.2514 12.0605 17.1378 12.2626 16.9357C12.4648 16.7336 12.5784 16.4595 12.5784 16.1736C12.5784 15.8878 12.4648 15.6136 12.2626 15.4115C12.0605 15.2094 11.7862 15.0958 11.5003 15.0958H5.75036Z" fill="#59C0FC"/>
<path d="M18.6875 0C21.0651 0 23 1.9084 23 4.31115C23 5.72234 22.5141 7.08897 21.8744 8.36076C21.2376 9.62393 20.3967 10.8871 19.6003 12.0799L19.5845 12.1043C18.768 13.3301 17.9975 14.4883 17.4269 15.6193C16.8547 16.7531 16.5313 17.7663 16.5313 18.6888C16.5314 19.0612 16.6281 19.4273 16.8118 19.7512C16.9955 20.0752 17.2601 20.346 17.5797 20.5373C17.8992 20.7287 18.263 20.834 18.6354 20.843C19.0078 20.852 19.3761 20.7644 19.7046 20.5888C20.0331 20.4131 20.3104 20.1554 20.5096 19.8407C20.7088 19.526 20.823 19.1651 20.8412 18.7932C20.8594 18.4212 20.7808 18.0509 20.6132 17.7183C20.4457 17.3857 20.1948 17.1022 19.885 16.8954C19.6566 16.7327 19.5006 16.4874 19.4501 16.2116C19.3996 15.9358 19.4587 15.6512 19.6147 15.4182C19.7707 15.1852 20.0114 15.0221 20.2857 14.9636C20.56 14.9051 20.8463 14.9558 21.0838 15.1048C21.8528 15.6188 22.4362 16.3663 22.7477 17.2371C23.0592 18.1079 23.0823 19.0557 22.8138 19.9406C22.5452 20.8255 21.9991 21.6007 21.2561 22.1515C20.5131 22.7024 19.6126 22.9999 18.6875 23H4.31267C3.16894 23 2.07205 22.5458 1.2633 21.7373C0.45456 20.9288 0.000212885 19.8322 0.000212885 18.6888C0.000212885 16.4154 1.28101 14.1837 2.55463 12.2135C2.8565 11.7508 3.15502 11.2976 3.45018 10.854C4.13011 9.83518 4.77698 8.86229 5.30023 7.91097H3.6083C2.78031 7.91097 1.62314 7.71984 0.867017 6.78575C0.297464 6.08762 -0.00925675 5.21198 0.000212885 4.31115C0.000212885 3.16776 0.45456 2.07121 1.2633 1.26271C2.07205 0.454209 3.16894 0 4.31267 0H18.6875ZM18.6875 2.15558C18.1157 2.15558 17.5672 2.38268 17.1629 2.78693C16.7585 3.19118 16.5313 3.73946 16.5313 4.31115C16.5313 4.99519 16.8519 5.50965 17.4901 5.93789C17.6821 6.06652 17.8276 6.2534 17.9053 6.47099C17.9829 6.68857 17.9886 6.92534 17.9214 7.14639C17.8543 7.36744 17.7179 7.56107 17.5323 7.69873C17.3467 7.83638 17.1218 7.91079 16.8907 7.91097H7.71664C7.04534 9.35233 6.07647 10.8066 5.16798 12.1689C4.89198 12.5843 4.6203 12.9895 4.36586 13.3833C3.06206 15.3994 2.15644 17.1311 2.15644 18.6888C2.15644 19.2605 2.38362 19.8088 2.78799 20.2131C3.19236 20.6173 3.74081 20.8444 4.31267 20.8444H14.9515C14.5735 20.1889 14.3747 19.4455 14.3751 18.6888C14.3751 17.282 14.861 15.9182 15.5021 14.6479C16.136 13.3919 16.9726 12.1359 17.7661 10.946L17.7905 10.9087C18.607 9.68285 19.3761 8.52602 19.9482 7.39075C20.5203 6.25548 20.8438 5.23949 20.8438 4.31115C20.8438 3.1069 19.8821 2.15558 18.6875 2.15558ZM4.31267 2.15558C3.74081 2.15558 3.19236 2.38268 2.78799 2.78693C2.38362 3.19118 2.15644 3.73946 2.15644 4.31115C2.15644 4.77245 2.30019 5.12883 2.54456 5.42918C2.684 5.60162 3.01175 5.75539 3.6083 5.75539H14.6396C14.4603 5.29519 14.3705 4.80501 14.3751 4.31115C14.3751 3.52652 14.585 2.78932 14.9515 2.15558H4.31267Z" fill="#59C0FC"/>
</svg>
