<svg width="24" height="24" viewBox="0 0 24 24" fill="none" xmlns="http://www.w3.org/2000/svg">
<path d="M12.8201 4.1061C12.5861 3.6891 12.1491 3.5051 11.7601 3.5001C11.3701 3.4951 10.9221 3.6701 10.6921 4.1001L10.5281 4.4071C8.04309 9.04438 6.03739 13.9229 4.54209 18.9671C4.38409 19.5041 4.68309 19.9511 5.04009 20.1661C5.39609 20.3791 5.90009 20.4301 6.33109 20.1581L10.9631 17.2331C11.5371 16.8701 12.3511 16.8751 12.9531 17.2621L17.6801 20.3021C18.1051 20.5751 18.6071 20.5461 18.9701 20.3331C19.3401 20.1161 19.6221 19.6601 19.4491 19.1261C17.7821 14.0247 15.6202 9.09858 12.9941 4.4181L12.8201 4.1061Z" fill="#F24822"/>
</svg>
