<svg width="22" height="22" viewBox="0 0 22 22" fill="none" xmlns="http://www.w3.org/2000/svg">
<path d="M12.463 16H9.53695C9.38931 15.9999 9.24689 15.9454 9.13693 15.8469C9.02697 15.7483 8.95719 15.6127 8.94095 15.466L8.07395 7.666C8.06468 7.58218 8.07317 7.49735 8.09889 7.41703C8.12461 7.33672 8.16697 7.26273 8.2232 7.19988C8.27944 7.13704 8.34829 7.08676 8.42527 7.05232C8.50225 7.01788 8.58562 7.00005 8.66995 7H13.33C13.4143 7.00005 13.4977 7.01788 13.5746 7.05232C13.6516 7.08676 13.7205 7.13704 13.7767 7.19988C13.8329 7.26273 13.8753 7.33672 13.901 7.41703C13.9267 7.49735 13.9352 7.58218 13.926 7.666L13.059 15.466C13.0427 15.6127 12.9729 15.7483 12.863 15.8469C12.753 15.9454 12.6106 15.9999 12.463 16Z" stroke="white" stroke-width="1.5" stroke-linecap="round"/>
<path d="M3.5 6C4.16304 6 4.79893 5.73661 5.26777 5.26777C5.73661 4.79893 6 4.16304 6 3.5C6 2.83696 5.73661 2.20107 5.26777 1.73223C4.79893 1.26339 4.16304 1 3.5 1C2.83696 1 2.20107 1.26339 1.73223 1.73223C1.26339 2.20107 1 2.83696 1 3.5C1 4.16304 1.26339 4.79893 1.73223 5.26777C2.20107 5.73661 2.83696 6 3.5 6Z" stroke="white" stroke-width="1.5" stroke-miterlimit="1.5" stroke-linecap="round" stroke-linejoin="round"/>
<path d="M3.5 3.5L8 7M3.5 18.5L8.5 14.5M18.5 3.5L14 7M13.5 14.5L14.75 15.5" stroke="white" stroke-width="1.5" stroke-linecap="round" stroke-linejoin="round"/>
<path d="M3.5 21C4.16304 21 4.79893 20.7366 5.26777 20.2678C5.73661 19.7989 6 19.163 6 18.5C6 17.837 5.73661 17.2011 5.26777 16.7322C4.79893 16.2634 4.16304 16 3.5 16C2.83696 16 2.20107 16.2634 1.73223 16.7322C1.26339 17.2011 1 17.837 1 18.5C1 19.163 1.26339 19.7989 1.73223 20.2678C2.20107 20.7366 2.83696 21 3.5 21ZM18.5 6C19.163 6 19.7989 5.73661 20.2678 5.26777C20.7366 4.79893 21 4.16304 21 3.5C21 2.83696 20.7366 2.20107 20.2678 1.73223C19.7989 1.26339 19.163 1 18.5 1C17.837 1 17.2011 1.26339 16.7322 1.73223C16.2634 2.20107 16 2.83696 16 3.5C16 4.16304 16.2634 4.79893 16.7322 5.26777C17.2011 5.73661 17.837 6 18.5 6Z" stroke="white" stroke-width="1.5" stroke-miterlimit="1.5" stroke-linecap="round" stroke-linejoin="round"/>
<path d="M18.5 15V21M18.5 21L16 18.5M18.5 21L21 18.5" stroke="white" stroke-width="1.5" stroke-linecap="round" stroke-linejoin="round"/>
</svg>
