<svg width="21" height="21" viewBox="0 0 21 21" fill="none" xmlns="http://www.w3.org/2000/svg">
<path d="M4.5 4.5L8 8M16.5 16.5L13 13M16.5 4.5L13 8M4.5 16.5L8 13" stroke="white" stroke-width="2" stroke-linecap="round" stroke-linejoin="round"/>
<path d="M8 8H13V13H8V8Z" fill="white" stroke="white" stroke-width="2" stroke-linecap="round" stroke-linejoin="round"/>
<path d="M16.5 8C17.1922 8 17.8689 7.79473 18.4445 7.41015C19.0201 7.02556 19.4687 6.47894 19.7336 5.83939C19.9985 5.19985 20.0678 4.49612 19.9328 3.81719C19.7977 3.13825 19.4644 2.51461 18.9749 2.02513C18.4854 1.53564 17.8618 1.2023 17.1828 1.06725C16.5039 0.932205 15.8002 1.00152 15.1606 1.26642C14.5211 1.53133 13.9744 1.97993 13.5899 2.55551C13.2053 3.13108 13 3.80777 13 4.5M16.5 13C17.1922 13 17.8689 13.2053 18.4445 13.5899C19.0201 13.9744 19.4687 14.5211 19.7336 15.1606C19.9985 15.8002 20.0678 16.5039 19.9328 17.1828C19.7977 17.8618 19.4644 18.4854 18.9749 18.9749C18.4854 19.4644 17.8618 19.7977 17.1828 19.9328C16.5039 20.0678 15.8002 19.9985 15.1606 19.7336C14.5211 19.4687 13.9744 19.0201 13.5899 18.4445C13.2053 17.8689 13 17.1922 13 16.5M4.5 13C3.80777 13 3.13108 13.2053 2.55551 13.5899C1.97993 13.9744 1.53133 14.5211 1.26642 15.1606C1.00152 15.8002 0.932205 16.5039 1.06725 17.1828C1.2023 17.8618 1.53564 18.4854 2.02513 18.9749C2.51461 19.4644 3.13825 19.7977 3.81719 19.9328C4.49612 20.0678 5.19985 19.9985 5.83939 19.7336C6.47894 19.4687 7.02556 19.0201 7.41015 18.4445C7.79473 17.8689 8 17.1922 8 16.5M4.5 8C3.80777 8 3.13108 7.79473 2.55551 7.41015C1.97993 7.02556 1.53133 6.47894 1.26642 5.83939C1.00152 5.19985 0.932205 4.49612 1.06725 3.81719C1.2023 3.13825 1.53564 2.51461 2.02513 2.02513C2.51461 1.53564 3.13825 1.2023 3.81719 1.06725C4.49612 0.932205 5.19985 1.00152 5.83939 1.26642C6.47894 1.53133 7.02556 1.97993 7.41015 2.55551C7.79473 3.13108 8 3.80777 8 4.5" stroke="white" stroke-width="2" stroke-linecap="round" stroke-linejoin="round"/>
</svg>
