<svg width="16" height="17" viewBox="0 0 16 17" fill="none" xmlns="http://www.w3.org/2000/svg">
<path d="M3.16002 10.5801C2.22902 10.5801 1.71302 10.0871 1.66602 9.44809H2.31902C2.38402 9.79409 2.71502 10.0311 3.21002 10.0311C3.73402 10.0311 4.04002 9.78509 4.04002 9.41109C4.04002 9.10809 3.83702 8.94409 3.40302 8.83909L2.74702 8.67509C2.13702 8.52809 1.76902 8.16509 1.76902 7.59709C1.76902 6.89109 2.36602 6.41309 3.21302 6.41309C4.06602 6.41309 4.59902 6.88809 4.64902 7.50009H4.00402C3.94002 7.18009 3.65202 6.95809 3.20702 6.95809C2.73502 6.95809 2.43702 7.20409 2.43702 7.55809C2.43702 7.81909 2.63302 7.99509 2.99002 8.08009L3.64402 8.24109C4.31702 8.40509 4.70402 8.72809 4.70402 9.35109C4.70402 10.0871 4.13002 10.5801 3.16002 10.5801ZM6.58702 7.07009V10.5001H5.92202V7.07009H4.75302V6.50009H7.75902V7.06809H6.58702V7.07009Z" fill="white"/>
<path fill-rule="evenodd" clip-rule="evenodd" d="M11.045 8.22985V8.77385C11.045 9.90485 10.409 10.5789 9.38397 10.5789C8.35797 10.5789 7.71997 9.90485 7.71997 8.77385V8.22985C7.71997 7.09385 8.35797 6.42285 9.38397 6.42285C10.41 6.42285 11.044 7.09685 11.044 8.22985H11.045ZM10.371 8.77685V8.22385C10.371 7.39685 9.94897 6.98985 9.38397 6.98985C8.81197 6.98985 8.39397 7.39685 8.39397 8.22385V8.77685C8.39397 9.60685 8.81197 10.0139 9.38397 10.0139C9.94897 10.0139 10.371 9.60585 10.371 8.77685ZM11.521 6.50085H13.056C13.876 6.50085 14.372 7.05085 14.372 7.79285C14.372 8.53985 13.871 9.08185 13.051 9.08185H12.186V10.4999H11.521V6.50085ZM12.957 8.53685C13.42 8.53685 13.692 8.26485 13.692 7.79285C13.692 7.32085 13.42 7.05185 12.957 7.05185H12.183V8.53685H12.957Z" fill="white"/>
<path fill-rule="evenodd" clip-rule="evenodd" d="M4.893 0.5C4.76065 0.500028 4.63371 0.552531 4.54 0.646L0.146 5.04C0.052531 5.13371 2.8119e-05 5.26065 0 5.393L0 11.607C2.8119e-05 11.7394 0.052531 11.8663 0.146 11.96L4.54 16.354C4.63371 16.4475 4.76065 16.5 4.893 16.5H11.107C11.2394 16.5 11.3663 16.4475 11.46 16.354L15.854 11.96C15.9475 11.8663 16 11.7394 16 11.607V5.393C16 5.26065 15.9475 5.13371 15.854 5.04L11.46 0.646C11.3663 0.552531 11.2394 0.500028 11.107 0.5H4.893ZM1 5.6L5.1 1.5H10.9L15 5.6V11.4L10.9 15.5H5.1L1 11.4V5.6Z" fill="white"/>
</svg>
