<?xml version="1.0" encoding="UTF-8" standalone="no"?>
<svg width="100" height="100" viewBox="0 0 20 20" xmlns="http://www.w3.org/2000/svg">
  <path d="M12 1.5a10.49 10.49 0 0 1 8.71 4.634c-.541.133-1.082.254-1.623.362l-.81.152-.145-.167a8.283 8.283 0 0 0-2.386-1.833l.1.204c.287.619.538 1.308.745 2.052-.483.064-.966.117-1.449.16l-.723.056-.019-.07c-.52-1.903-1.33-3.166-2.25-3.29L12 3.75c-.993 0-1.873 1.326-2.419 3.369a34.497 34.497 0 0 1-2.172-.212l.076-.269c.216-.725.474-1.393.768-1.991l-.237.127a8.286 8.286 0 0 0-2.294 1.873c-.81-.142-1.62-.313-2.43-.511l.077-.117L3.37 6A10.523 10.523 0 0 1 12 1.5zm11 5v11q-5.5-1.145-11-1.145T1 17.5v-11q5.5 1.703 11 1.703T23 6.5zm-3.712 2.66a1.57 1.57 0 0 0-1.568 1.568 1.57 1.57 0 0 0 1.568 1.568 1.57 1.57 0 0 0 1.568-1.568 1.57 1.57 0 0 0-1.568-1.568zM4.4 10.976c0-1.072.816-1.72 1.832-1.72 1.056 0 1.832.704 1.832 1.688 0 .624-.304.928-.592 1.112.312.216.656.56.656 1.24 0 1.192-.896 1.752-1.896 1.752-.944 0-1.896-.504-1.896-1.784h1.312c0 .4.256.6.584.6.344 0 .584-.2.584-.608 0-.344-.256-.6-.608-.6h-.184V11.52h.184c.392 0 .544-.28.544-.536 0-.36-.248-.544-.52-.544a.508.508 0 0 0-.52.536H4.4zm10.72-1.72c-.944 0-1.832.6-1.832 1.776v2.24c0 1.176.888 1.776 1.832 1.776.944 0 1.832-.6 1.832-1.776v-2.24c0-1.176-.888-1.776-1.832-1.776zm-4.728.048h1.44l-1.128 2.232c.112-.04.232-.04.32-.04.696 0 1.52.592 1.52 1.72 0 1.208-.872 1.832-1.896 1.832s-1.896-.624-1.896-1.832c0-.438.157-.849.348-1.253l1.292-2.659zm8.896.904a.519.519 0 1 1 0 1.04.519.519 0 1 1 0-1.04zm-4.168.232c.28 0 .52.192.52.592v2.248c0 .4-.24.584-.52.584s-.52-.184-.52-.584v-2.248c0-.4.24-.592.52-.592zm-4.472 2.128c.32 0 .584.224.584.648 0 .424-.264.648-.584.648-.32 0-.584-.224-.584-.648 0-.424.264-.648.584-.648zm5.81 4.975a53.206 53.206 0 0 0-2.192-.14l-.085.263c-.547 1.591-1.322 2.584-2.181 2.584-.905 0-1.716-1.102-2.267-2.847-.73.032-1.461.078-2.192.142.204.654.443 1.26.713 1.807a8.263 8.263 0 0 1-2.225-1.66c-.87.098-1.74.218-2.61.36a10.487 10.487 0 0 0 8.58 4.448c3.546 0 6.68-1.757 8.581-4.448-.87-.142-1.74-.262-2.61-.359a8.302 8.302 0 0 1-2.222 1.66 12.58 12.58 0 0 0 .71-1.81z" fill="black"/>
</svg>
