<svg xmlns="http://www.w3.org/2000/svg" viewBox="0 0 32 32" width="24" height="24">
  <g style="mix-blend-mode:passthrough">
    <path d="M9 6a1 1 0 0 1 1-1h4a1 1 0 0 1 1 1v4a1 1 0 0 1-1 1h-4a1 1 0 0 1-1-1v-.5l-2 1v-5l2 1V6z" fill-rule="evenodd"></path>
    <g style="mix-blend-mode:passthrough">
      <path d="M12.955 3.055A6.986 6.986 0 0 0 8 1a6.99 6.99 0 0 0-5.6 2.8l1.523.508A5.486 5.486 0 0 1 8 2.5c1.491 0 2.88.597 3.895 1.616L9.952 6.058H15V1.01l-2.045 2.045z"
        fill-rule="evenodd"
        transform="rotate(-90 8 8)"
        style="mix-blend-mode:passthrough"></path>
      <path d="M24.156 3.055A6.986 6.986 0 0 0 19.2 1a6.99 6.99 0 0 0-5.6 2.8l1.523.508A5.486 5.486 0 0 1 19.201 2.5c1.49 0 2.88.597 3.894 1.616l-1.943 1.942h5.049V1.01l-2.045 2.045z"
        fill-rule="evenodd"
        transform="matrix(0 1 1 0 0 -11.2)"
        style="mix-blend-mode:passthrough"></path>
    </g>
  </g>
</svg>