<?xml version="1.0" encoding="UTF-8" standalone="no"?>
<svg width="100" height="100" viewBox="0 0 20 20" xmlns="http://www.w3.org/2000/svg">
  <path d="M8.934 0a1 1 0 0 1 .857.486l.709 1.18h2a1.5 1.5 0 0 1 1.5 1.5V8.5a1.5 1.5 0 0 1-1.5 1.5h-11A1.5 1.5 0 0 1 0 8.5V3.167a1.5 1.5 0 0 1 1.5-1.5h2.352L4.543.493A1 1 0 0 1 5.405 0h3.529zM7.167 2.167a3.167 3.167 0 1 0 0 6.333 3.167 3.167 0 0 0 0-6.333zm0 .833a2.333 2.333 0 1 1 0 4.667 2.333 2.333 0 0 1 0-4.667zM2.333.667a.5.5 0 0 1 .5.5v.166h-1.5v-.166a.5.5 0 0 1 .5-.5h.5z" fill="black"/>
</svg>
