<?xml version="1.0" encoding="UTF-8"?>
<svg xmlns="http://www.w3.org/2000/svg"
     width="24"
     height="24"
     viewBox="0 0 14.218 16.762"
     fill="#4E4E4E">
  <path
    d="M7.114 11.26H6.33v1.54H4.496v-1.54H.8V9.65l2.758-6.51h1.834L2.634 9.65h1.862V7.382H6.33V9.65h.784zM11.818 12.912c-2.343 0-3.514-1.283-3.514-3.85V6.85c0-2.567 1.18-3.85 3.542-3.85 1.055 0 1.895.278 2.52.833.625.555.938 1.323.938 2.303v.098H13.47v-.098c0-.439-.142-.803-.427-1.092-.285-.29-.688-.434-1.211-.434-.588 0-1.015.182-1.281.546-.266.364-.399.961-.399 1.792v2.086c0 .793.142 1.365.427 1.715.285.35.726.525 1.323.525.56 0 .968-.145 1.225-.434.257-.29.385-.728.385-1.316v-.462h-1.708V7.55h3.5v1.652c0 2.473-1.162 3.71-3.486 3.71z"></path>
</svg>