<svg width="9" height="16" viewBox="0 0 9 16" fill="none" xmlns="http://www.w3.org/2000/svg">
<path d="M6.5 1V0.31C6.50134 0.270598 6.49489 0.231319 6.48104 0.194409C6.46718 0.1575 6.44619 0.123682 6.41925 0.0948918C6.39232 0.0661011 6.35998 0.0429014 6.32407 0.0266192C6.28817 0.010337 6.2494 0.00129153 6.21 0H2.79C2.7506 0.00129153 2.71183 0.010337 2.67593 0.0266192C2.64002 0.0429014 2.60768 0.0661011 2.58075 0.0948918C2.55381 0.123682 2.53282 0.1575 2.51896 0.194409C2.50511 0.231319 2.49866 0.270598 2.5 0.31V1H0.5C0.365102 1.01116 0.239185 1.07212 0.146761 1.17102C0.0543379 1.26991 0.0020227 1.39966 0 1.535V15.535C0.00887293 15.6615 0.0654436 15.7798 0.158267 15.8661C0.251091 15.9525 0.373239 16.0003 0.5 16H8.5C8.62757 16.0002 8.7504 15.9517 8.84336 15.8643C8.93631 15.7769 8.99235 15.6573 9 15.53V1.53C8.99675 1.39553 8.94389 1.26701 8.85159 1.16916C8.75928 1.07132 8.63406 1.01107 8.5 1H6.5ZM5.63 11.72C5.70095 11.8626 5.71236 12.0275 5.66172 12.1784C5.61109 12.3294 5.50255 12.4541 5.36 12.525C5.21745 12.5959 5.05255 12.6074 4.90158 12.5567C4.75061 12.5061 4.62595 12.3976 4.555 12.255L1.825 6.78L4.825 7.28L3.68 5.28C3.6406 5.21171 3.61504 5.13633 3.60478 5.05817C3.59451 4.98 3.59974 4.90058 3.62017 4.82444C3.6406 4.74829 3.67583 4.67692 3.72384 4.61439C3.77185 4.55186 3.83171 4.4994 3.9 4.46C3.96829 4.4206 4.04367 4.39504 4.12183 4.38478C4.2 4.37451 4.27942 4.37974 4.35556 4.40017C4.43171 4.4206 4.50308 4.45583 4.56561 4.50384C4.62814 4.55185 4.6806 4.61171 4.72 4.68L7.135 8.865L3.95 8.35L5.63 11.72Z" fill="#6FDAFE"/>
</svg>
