<svg width="60" height="60" viewBox="0 0 60 60" fill="none" xmlns="http://www.w3.org/2000/svg">
<path fill-rule="evenodd" clip-rule="evenodd" d="M13.9535 10C13.9535 8.02219 14.4854 6.08879 15.482 4.4443C16.4786 2.79981 17.8951 1.51809 19.5524 0.761209C21.2097 0.00433284 23.0333 -0.1937 24.7927 0.192152C26.552 0.578004 28.1681 1.53041 29.4365 2.92894C30.705 4.32746 31.5688 6.10929 31.9187 8.0491C32.2687 9.98891 32.0891 11.9996 31.4026 13.8268C30.7162 15.6541 29.5537 17.2159 28.0621 18.3147C26.5706 19.4135 24.8171 20 23.0233 20H4.88372C4.32862 20 3.79625 19.7569 3.40373 19.3241C3.01121 18.8913 2.7907 18.3043 2.7907 17.6923C2.7907 17.0803 3.01121 16.4933 3.40373 16.0605C3.79625 15.6277 4.32862 15.3846 4.88372 15.3846H23.0233C23.9892 15.3846 24.9334 15.0688 25.7365 14.4771C26.5396 13.8855 27.1656 13.0445 27.5352 12.0606C27.9049 11.0767 28.0016 9.99403 27.8131 8.94952C27.6247 7.905 27.1596 6.94556 26.4766 6.19251C25.7936 5.43945 24.9234 4.92662 23.976 4.71885C23.0287 4.51109 22.0467 4.61772 21.1543 5.02527C20.262 5.43282 19.4992 6.12298 18.9626 7.00847C18.426 7.89397 18.1395 8.93503 18.1395 10V11.0985C18.1395 11.7105 17.919 12.2975 17.5265 12.7302C17.134 13.163 16.6016 13.4062 16.0465 13.4062C15.4914 13.4062 14.959 13.163 14.5665 12.7302C14.174 12.2975 13.9535 11.7105 13.9535 11.0985V10ZM36.2791 16.1538C36.2791 13.5675 36.9747 11.0392 38.2779 8.8887C39.5812 6.73821 41.4335 5.06211 43.6007 4.07235C45.7679 3.08259 48.1527 2.82362 50.4534 3.3282C52.7541 3.83277 54.8674 5.07823 56.5261 6.90707C58.1849 8.73591 59.3145 11.066 59.7721 13.6027C60.2297 16.1393 59.9949 18.7687 59.0972 21.1582C58.1995 23.5477 56.6793 25.59 54.7289 27.0269C52.7784 28.4638 50.4853 29.2308 48.1395 29.2308H2.09302C1.53792 29.2308 1.00555 28.9876 0.613032 28.5549C0.220514 28.1221 0 27.5351 0 26.9231C0 26.311 0.220514 25.7241 0.613032 25.2913C1.00555 24.8585 1.53792 24.6154 2.09302 24.6154H48.1395C49.6574 24.6154 51.1412 24.1191 52.4032 23.1894C53.6653 22.2596 54.6489 20.9381 55.2298 19.3919C55.8106 17.8458 55.9626 16.1445 55.6665 14.5031C55.3704 12.8617 54.6395 11.354 53.5662 10.1706C52.4929 8.98727 51.1254 8.18139 49.6367 7.8549C48.148 7.52841 46.605 7.69597 45.2027 8.33641C43.8003 8.97684 42.6018 10.0614 41.7585 11.4529C40.9152 12.8444 40.4651 14.4803 40.4651 16.1538V17.6923C40.4651 18.3043 40.2446 18.8913 39.8521 19.3241C39.4596 19.7569 38.9272 20 38.3721 20C37.817 20 37.2846 19.7569 36.8921 19.3241C36.4996 18.8913 36.2791 18.3043 36.2791 17.6923V16.1538ZM5.58139 36.1538C5.58139 35.5418 5.80191 34.9548 6.19443 34.5221C6.58694 34.0893 7.11931 33.8462 7.67442 33.8462H48.1395C50.4853 33.8462 52.7784 34.6131 54.7289 36.05C56.6793 37.4869 58.1995 39.5293 59.0972 41.9188C59.9949 44.3082 60.2297 46.9376 59.7721 49.4743C59.3145 52.0109 58.1849 54.341 56.5261 56.1698C54.8674 57.9987 52.7541 59.2441 50.4534 59.7487C48.1527 60.2533 45.7679 59.9943 43.6007 59.0046C41.4335 58.0148 39.5812 56.3387 38.2779 54.1882C36.9747 52.0377 36.2791 49.5094 36.2791 46.9231V45.3846C36.2791 44.7726 36.4996 44.1856 36.8921 43.7528C37.2846 43.32 37.817 43.0769 38.3721 43.0769C38.9272 43.0769 39.4596 43.32 39.8521 43.7528C40.2446 44.1856 40.4651 44.7726 40.4651 45.3846V46.9231C40.4651 48.5966 40.9152 50.2326 41.7585 51.6241C42.6018 53.0155 43.8003 54.1001 45.2027 54.7405C46.605 55.3809 48.148 55.5485 49.6367 55.222C51.1254 54.8955 52.4929 54.0896 53.5662 52.9063C54.6395 51.7229 55.3704 50.2152 55.6665 48.5738C55.9626 46.9325 55.8106 45.2311 55.2298 43.685C54.6489 42.1388 53.6653 40.8173 52.4032 39.8876C51.1412 38.9578 49.6574 38.4615 48.1395 38.4615H7.67442C7.11931 38.4615 6.58694 38.2184 6.19443 37.7856C5.80191 37.3529 5.58139 36.7659 5.58139 36.1538Z" fill="#6FDAFE"/>
</svg>
