<svg width="23" height="23" viewBox="0 0 23 23" fill="none" xmlns="http://www.w3.org/2000/svg">
<path d="M1.4913 20.7V13.8C1.4913 11.36 2.54578 9.01995 4.42278 7.29462C6.29977 5.56928 8.84553 4.6 11.5 4.6C14.1545 4.6 16.7002 5.56928 18.5772 7.29462C20.4542 9.01995 21.5087 11.36 21.5087 13.8V20.7H22.7598V23H0.240209V20.7H1.4913ZM3.99347 13.8H6.49565C6.49565 12.58 7.02289 11.41 7.96139 10.5473C8.89989 9.68464 10.1728 9.2 11.5 9.2V6.9C9.50915 6.9 7.59983 7.62696 6.19208 8.92096C4.78434 10.215 3.99347 11.97 3.99347 13.8ZM10.2489 0H12.7511V3.45H10.2489V0ZM21.231 3.2292L23 4.8553L20.3477 7.29445L18.5774 5.66835L21.231 3.2292ZM0 4.8553L1.76904 3.2292L4.4226 5.6672L2.65481 7.2956L0 4.8553Z" fill="#9F9F9F"/>
</svg>
