<svg width="23" height="23" viewBox="0 0 23 23" fill="none" xmlns="http://www.w3.org/2000/svg">
<path fill-rule="evenodd" clip-rule="evenodd" d="M5.0814 2.37931H17.9186V0H20.0581V2.37931H23V23H0V2.37931H2.94186V0H5.0814V2.37931ZM9.07056 7.68253L15.1725 5.26832L15.9674 7.23099L13.325 8.27789L13.5743 10.911L11.4454 11.1077L11.2529 9.09637L8.87265 10.0386L7.87884 10.432L7.48088 9.45062L6.66358 7.43085L8.65014 6.64515L9.07056 7.68253ZM9.89535 15.5977H3.47674V14.0115H9.89535V15.5977ZM3.47674 19.8276H9.89535V18.2414H3.47674V19.8276ZM19.5233 15.5977H13.1047V14.0115H19.5233V15.5977ZM13.1047 19.8276H19.5233V18.2414H13.1047V19.8276Z" fill="#59C0FC"/>
</svg>
