<?xml version="1.0" standalone="no"?><!DOCTYPE svg PUBLIC "-//W3C//DTD SVG 1.1//EN" "http://www.w3.org/Graphics/SVG/1.1/DTD/svg11.dtd"><svg t="1766654535020" class="icon" viewBox="0 0 1024 1024" version="1.1" xmlns="http://www.w3.org/2000/svg" p-id="44683" xmlns:xlink="http://www.w3.org/1999/xlink" width="128" height="128"><path d="M611.84 225.28V102.4a38.4 38.4 0 0 0-38.4-38.4H450.56a38.4 38.4 0 1 0 0 76.8h30.208L361.984 259.584a38.4 38.4 0 0 0 54.3232 54.272l118.784-118.784v30.208a38.4 38.4 0 0 0 76.8 0z m-220.16 494.08H266.24a38.4 38.4 0 0 0-38.4 38.4V921.6c0 21.1968 17.2032 38.4 38.4 38.4H921.6a38.4 38.4 0 0 0 38.4-38.4V266.24a38.4 38.4 0 0 0-38.4-38.4h-163.84a38.4 38.4 0 0 0-38.4 38.4v125.44H593.92a38.4 38.4 0 0 0-38.4 38.4v125.44H430.08a38.4 38.4 0 0 0-38.4 38.4v125.44z m-87.04 76.8H430.08a38.4 38.4 0 0 0 38.4-38.4v-125.44h125.44a38.4 38.4 0 0 0 38.4-38.4V468.48h125.44a38.4 38.4 0 0 0 38.4-38.4V304.64h87.04v578.56H304.64v-87.04z m20.48-407.04a38.4 38.4 0 0 1-11.264 27.136l-118.784 118.784h30.208a38.4 38.4 0 0 1 0 76.8H102.4a38.4 38.4 0 0 1-38.4-38.4V450.56a38.4 38.4 0 1 1 76.8 0v30.208l118.784-118.784a38.4 38.4 0 0 1 65.536 27.136z" p-id="44684" fill="#6FDAFE"></path></svg>