<?xml version="1.0" standalone="no"?><!DOCTYPE svg PUBLIC "-//W3C//DTD SVG 1.1//EN" "http://www.w3.org/Graphics/SVG/1.1/DTD/svg11.dtd"><svg t="1766653291244" class="icon" viewBox="0 0 1024 1024" version="1.1" xmlns="http://www.w3.org/2000/svg" p-id="21708" xmlns:xlink="http://www.w3.org/1999/xlink" width="128" height="128"><path d="M149.333333 85.333333a42.666667 42.666667 0 0 1 42.666667 42.666667v768a42.666667 42.666667 0 1 1-85.333333 0V128a42.666667 42.666667 0 0 1 42.666666-42.666667zM481.706667 140.501333a42.666667 42.666667 0 0 1 60.373333 0l128.085333 128a42.666667 42.666667 0 1 1-60.330666 60.330667l-97.92-97.834667-97.749334 97.664a42.666667 42.666667 0 1 1-60.330666-60.373333l127.914666-127.786667zM353.834667 695.168a42.666667 42.666667 0 0 1 60.330666 0l97.92 97.834667 97.749334-97.664a42.666667 42.666667 0 1 1 60.330666 60.373333l-127.914666 127.786667a42.666667 42.666667 0 0 1-60.288 0l-128.128-128a42.666667 42.666667 0 0 1 0-60.330667z" p-id="21709" fill="#6FDAFE"></path><path d="M512 128a42.666667 42.666667 0 0 1 42.666667 42.666667v682.666666a42.666667 42.666667 0 1 1-85.333334 0V170.666667a42.666667 42.666667 0 0 1 42.666667-42.666667zM874.666667 85.333333a42.666667 42.666667 0 0 1 42.666666 42.666667v768a42.666667 42.666667 0 1 1-85.333333 0V128a42.666667 42.666667 0 0 1 42.666667-42.666667z" p-id="21710" fill="#6FDAFE"></path></svg>