<?xml version="1.0" standalone="no"?><!DOCTYPE svg PUBLIC "-//W3C//DTD SVG 1.1//EN" "http://www.w3.org/Graphics/SVG/1.1/DTD/svg11.dtd"><svg t="1766740553071" class="icon" viewBox="0 0 1024 1024" version="1.1" xmlns="http://www.w3.org/2000/svg" p-id="8267" xmlns:xlink="http://www.w3.org/1999/xlink" width="128" height="128"><path d="M512 556c24.3 0 44-19.7 44-44 0-7.1-1.8-13.7-4.8-19.6L909 305.5C834.4 162.3 684.7 64.4 512 64.4V468c-24.3 0-44 19.7-44 44s19.7 44 44 44z m174.2-362.5c14.3 0 26 11.6 26 26 0 14.3-11.6 26-26 26-14.3 0-26-11.6-26-26s11.7-26 26-26z" fill="#ffffff" p-id="8268"></path><path d="M472.6 267.8v-29.9C338.4 257.1 235 372.7 235 512c0 152.7 124.3 277 277 277s277-124.3 277-277c0-31.9-5.5-62.6-15.5-91.2L747 434.7c8 24.4 12.4 50.3 12.4 77.3 0 136.4-111 247.4-247.4 247.4S264.6 648.4 264.6 512c0-123 90.2-225.3 208-244.2z" fill="#ffffff" p-id="8269"></path><path d="M925.8 341.3l-35.2 18.4c19 47.1 29.6 98.5 29.6 152.3 0 225-183.1 408.1-408.1 408.1C287 920.1 103.9 737 103.9 512c0-211.7 162.1-386.3 368.7-406.2V66.3C243.9 86.3 64.4 278.1 64.4 512c0 247.2 200.4 447.6 447.6 447.6 247.2 0 447.6-200.4 447.6-447.6 0-60.5-12.1-118.1-33.8-170.7z" fill="#ffffff" p-id="8270"></path></svg>