<?xml version="1.0" standalone="no"?><!DOCTYPE svg PUBLIC "-//W3C//DTD SVG 1.1//EN" "http://www.w3.org/Graphics/SVG/1.1/DTD/svg11.dtd"><svg t="1766740633773" class="icon" viewBox="0 0 1194 1024" version="1.1" xmlns="http://www.w3.org/2000/svg" p-id="10444" xmlns:xlink="http://www.w3.org/1999/xlink" width="149.25" height="128"><path d="M959.739747 1003.008006H114.08997A113.57797 113.57797 0 0 1 0 890.198035v-8.703997l116.223969-286.719925a68.095982 68.095982 0 0 1 63.486984-42.579989h61.609983v90.366977h-46.078987L92.159976 896.598034c2.815999 9.385998 11.604997 16.212996 21.929994 16.212995h845.649777c10.239997 0 18.773995-6.655998 21.759994-15.786996l-110.761971-254.889932-47.102987 0.342-0.683-90.281977 107.689972-0.853999 143.189962 329.555913v9.386997c0 62.122984-51.199987 112.72497-114.09097 112.724971zM515.412864 551.426125l-22.783994-30.207992a1956.686484 1956.686484 0 0 1-85.674977-124.927967c-59.476984-94.719975-88.404977-161.790957-88.404977-204.969946 0-51.199987 20.735995-99.156974 58.367985-135.252965A201.982947 201.982947 0 0 1 517.715863 0.00327c53.161986 0 103.166973 19.882995 140.799963 56.063985 37.54599 36.09599 58.281985 84.138978 58.281985 135.252965 0 43.263989-29.610992 110.420971-90.623976 205.225945a1955.491484 1955.491484 0 0 1-87.721977 124.927968l-23.039994 29.865992zM398.163895 264.2802c0 14.335996 8.703998 51.284986 67.412982 138.239964 18.516995 27.476993 37.20499 52.649986 50.516987 70.057981 13.738996-17.492995 33.023991-42.836989 52.138986-70.569981 59.903984-86.613977 68.863982-123.477967 68.863982-137.727964 0-58.879984-53.589986-106.665972-119.466968-106.665972S398.163895 205.400216 398.163895 264.2802z" fill="#ffffff" p-id="10445"></path><path d="M851.452775 288.430194L465.576877 668.502094l-67.412982 197.971948 205.737946-64.767983 382.291899-379.9019L851.367776 288.600194z m80.127979-77.31298l134.654965 133.204965 83.711978-82.772978s92.842976-82.857978 10.922997-154.879959c-72.789981-63.059983-123.732967-1.791-140.116963 14.421996-16.383996 16.212996-89.172976 90.025976-89.172977 90.025976z" fill="#ffffff" p-id="10446"></path></svg>