<?xml version="1.0" standalone="no"?><!DOCTYPE svg PUBLIC "-//W3C//DTD SVG 1.1//EN" "http://www.w3.org/Graphics/SVG/1.1/DTD/svg11.dtd"><svg t="1766738374292" class="icon" viewBox="0 0 1024 1024" version="1.1" xmlns="http://www.w3.org/2000/svg" p-id="6251" xmlns:xlink="http://www.w3.org/1999/xlink" width="128" height="128"><path d="M544 896h128a32 32 0 0 1 0 64H352a32 32 0 0 1 0-64h128v-65.44C300.576 814.4 160 663.616 160 480a32 32 0 0 1 64 0 288 288 0 0 0 576 0 32 32 0 0 1 64 0c0 183.616-140.576 334.4-320 350.56V896zM512 64a224 224 0 0 1 224 224v192a224 224 0 0 1-448 0V288A224 224 0 0 1 512 64z m0 64a160 160 0 0 0-160 160v192a160 160 0 0 0 320 0V288a160 160 0 0 0-160-160z" fill="#6FDAFE" p-id="6252"></path></svg>