<?xml version="1.0" standalone="no"?><!DOCTYPE svg PUBLIC "-//W3C//DTD SVG 1.1//EN" "http://www.w3.org/Graphics/SVG/1.1/DTD/svg11.dtd"><svg t="1766738354975" class="icon" viewBox="0 0 1024 1024" version="1.1" xmlns="http://www.w3.org/2000/svg" p-id="5972" xmlns:xlink="http://www.w3.org/1999/xlink" width="128" height="128"><path d="M62.72 62.72a32 32 0 0 1 45.248 0l212.864 212.8 0.96 1.024 340.224 340.224a35.84 35.84 0 0 1 1.216 1.216l89.92 89.92a35.712 35.712 0 0 1 1.088 1.088l207.04 207.04a32 32 0 1 1-45.248 45.248l-187.648-187.648a371.456 371.456 0 0 1-184.32 67.648v65.408H640a32 32 0 1 1 0 64H384a32 32 0 0 1 0-64h96v-65.344a373.376 373.376 0 0 1-341.376-372.032 32 32 0 0 1 64 0 309.312 309.312 0 0 0 479.68 258.304l-46.464-46.464a245.312 245.312 0 0 1-369.216-211.84v-157.44L62.72 108.032a32 32 0 0 1 0-45.248z m267.968 406.592a181.312 181.312 0 0 0 257.856 164.48l-257.92-257.92v93.44zM512 117.312c-66.944 0-125.44 36.288-156.928 90.432a32 32 0 1 1-55.296-32.192 245.312 245.312 0 0 1 457.6 123.072v170.688c0 40.128-9.664 78.08-26.816 111.552a32 32 0 0 1-56.96-29.12 180.48 180.48 0 0 0 19.712-82.432V298.688A181.312 181.312 0 0 0 512 117.312zM885.312 469.312a32 32 0 1 0-64 0c0 63.936-19.328 123.2-52.48 172.48a32 32 0 1 0 53.12 35.712c40-59.52 63.36-131.2 63.36-208.192z" fill="#8a8a8a" p-id="5973"></path></svg>