<?xml version="1.0" standalone="no"?><!DOCTYPE svg PUBLIC "-//W3C//DTD SVG 1.1//EN" "http://www.w3.org/Graphics/SVG/1.1/DTD/svg11.dtd"><svg t="1766740706918" class="icon" viewBox="0 0 1228 1024" version="1.1" xmlns="http://www.w3.org/2000/svg" p-id="13802" xmlns:xlink="http://www.w3.org/1999/xlink" width="153.5" height="128"><path d="M1227.227508 516.300456c-10.075354-88.712263-139.089033-156.536597-302.7521-156.536597a537.434125 537.434125 0 0 0-81.094313 6.143508V127.293497A127.047756 127.047756 0 0 0 716.82482 0h-589.776818A127.047756 127.047756 0 0 0 0.000246 127.293497v769.167266a127.047756 127.047756 0 0 0 126.556275 127.293497H540.628995a29.488841 29.488841 0 0 0 0-58.977682H126.556521a68.315815 68.315815 0 0 1-67.824334-68.315815V127.293497A68.315815 68.315815 0 0 1 126.556521 58.977682h589.776818a68.315815 68.315815 0 0 1 68.070074 68.315815v250.900887c-92.644108 25.802736-156.045116 76.916727-163.171586 138.106072h-1.228701v336.910007c0 93.87281 133.437005 167.594912 303.735061 167.594913S1228.70195 947.083273 1228.70195 853.210463V516.300456z m-547.50948 9.092393c2.703144-50.868251 102.473722-106.651308 245.740341-106.651308s243.037197 56.028798 245.740341 106.897048v3.440365c-1.965923 50.868251-101.982241 106.897048-245.740341 106.897048s-242.054236-55.537317-245.740341-106.405568z m489.760499 101.982241v70.281737c-1.965923 50.868251-101.982241 106.897048-245.74034 106.897049s-242.299976-55.783057-245.740341-106.651308v-70.527478c54.800096 41.284377 143.266619 67.824334 245.740341 67.824334s191.185985-26.539957 245.74034-67.824334z m-245.74034 334.452604c-144.24958 0-245.740341-57.257499-245.740341-108.617231v-57.257499c54.800096 41.038637 143.020878 67.578594 245.740341 67.578593s190.203024-26.539957 245.74034-67.578593v57.257499c0.24574 51.851212-100.507799 108.617231-245.003119 108.617231zM540.628995 481.896808H172.018484a29.488841 29.488841 0 0 0 0 58.977682h368.610511a29.488841 29.488841 0 0 0 0-58.977682zM172.018484 287.270458h509.173986a29.488841 29.488841 0 0 0 0-58.977681H172.018484a29.488841 29.488841 0 0 0 0 58.977681z m368.610511 448.230382H172.018484a29.488841 29.488841 0 1 0 0 58.977682h368.610511a29.488841 29.488841 0 0 0 0-58.977682z" p-id="13803" fill="#ffffff"></path></svg>