<svg width="25" height="25" viewBox="0 0 25 25" fill="none" xmlns="http://www.w3.org/2000/svg">
<path d="M15.4098 15.4113C15.8096 15.0331 16.1296 14.5786 16.3508 14.0746C16.572 13.5707 16.6899 13.0275 16.6975 12.4771C16.7052 11.9268 16.6024 11.3805 16.3953 10.8706C16.1883 10.3607 15.8811 9.89744 15.4919 9.50827C15.1027 9.1191 14.6395 8.8119 14.1295 8.60482C13.6196 8.39774 13.0733 8.29499 12.523 8.30264C11.9727 8.3103 11.4295 8.4282 10.9255 8.64937C10.4216 8.87055 9.96704 9.19052 9.58884 9.59036C8.82712 10.3648 8.40225 11.4088 8.4068 12.4951C8.41136 13.5813 8.84495 14.6218 9.61314 15.3898C10.3813 16.1578 11.4219 16.5911 12.5081 16.5954C13.5944 16.5997 14.6383 16.1746 15.4125 15.4127" stroke="#59C0FC" stroke-width="1.5" stroke-miterlimit="1.5" stroke-linecap="round" stroke-linejoin="round"/>
<path d="M9.58883 9.58883C9.58883 9.58883 5.7416 9.60119 3.76513 7.64669C1.83122 5.7114 -0.165832 3.81317 1.82436 1.82436C3.71572 -0.0656358 5.6812 1.80377 7.64669 3.76513C9.57648 5.68807 9.59021 9.58883 9.59021 9.58883M15.4112 9.58883C15.4112 9.58883 15.3988 5.7416 17.3533 3.76513C19.2886 1.83122 21.1868 -0.165832 23.1756 1.82436C25.0656 3.71572 23.1962 5.6812 21.2349 7.64669C19.3106 9.57648 15.4112 9.58883 15.4112 9.58883ZM9.58883 15.4112C9.58883 15.4112 9.60119 19.2584 7.64669 21.2349C5.7114 23.1688 3.81317 25.1658 1.82436 23.1756C-0.0656358 21.2843 1.80377 19.3188 3.76513 17.3533C5.68807 15.4235 9.58883 15.4112 9.58883 15.4112ZM15.4112 15.4112C15.4112 15.4112 19.2584 15.3988 21.2349 17.3533C23.1688 19.2886 25.1658 21.1868 23.1756 23.1756C21.2843 25.0656 19.3188 23.1962 17.3533 21.2349C15.4235 19.3106 15.4112 15.4112 15.4112 15.4112Z" stroke="#59C0FC" stroke-width="1.5" stroke-miterlimit="1.5" stroke-linecap="round" stroke-linejoin="round"/>
</svg>
