<svg width="29" height="22" viewBox="0 0 29 22" fill="none" xmlns="http://www.w3.org/2000/svg">
<path d="M16.0515 9.40136C16.9323 8.15655 17.4059 6.66415 17.4059 5.13337C17.4059 3.6026 16.9323 2.1102 16.0515 0.865385C16.8762 0.297099 17.8521 -0.00464102 18.85 5.39681e-05C20.196 5.39681e-05 21.4868 0.540885 22.4386 1.50357C23.3903 2.46625 23.925 3.77193 23.925 5.13337C23.925 6.49482 23.3903 7.8005 22.4386 8.76318C21.4868 9.72586 20.196 10.2667 18.85 10.2667C17.8521 10.2714 16.8762 9.96965 16.0515 9.40136ZM5.075 5.13337C5.075 4.1181 5.37264 3.12562 5.93029 2.28145C6.48794 1.43728 7.28055 0.779334 8.20788 0.390805C9.13522 0.00227611 10.1556 -0.0993808 11.1401 0.0986895C12.1245 0.29676 13.0288 0.785661 13.7386 1.50357C14.4483 2.22148 14.9317 3.13615 15.1275 4.13191C15.3233 5.12768 15.2228 6.15982 14.8387 7.09781C14.4546 8.0358 13.8041 8.83752 12.9695 9.40158C12.1349 9.96563 11.1537 10.2667 10.15 10.2667C8.80403 10.2667 7.51318 9.72586 6.56143 8.76318C5.60969 7.8005 5.075 6.49482 5.075 5.13337ZM7.975 5.13337C7.975 5.56849 8.10256 5.99384 8.34155 6.35563C8.58055 6.71741 8.92023 6.99939 9.31766 7.1659C9.71509 7.33242 10.1524 7.37598 10.5743 7.2911C10.9962 7.20621 11.3838 6.99668 11.688 6.68901C11.9921 6.38133 12.1993 5.98933 12.2832 5.56257C12.3671 5.13581 12.3241 4.69347 12.1594 4.29147C11.9948 3.88948 11.716 3.54588 11.3584 3.30415C11.0007 3.06241 10.5802 2.93338 10.15 2.93338C9.57315 2.93338 9.01993 3.16516 8.61204 3.57774C8.20415 3.99032 7.975 4.5499 7.975 5.13337ZM20.3 19.0667V22H0V19.0667C0 19.0667 0 13.2 10.15 13.2C20.3 13.2 20.3 19.0667 20.3 19.0667ZM17.4 19.0667C17.197 17.9227 15.4715 16.1333 10.15 16.1333C4.8285 16.1333 3.0015 18.0547 2.9 19.0667M20.2275 13.2C21.1162 13.8992 21.8428 14.7867 22.3564 15.8002C22.8699 16.8137 23.1578 17.9286 23.2 19.0667V22H29V19.0667C29 19.0667 29 13.7427 20.213 13.2H20.2275Z" fill="#9F9F9F"/>
</svg>
