<svg width="20" height="21" viewBox="0 0 20 21" fill="none" xmlns="http://www.w3.org/2000/svg">
<path d="M8.44935 14.875C8.84932 15.375 9.36594 15.62 9.99923 15.61C10.6325 15.6 11.0991 15.3133 11.3991 14.75L16.9987 4.25L8.59934 11.25C8.14937 11.625 7.91206 12.1979 7.88739 12.9688C7.86273 13.7396 8.05005 14.375 8.44935 14.875ZM9.99923 0.5C10.9825 0.5 11.9284 0.671667 12.837 1.015C13.7456 1.35833 14.5995 1.87417 15.3988 2.5625L13.499 4.0625C12.949 3.70833 12.3784 3.44292 11.7871 3.26625C11.1958 3.08958 10.5998 3.00083 9.99923 3C7.78273 3 5.89521 3.97417 4.33666 5.9225C2.77812 7.87083 1.99918 10.23 1.99985 13C1.99985 13.875 2.09584 14.7396 2.28782 15.5938C2.47981 16.4479 2.75045 17.25 3.09976 18H16.8987C17.282 17.2083 17.5613 16.3854 17.7366 15.5312C17.912 14.6771 17.9993 13.7917 17.9986 12.875C17.9986 12.125 17.9276 11.3958 17.7856 10.6875C17.6436 9.97917 17.4313 9.29167 17.1487 8.625L18.3486 6.25C18.8485 7.22917 19.2445 8.27083 19.5365 9.375C19.8285 10.4792 19.9825 11.625 19.9985 12.8125C20.0145 14 19.9061 15.1354 19.6735 16.2188C19.4408 17.3021 19.0992 18.3333 18.6486 19.3125C18.4652 19.6875 18.2153 19.9792 17.8986 20.1875C17.582 20.3958 17.2487 20.5 16.8987 20.5H3.09976C2.74979 20.5 2.41648 20.3958 2.09984 20.1875C1.7832 19.9792 1.53321 19.6875 1.3499 19.3125C0.916596 18.375 0.583288 17.3804 0.349973 16.3288C0.116658 15.2771 0 14.1675 0 13C0 11.2708 0.262646 9.65125 0.787939 8.14125C1.31323 6.63125 2.02984 5.30833 2.93777 4.1725C3.8457 3.03667 4.90795 2.14083 6.12453 1.485C7.3411 0.829167 8.63267 0.500833 9.99923 0.5Z" fill="#6FDAFE"/>
</svg>
