<svg width="34" height="34" viewBox="0 0 34 34" fill="none" xmlns="http://www.w3.org/2000/svg">
<g clip-path="url(#clip0_225_1858)">
<path d="M30.2223 3.77783H3.77781C3.27684 3.77783 2.79639 3.97684 2.44216 4.33107C2.08792 4.68531 1.88892 5.16576 1.88892 5.66672V28.3334C1.88892 28.8344 2.08792 29.3148 2.44216 29.669C2.79639 30.0233 3.27684 30.2223 3.77781 30.2223H30.2223C30.7232 30.2223 31.2037 30.0233 31.5579 29.669C31.9121 29.3148 32.1111 28.8344 32.1111 28.3334V5.66672C32.1111 5.16576 31.9121 4.68531 31.5579 4.33107C31.2037 3.97684 30.7232 3.77783 30.2223 3.77783ZM8.42447 7.55561C8.98485 7.55561 9.53265 7.72178 9.99859 8.03311C10.4645 8.34445 10.8277 8.78695 11.0421 9.30468C11.2566 9.8224 11.3127 10.3921 11.2034 10.9417C11.094 11.4913 10.8242 11.9962 10.4279 12.3924C10.0317 12.7887 9.52684 13.0585 8.97723 13.1678C8.42762 13.2772 7.85793 13.2211 7.3402 13.0066C6.82248 12.7922 6.37997 12.429 6.06864 11.9631C5.75731 11.4971 5.59114 10.9493 5.59114 10.3889C5.59114 9.6375 5.88965 8.91683 6.421 8.38548C6.95236 7.85412 7.67303 7.55561 8.42447 7.55561ZM5.66669 25.5001V21.6278L11.3334 15.8856C11.5103 15.7097 11.7497 15.611 11.9992 15.611C12.2487 15.611 12.4881 15.7097 12.665 15.8856L15.1111 18.2751L7.85781 25.5001H5.66669ZM28.3334 25.5001H10.5306L16.4145 19.6162L21.5145 14.5162C21.6914 14.3403 21.9308 14.2415 22.1803 14.2415C22.4298 14.2415 22.6692 14.3403 22.8461 14.5162L28.3334 20.0034V25.5001Z" fill="#0270B5"/>
</g>
<defs>
<clipPath id="clip0_225_1858">
<rect width="34" height="34" fill="white"/>
</clipPath>
</defs>
</svg>
