<svg width="21" height="21" viewBox="0 0 21 21" fill="none" xmlns="http://www.w3.org/2000/svg">
<path opacity="0.5" d="M20.5 15.0006C20.4998 15.9306 20.0707 16.8455 19.253 17.6596C18.4353 18.4736 17.2556 19.1604 15.8243 19.6556C14.3929 20.1508 12.7566 20.4382 11.0684 20.4911C9.38015 20.544 7.69512 20.3605 6.17082 19.9579C4.64653 19.5552 3.33276 18.9466 2.35236 18.1888C1.37195 17.431 0.756919 16.5488 0.564773 15.6248C0.372627 14.7007 0.609638 13.765 1.25365 12.905C1.89766 12.045 2.92763 11.2889 4.24727 10.7074C4.72727 10.4964 5.04546 10.1864 5.04546 9.84736V3.50011C5.04546 2.70443 5.62013 1.94134 6.64305 1.37871C7.66598 0.816083 9.05336 0.5 10.5 0.5C11.9466 0.5 13.334 0.816083 14.3569 1.37871C15.3799 1.94134 15.9545 2.70443 15.9545 3.50011V9.84836C15.9545 10.1864 16.2727 10.4964 16.7527 10.7084C17.9231 11.2232 18.8676 11.8764 19.5163 12.6194C20.165 13.3625 20.5012 14.1763 20.5 15.0006Z" fill="#6FDAFE"/>
<path d="M11.8637 3.50003C11.8637 3.30111 11.72 3.11034 11.4643 2.96968C11.2085 2.82902 10.8617 2.75 10.5 2.75C10.1384 2.75 9.79154 2.82902 9.53581 2.96968C9.28008 3.11034 9.13641 3.30111 9.13641 3.50003V11.8803C9.13641 12.3174 8.59641 12.6884 7.94004 12.9344C7.1372 13.2354 6.53082 13.6699 6.20983 14.1743C5.88884 14.6787 5.87012 15.2264 6.15643 15.737C6.44275 16.2477 7.01902 16.6944 7.80073 17.0118C8.58244 17.3291 9.52846 17.5004 10.5 17.5004C11.4716 17.5004 12.4176 17.3291 13.1994 17.0118C13.9811 16.6944 14.5573 16.2477 14.8437 15.737C15.13 15.2264 15.1113 14.6787 14.7903 14.1743C14.4693 13.6699 13.8629 13.2354 13.06 12.9344C12.4055 12.6884 11.8637 12.3174 11.8637 11.8803V3.50003Z" fill="#6FDAFE"/>
</svg>
