<svg width="23" height="23" viewBox="0 0 23 23" fill="none" xmlns="http://www.w3.org/2000/svg">
<path d="M12.6503 7.26277V16.9465C12.6503 17.9096 12.2868 18.8332 11.6398 19.5142C10.9928 20.1953 10.1153 20.5779 9.20034 20.5779H6.7049C6.43361 21.3858 5.89969 22.0668 5.19751 22.5005C4.49532 22.9342 3.67009 23.0926 2.86768 22.9477C2.06527 22.8029 1.33735 22.3641 0.812587 21.7089C0.287821 21.0537 0 20.2243 0 19.3674C0 18.5104 0.287821 17.6811 0.812587 17.0259C1.33735 16.3707 2.06527 15.9319 2.86768 15.7871C3.67009 15.6422 4.49532 15.8006 5.19751 16.2343C5.89969 16.668 6.43361 17.349 6.7049 18.1569H9.20034C9.50533 18.1569 9.79783 18.0294 10.0135 17.8024C10.2292 17.5754 10.3503 17.2675 10.3503 16.9465V7.26277C10.3503 6.29967 10.7138 5.37601 11.3608 4.695C12.0078 4.01398 12.8853 3.63139 13.8002 3.63139H17.2501V0L23 4.84185L17.2501 9.6837V6.05231H13.8002C13.4952 6.05231 13.2027 6.17984 12.9871 6.40685C12.7714 6.63385 12.6503 6.94174 12.6503 7.26277ZM3.45048 20.5779C3.75547 20.5779 4.04797 20.4503 4.26363 20.2233C4.47929 19.9963 4.60045 19.6884 4.60045 19.3674C4.60045 19.0464 4.47929 18.7385 4.26363 18.5115C4.04797 18.2845 3.75547 18.1569 3.45048 18.1569C3.14549 18.1569 2.85299 18.2845 2.63732 18.5115C2.42166 18.7385 2.3005 19.0464 2.3005 19.3674C2.3005 19.6884 2.42166 19.9963 2.63732 20.2233C2.85299 20.4503 3.14549 20.5779 3.45048 20.5779Z" fill="#59C0FC"/>
</svg>
