<?xml version="1.0" standalone="no"?><!DOCTYPE svg PUBLIC "-//W3C//DTD SVG 1.1//EN" "http://www.w3.org/Graphics/SVG/1.1/DTD/svg11.dtd"><svg t="1766740655871" class="icon" viewBox="0 0 1097 1024" version="1.1" xmlns="http://www.w3.org/2000/svg" p-id="11570" xmlns:xlink="http://www.w3.org/1999/xlink" width="137.125" height="128"><path d="M548.565 493.709c0-156.817-122.732-283.937-274.282-283.937C122.879 209.772 0 336.892 0 493.709c0 32.548 5.413 64.95 16.018 95.597 24.137 70.216 104.594 188.853 240.71 355.982a22.455 22.455 0 0 0 35.109 0c136.044-166.91 216.208-285.473 240.491-355.47 10.46-29.842 16.31-62.17 16.31-96.11z m-274.282 94.646c-50.468 0-91.428-42.35-91.428-94.646 0-52.297 40.96-94.572 91.428-94.572s91.5 42.421 91.5 94.572c-0.146 52.296-40.96 94.646-91.427 94.646z m476.155-93.475l2.048 2.048a15.287 15.287 0 0 0 21.65-2.048c91.428-112.274 145.406-191.998 161.79-239.102 7.022-20.188 10.898-41.91 10.898-64.804C946.824 85.504 864.174 0 762.286 0c-101.96 0-184.61 85.43-184.61 190.9 0 21.944 3.657 43.812 10.752 64.366 16.383 47.177 70.289 127.048 162.083 239.614z m11.849-367.686c33.937 0 61.44 28.525 61.44 63.634 0 35.255-27.503 63.78-61.44 63.78-34.012 0-61.44-28.525-61.44-63.78s27.428-63.634 61.44-63.634z m254.168 577.895c-82.87-32.182-183.733-23.917-220.23-137.506h-61.879s-31.159 110.37 253.803 195.069c158.719 55.953-83.382 294.762-539.057 126.023L395.7 953.772s271.869 130.046 526.915 36.205c254.973-93.915 178.832-251.901 93.841-284.889z" fill="#ffffff" p-id="11571"></path></svg>