<svg width="21" height="21" viewBox="0 0 21 21" fill="none" xmlns="http://www.w3.org/2000/svg">
<path d="M0.5 12.7635C0.5 11.8434 0.823886 10.7875 1.47166 9.59566C2.44332 7.80789 2.95614 7.24333 3.98178 6.13513C6.08705 3.98144 7.9224 2.3505 9.46086 1.25274L10.473 0.5C10.8104 0.771824 11.1883 1.02274 11.5931 1.25274C12.1464 1.69184 12.9966 2.41323 14.1302 3.43779C15.2638 4.46236 16.249 5.37193 17.0587 6.20831C18.0169 7.26424 18.8401 8.40382 19.5014 9.60612C20.1626 10.8084 20.5 11.8643 20.5 12.7739C20.5 13.8194 20.2436 14.8126 19.7173 15.764C19.191 16.7154 18.4892 17.5413 17.5985 18.2313C16.7078 18.9213 15.6417 19.4754 14.4001 19.8832C13.1586 20.2909 11.8495 20.5 10.473 20.5C9.12348 20.5 7.84143 20.3014 6.61336 19.9041C5.38529 19.5068 4.31916 18.9736 3.42847 18.2836C2.53779 17.604 1.82254 16.7781 1.29622 15.8267C0.769905 14.8753 0.5 13.8508 0.5 12.7635ZM3.54993 9.70021C3.54993 10.568 3.77935 11.258 4.25169 11.7807C4.72402 12.293 5.43927 12.5544 6.39744 12.5544C7.3691 12.5544 8.08435 12.293 8.57018 11.7807C9.04251 11.2684 9.28543 10.5784 9.29892 9.70021C9.28543 8.82201 9.04251 8.13199 8.57018 7.60925C8.09784 7.09697 7.3691 6.8356 6.39744 6.8356C5.43927 6.8356 4.72402 7.09697 4.25169 7.60925C3.77935 8.13199 3.54993 8.82201 3.54993 9.70021ZM5.66869 9.70021V9.33429C5.66869 9.25065 5.68219 9.13565 5.69568 8.98928C5.70918 8.84292 5.72267 8.72791 5.76316 8.65473C5.80364 8.58155 5.83063 8.48745 5.88462 8.40382C5.9386 8.32018 6.00607 8.24699 6.08704 8.21563C6.18151 8.17381 6.27598 8.1529 6.39744 8.1529C6.58637 8.1529 6.73482 8.19472 6.84278 8.27836C7.00472 8.40381 7.03171 8.49791 7.0722 8.67564C7.11269 8.86383 7.13968 9.01019 7.15317 9.1461C7.16667 9.28202 7.16667 9.45975 7.16667 9.68975C7.16667 9.93021 7.16667 10.1079 7.15317 10.2334C7.13968 10.3589 7.11269 10.5157 7.0722 10.7039C7.03171 10.8816 6.95074 11.0175 6.84278 11.1011C6.73482 11.1848 6.58637 11.2266 6.39744 11.2266C6.27598 11.2266 6.18151 11.2057 6.08704 11.1639C5.99292 11.1217 5.92118 11.055 5.88462 10.9757C5.83063 10.8921 5.79015 10.798 5.76316 10.7248C5.73617 10.6411 5.70918 10.5261 5.69568 10.3902C5.68219 10.2439 5.66869 10.1289 5.66869 10.0557V9.70021ZM6.46491 17.8027H8.24629L14.9804 6.57423H13.1586L6.46491 17.8027ZM12.2679 14.6767C12.2814 15.5549 12.5378 16.2449 13.0101 16.7676C13.4825 17.2799 14.2112 17.5413 15.1694 17.5413C16.141 17.5413 16.8563 17.2799 17.3286 16.7676C17.8009 16.2554 18.0304 15.5549 18.0439 14.6767C18.0304 13.7985 17.8009 13.1085 17.3286 12.5962C16.8563 12.0839 16.141 11.8225 15.1694 11.8225C14.2112 11.8225 13.4825 12.0839 13.0101 12.5962C12.5243 13.1085 12.2814 13.7985 12.2679 14.6767ZM14.3866 14.6767C14.3866 14.4362 14.3866 14.2585 14.4001 14.133C14.4136 14.0076 14.4406 13.8508 14.4811 13.6626C14.5418 13.3803 14.6026 13.3489 14.7105 13.2653C14.8185 13.1817 14.9669 13.1398 15.1559 13.1398C15.2773 13.1398 15.3853 13.1607 15.4798 13.2026C15.5742 13.2444 15.6417 13.3071 15.6957 13.4012C15.7497 13.4953 15.7901 13.5789 15.8306 13.6521C15.8711 13.7253 15.8846 13.8403 15.8981 13.9867L15.9116 14.3212V15.0426L15.8981 15.3772L15.8306 15.7117L15.6957 15.9626L15.4798 16.1613L15.1559 16.224C14.9669 16.224 14.8185 16.1822 14.7105 16.0985C14.5486 15.9731 14.5216 15.879 14.4811 15.7013C14.4406 15.5131 14.4136 15.3562 14.4001 15.2308C14.3799 15.0426 14.3866 14.9171 14.3866 14.6767Z" fill="#6FDAFE"/>
</svg>
