<svg width="20" height="20" viewBox="0 0 20 20" fill="none" xmlns="http://www.w3.org/2000/svg">
<path fill-rule="evenodd" clip-rule="evenodd" d="M6.62605 5.07705C7.00075 4.33407 7.09849 3.4819 6.90173 2.67338C6.70497 1.86486 6.22658 1.15289 5.55237 0.665177C4.87817 0.177463 4.05225 -0.0540877 3.22277 0.0120565C2.39329 0.0782008 1.6145 0.437712 1.02611 1.02611C0.437712 1.6145 0.0782008 2.39329 0.0120565 3.22277C-0.0540877 4.05225 0.177463 4.87817 0.665177 5.55237C1.15289 6.22658 1.86486 6.70497 2.67338 6.90173C3.4819 7.09849 4.33407 7.00075 5.07705 6.62605L6.76405 10L5.07705 13.374C4.33407 12.9993 3.4819 12.9016 2.67338 13.0984C1.86486 13.2951 1.15289 13.7735 0.665177 14.4477C0.177463 15.1219 -0.0540877 15.9478 0.0120565 16.7773C0.0782008 17.6068 0.437712 18.3856 1.02611 18.974C1.6145 19.5624 2.39329 19.9219 3.22277 19.988C4.05225 20.0542 4.87817 19.8226 5.55237 19.3349C6.22658 18.8472 6.70497 18.1352 6.90173 17.3267C7.09849 16.5182 7.00075 15.666 6.62605 14.923L10 13.236L13.374 14.923C12.9993 15.666 12.9016 16.5182 13.0984 17.3267C13.2951 18.1352 13.7735 18.8472 14.4477 19.3349C15.1219 19.8226 15.9478 20.0542 16.7773 19.988C17.6068 19.9219 18.3856 19.5624 18.974 18.974C19.5624 18.3856 19.9219 17.6068 19.988 16.7773C20.0542 15.9478 19.8226 15.1219 19.3349 14.4477C18.8472 13.7735 18.1352 13.2951 17.3267 13.0984C16.5182 12.9016 15.666 12.9993 14.923 13.374L13.236 10L14.923 6.62605C15.666 7.00075 16.5182 7.09849 17.3267 6.90173C18.1352 6.70497 18.8472 6.22658 19.3349 5.55237C19.8226 4.87817 20.0542 4.05225 19.988 3.22277C19.9219 2.39329 19.5624 1.6145 18.974 1.02611C18.3856 0.437712 17.6068 0.0782008 16.7773 0.0120565C15.9478 -0.0540877 15.1219 0.177463 14.4477 0.665177C13.7735 1.15289 13.2951 1.86486 13.0984 2.67338C12.9016 3.4819 12.9993 4.33407 13.374 5.07705L10 6.76405L6.62605 5.07705ZM4.83605 4.18205C4.99847 3.86385 5.04201 3.49814 4.9588 3.15071C4.8756 2.80328 4.67113 2.49695 4.38219 2.28686C4.09324 2.07676 3.7388 1.97669 3.38264 2.00465C3.02649 2.03261 2.69201 2.18677 2.43939 2.43939C2.18677 2.69201 2.03261 3.02649 2.00465 3.38264C1.97669 3.7388 2.07676 4.09324 2.28686 4.38219C2.49695 4.67113 2.80328 4.8756 3.15071 4.9588C3.49814 5.04201 3.86385 4.99847 4.18205 4.83605L3.73505 3.94205C3.62926 3.99824 3.50681 4.01459 3.38999 3.98812C3.27317 3.96165 3.16973 3.89412 3.09849 3.79781C3.02726 3.70151 2.99297 3.58283 3.00186 3.46338C3.01075 3.34392 3.06223 3.23163 3.14693 3.14693C3.23163 3.06223 3.34392 3.01075 3.46338 3.00186C3.58283 2.99297 3.70151 3.02726 3.79781 3.09849C3.89412 3.16973 3.96165 3.27317 3.98812 3.38999C4.01459 3.50681 3.99824 3.62926 3.94205 3.73505L4.83605 4.18205ZM15.818 4.83605C16.1362 4.99847 16.502 5.04201 16.8494 4.9588C17.1968 4.8756 17.5031 4.67113 17.7132 4.38219C17.9233 4.09324 18.0234 3.7388 17.9954 3.38264C17.9675 3.02649 17.8133 2.69201 17.5607 2.43939C17.3081 2.18677 16.9736 2.03261 16.6174 2.00465C16.2613 1.97669 15.9068 2.07676 15.6179 2.28686C15.329 2.49695 15.1245 2.80328 15.0413 3.15071C14.9581 3.49814 15.0016 3.86385 15.164 4.18205L16.058 3.73505C16.0019 3.62926 15.9855 3.50681 16.012 3.38999C16.0384 3.27317 16.106 3.16973 16.2023 3.09849C16.2986 3.02726 16.4173 2.99297 16.5367 3.00186C16.6562 3.01075 16.7685 3.06223 16.8532 3.14693C16.9379 3.23163 16.9893 3.34392 16.9982 3.46338C17.0071 3.58283 16.9728 3.70151 16.9016 3.79781C16.8304 3.89412 16.7269 3.96165 16.6101 3.98812C16.4933 4.01459 16.3708 3.99824 16.265 3.94205L15.818 4.83605ZM15.164 15.818C15.0016 16.1362 14.9581 16.502 15.0413 16.8494C15.1245 17.1968 15.329 17.5031 15.6179 17.7132C15.9068 17.9233 16.2613 18.0234 16.6174 17.9954C16.9736 17.9675 17.3081 17.8133 17.5607 17.5607C17.8133 17.3081 17.9675 16.9736 17.9954 16.6174C18.0234 16.2613 17.9233 15.9068 17.7132 15.6179C17.5031 15.329 17.1968 15.1245 16.8494 15.0413C16.502 14.9581 16.1362 15.0016 15.818 15.164L16.265 16.058C16.3708 16.0019 16.4933 15.9855 16.6101 16.012C16.7269 16.0384 16.8304 16.106 16.9016 16.2023C16.9728 16.2986 17.0071 16.4173 16.9982 16.5367C16.9893 16.6562 16.9379 16.7685 16.8532 16.8532C16.7685 16.9379 16.6562 16.9893 16.5367 16.9982C16.4173 17.0071 16.2986 16.9728 16.2023 16.9016C16.106 16.8304 16.0384 16.7269 16.012 16.6101C15.9855 16.4933 16.0019 16.3708 16.058 16.265L15.164 15.818ZM4.18205 15.164C3.86385 15.0016 3.49814 14.9581 3.15071 15.0413C2.80328 15.1245 2.49695 15.329 2.28686 15.6179C2.07676 15.9068 1.97669 16.2613 2.00465 16.6174C2.03261 16.9736 2.18677 17.3081 2.43939 17.5607C2.69201 17.8133 3.02649 17.9675 3.38264 17.9954C3.7388 18.0234 4.09324 17.9233 4.38219 17.7132C4.67113 17.5031 4.8756 17.1968 4.9588 16.8494C5.04201 16.502 4.99847 16.1362 4.83605 15.818L3.94205 16.265C3.98005 16.3357 3.99938 16.414 4.00005 16.5C3.9999 16.6094 3.96394 16.7156 3.89767 16.8025C3.8314 16.8894 3.73847 16.9523 3.63311 16.9813C3.52775 17.0104 3.41576 17.0042 3.31428 16.9636C3.2128 16.923 3.12742 16.8502 3.07121 16.7565C3.01501 16.6627 2.99107 16.5532 3.00307 16.4445C3.01506 16.3359 3.06233 16.2341 3.13763 16.1549C3.21293 16.0757 3.31212 16.0233 3.42001 16.0058C3.52791 15.9883 3.63857 16.0067 3.73505 16.058L4.18205 15.164ZM11.127 10.137C11.1417 10.2437 11.174 10.347 11.224 10.447L12 12L10.447 11.224C10.3082 11.1547 10.1552 11.1186 10 11.1186C9.84488 11.1186 9.69185 11.1547 9.55305 11.224L8.00005 12L8.77604 10.447C8.8454 10.3082 8.88151 10.1552 8.88151 10C8.88151 9.84488 8.8454 9.69185 8.77604 9.55305L8.00005 8.00005L9.55305 8.77604C9.69185 8.8454 9.84488 8.88151 10 8.88151C10.1552 8.88151 10.3082 8.8454 10.447 8.77604L12 8.00005L11.224 9.55305C11.1335 9.73346 11.0997 9.93705 11.127 10.137Z" fill="#1E1E1E"/>
</svg>
