<?xml version="1.0" encoding="UTF-8" standalone="no"?>
<svg width="100" height="100" viewBox="0 0 20 20" xmlns="http://www.w3.org/2000/svg">
  <path d="M3.004.005c1.6 0 2.907 1.25 2.998 2.825l.005.177H4.996c0-1.1-.892-1.99-1.992-1.99s-1.992.89-1.992 1.99c0 1.049.812 1.908 1.843 1.984l.149.006v1.011A3.003 3.003 0 0 1 0 3.007 3.003 3.003 0 0 1 3.004.005zm0 7.987v1.011c-1.1 0-1.992.891-1.992 1.99a1.991 1.991 0 0 0 3.978.149l.006-.149h1.011a3.003 3.003 0 0 1-6.007 0 3.003 3.003 0 0 1 2.828-2.996l.176-.005zm7.992 0A3.003 3.003 0 0 1 14 10.993a3.003 3.003 0 0 1-6.002.177l-.005-.177h1.011c0 1.1.892 1.99 1.992 1.99s1.992-.89 1.992-1.99a1.991 1.991 0 0 0-1.843-1.984l-.149-.006V7.992zm0-7.987A3.003 3.003 0 0 1 14 3.007a3.003 3.003 0 0 1-2.828 2.996l-.176.005V4.997c1.1 0 1.992-.891 1.992-1.99a1.991 1.991 0 0 0-3.978-.149l-.006.149H7.993A3.002 3.002 0 0 1 10.996.005zm.136 10.424a.55.55 0 0 1 .364.515.551.551 0 0 1-.554.548.553.553 0 0 1-.544-.447c-.1-.154-.26-.328-.342-.397-.112-.114-.382-.312-.69-.556-.804-.642-1.68-1.122-2.34-1.122-.66 0-1.282.399-1.956.868-.161.112-.47.345-.874.647-.404.303-.642.715-.642.715l-.005-.005a.554.554 0 0 1-1.045-.251.55.55 0 0 1 .413-.53c.335-.165.297-.096.596-.422.31-.34.682-.841.835-1.056.554-.776.847-1.358.847-1.84 0-.69-.386-1.19-.783-1.78-.14-.208-.44-.592-.743-.967-.3-.374-.597-.668-.884-.812l.003-.002a.547.547 0 0 1 .27-1.027c.271 0 .497.194.544.45.114.307.746.84.746.84s.675.507.847.62c1.295.851 2.925.659 3.812-.07.39-.32 1.049-.825 1.049-.825.08-.07.288-.344.334-.498a.551.551 0 0 1 .552-.517.548.548 0 0 1 .233 1.046h.002c-.317.142-.481.43-.559.511 0 0-.349.49-.772 1.03-.578.74-.949 1.412-.945 2.072.003.659.479 1.345 1.013 1.998.309.376.315.496.83.982.13.124.239.207.388.282z" fill="black"/>
</svg>
