<svg width="14" height="14" viewBox="0 0 14 14" fill="none" xmlns="http://www.w3.org/2000/svg">
<path d="M3.96635 0.34375V3.78125H0.264423C0.194294 3.78125 0.127037 3.74503 0.0774478 3.68057C0.0278588 3.6161 0 3.52867 0 3.4375V1.375C0 1.01033 0.111435 0.660591 0.309791 0.402728C0.508147 0.144866 0.777175 0 1.05769 0H3.70192C3.77205 0 3.83931 0.0362165 3.8889 0.100682C3.93849 0.165148 3.96635 0.252582 3.96635 0.34375ZM5.02404 13.4062C5.02404 13.4974 5.0519 13.5849 5.10149 13.6493C5.15107 13.7138 5.21833 13.75 5.28846 13.75H8.46154C8.53167 13.75 8.59892 13.7138 8.64851 13.6493C8.6981 13.5849 8.72596 13.4974 8.72596 13.4062V9.96875H5.02404V13.4062ZM0 10.3125V12.375C0 12.7397 0.111435 13.0894 0.309791 13.3473C0.508147 13.6051 0.777175 13.75 1.05769 13.75H3.70192C3.77205 13.75 3.83931 13.7138 3.8889 13.6493C3.93849 13.5849 3.96635 13.4974 3.96635 13.4062V9.96875H0.264423C0.194294 9.96875 0.127037 10.005 0.0774478 10.0694C0.0278588 10.1339 0 10.2213 0 10.3125ZM0 5.5V8.25C0 8.34117 0.0278588 8.4286 0.0774478 8.49307C0.127037 8.55753 0.194294 8.59375 0.264423 8.59375H3.96635V5.15625H0.264423C0.194294 5.15625 0.127037 5.19247 0.0774478 5.25693C0.0278588 5.3214 0 5.40883 0 5.5ZM8.46154 0H5.28846C5.21833 0 5.15107 0.0362165 5.10149 0.100682C5.0519 0.165148 5.02404 0.252582 5.02404 0.34375V3.78125H8.72596V0.34375C8.72596 0.252582 8.6981 0.165148 8.64851 0.100682C8.59892 0.0362165 8.53167 0 8.46154 0ZM13.4856 5.15625H9.78365V8.59375H13.4856C13.5557 8.59375 13.623 8.55753 13.6726 8.49307C13.7221 8.4286 13.75 8.34117 13.75 8.25V5.5C13.75 5.40883 13.7221 5.3214 13.6726 5.25693C13.623 5.19247 13.5557 5.15625 13.4856 5.15625ZM5.02404 8.59375H8.72596V5.15625H5.02404V8.59375ZM12.6923 0H10.0481C9.97795 0 9.91069 0.0362165 9.8611 0.100682C9.81151 0.165148 9.78365 0.252582 9.78365 0.34375V3.78125H13.4856C13.5557 3.78125 13.623 3.74503 13.6726 3.68057C13.7221 3.6161 13.75 3.52867 13.75 3.4375V1.375C13.75 1.01033 13.6386 0.660591 13.4402 0.402728C13.2419 0.144866 12.9728 0 12.6923 0ZM13.4856 9.96875H9.78365V13.4062C9.78365 13.4974 9.81151 13.5849 9.8611 13.6493C9.91069 13.7138 9.97795 13.75 10.0481 13.75H12.6923C12.9728 13.75 13.2419 13.6051 13.4402 13.3473C13.6386 13.0894 13.75 12.7397 13.75 12.375V10.3125C13.75 10.2213 13.7221 10.1339 13.6726 10.0694C13.623 10.005 13.5557 9.96875 13.4856 9.96875Z" fill="#999999"/>
</svg>
