<svg width="22" height="23" viewBox="0 0 22 23" fill="none" xmlns="http://www.w3.org/2000/svg">
<path d="M7.66667 21.5L4.33333 14.5L1 21.5H7.66667Z" stroke="#6FDAFE" stroke-width="1.5" stroke-linecap="round" stroke-linejoin="round"/>
<path d="M17.88 12.8351C19.3167 14.1281 20.0356 14.7751 19.8645 15.7731C19.8537 15.8308 19.8412 15.8881 19.8267 15.9451C19.56 16.9251 18.8267 17.1991 17.3645 17.7451C15.3485 18.4971 13.13 18.694 10.9897 18.3109C8.84931 17.9279 6.88329 16.9821 5.34033 15.5932C3.79736 14.2043 2.74678 12.4348 2.3215 10.5084C1.89621 8.58201 2.11534 6.5854 2.95114 4.77113C3.5567 3.45413 3.86003 2.79613 4.95114 2.55513C5.00114 2.54513 5.09003 2.52813 5.14003 2.52113C6.25114 2.36813 6.96892 3.01413 8.40559 4.30713L17.88 12.8351Z" stroke="#6FDAFE" stroke-width="1.5" stroke-linecap="round" stroke-linejoin="round"/>
<path d="M18.7778 5.5C20.0051 5.5 21 4.60457 21 3.5C21 2.39543 20.0051 1.5 18.7778 1.5C17.5505 1.5 16.5555 2.39543 16.5555 3.5C16.5555 4.60457 17.5505 5.5 18.7778 5.5Z" stroke="#6FDAFE" stroke-width="1.5" stroke-linecap="round" stroke-linejoin="round"/>
<path d="M11.5555 6.63281L17.3478 5.02881L15.3078 10.0288" stroke="#6FDAFE" stroke-width="1.5" stroke-linecap="round" stroke-linejoin="round"/>
</svg>
