<svg width="23" height="23" viewBox="0 0 23 23" fill="none" xmlns="http://www.w3.org/2000/svg">
<path d="M11.5 2.3C10.3139 2.3 9.17637 2.72406 8.33766 3.4789C7.49896 4.23373 7.02778 5.2575 7.02778 6.325C7.02778 7.3925 7.49896 8.41627 8.33766 9.1711C9.17637 9.92594 10.3139 10.35 11.5 10.35C12.6861 10.35 13.8236 9.92594 14.6623 9.1711C15.501 8.41627 15.9722 7.3925 15.9722 6.325C15.9722 5.2575 15.501 4.23373 14.6623 3.4789C13.8236 2.72406 12.6861 2.3 11.5 2.3ZM4.47222 6.325C4.47222 4.64751 5.21265 3.03872 6.53061 1.85255C7.84857 0.666382 9.63612 0 11.5 0C13.3639 0 15.1514 0.666382 16.4694 1.85255C17.7874 3.03872 18.5278 4.64751 18.5278 6.325C18.5278 8.00249 17.7874 9.61128 16.4694 10.7975C15.1514 11.9836 13.3639 12.65 11.5 12.65C9.63612 12.65 7.84857 11.9836 6.53061 10.7975C5.21265 9.61128 4.47222 8.00249 4.47222 6.325ZM0 19.55C0 18.025 0.673113 16.5625 1.87126 15.4841C3.06941 14.4058 4.69445 13.8 6.38889 13.8H16.6111C18.3055 13.8 19.9306 14.4058 21.1287 15.4841C22.3269 16.5625 23 18.025 23 19.55V23H0V19.55ZM6.38889 16.1C5.37223 16.1 4.3972 16.4635 3.67831 17.1105C2.95942 17.7575 2.55556 18.635 2.55556 19.55V20.7H20.4444V19.55C20.4444 18.635 20.0406 17.7575 19.3217 17.1105C18.6028 16.4635 17.6278 16.1 16.6111 16.1H6.38889Z" fill="#59C0FC"/>
</svg>
