<svg width="24" height="22" viewBox="0 0 24 22" fill="none" xmlns="http://www.w3.org/2000/svg">
<path d="M6.5 11H17.5M18.6 5.44444H18.6099M6.28 17.6667C6.28 17.6667 7.16 19.75 5.4 21M17.72 17.6667C17.72 17.6667 16.84 19.75 18.6 21M12 17.6667V21M16.4 1C18.9729 1 20.2588 1 21.1982 1.59556C21.6882 1.90649 22.1026 2.32502 22.4104 2.82C23 3.76889 23 5.06667 23 7.66667C23 10.2667 23 11.5644 22.4093 12.5133C22.102 13.0077 21.6884 13.4258 21.1993 13.7367C20.2577 14.3333 18.9718 14.3333 16.4 14.3333H7.6C5.0271 14.3333 3.7412 14.3333 2.8018 13.7367C2.31201 13.4264 1.89769 13.0086 1.5896 12.5144C1 11.5633 1 10.2644 1 7.66667C1 5.06889 1 3.76889 1.5896 2.82C1.89743 2.32502 2.31176 1.90649 2.8018 1.59556C3.7412 1 5.026 1 7.6 1H16.4Z" stroke="white" stroke-width="1.5" stroke-linecap="round" stroke-linejoin="round"/>
</svg>
