<svg width="25" height="24" viewBox="0 0 25 24" fill="none" xmlns="http://www.w3.org/2000/svg">
<path d="M4.207 6.29285L6.793 3.70685C6.98053 3.51938 7.23484 3.41406 7.5 3.41406C7.76517 3.41406 8.01947 3.51938 8.207 3.70685L13.793 9.29285C13.9805 9.48038 14.0858 9.73468 14.0858 9.99985C14.0858 10.265 13.9805 10.5193 13.793 10.7068L11.207 13.2928C11.0195 13.4803 10.7652 13.5856 10.5 13.5856C10.2348 13.5856 9.98053 13.4803 9.793 13.2928L4.207 7.70685C4.01953 7.51932 3.91422 7.26501 3.91422 6.99985C3.91422 6.73468 4.01953 6.48038 4.207 6.29285Z" stroke="white" stroke-width="2" stroke-linecap="round" stroke-linejoin="round"/>
<path d="M6.5 10L3.5 13L6.5 16L9.5 13M10.5 6L13.5 3L16.5 6L13.5 9M12.5 12L14 13.5M15 17C15.663 17 16.2989 16.7366 16.7678 16.2678C17.2366 15.7989 17.5 15.163 17.5 14.5M15.5 21C17.0913 21 18.6174 20.3679 19.7426 19.2426C20.8679 18.1174 21.5 16.5913 21.5 15" stroke="white" stroke-width="2" stroke-linecap="round" stroke-linejoin="round"/>
</svg>
