<svg width="23" height="17" viewBox="0 0 23 17" fill="none" xmlns="http://www.w3.org/2000/svg">
<path d="M11.3763 17C10.6763 17 10.0846 16.7583 9.60132 16.275C9.11798 15.7917 8.87632 15.2 8.87632 14.5C8.87632 13.8 9.11798 13.2083 9.60132 12.725C10.0846 12.2417 10.6763 12 11.3763 12C12.0763 12 12.668 12.2417 13.1513 12.725C13.6346 13.2083 13.8763 13.8 13.8763 14.5C13.8763 15.2 13.6346 15.7917 13.1513 16.275C12.668 16.7583 12.0763 17 11.3763 17ZM11.3763 6C12.6263 6 13.814 6.2 14.9393 6.6C16.0646 7 17.0853 7.55 18.0013 8.25C18.3346 8.5 18.5056 8.82933 18.5143 9.238C18.523 9.64667 18.377 10.0007 18.0763 10.3C17.793 10.5833 17.443 10.7293 17.0263 10.738C16.6096 10.7467 16.2346 10.634 15.9013 10.4C15.268 9.96667 14.568 9.625 13.8013 9.375C13.0346 9.125 12.2263 9 11.3763 9C10.5263 9 9.71798 9.125 8.95132 9.375C8.18465 9.625 7.48465 9.96667 6.85132 10.4C6.51798 10.6333 6.14298 10.7417 5.72632 10.725C5.30965 10.7083 4.95965 10.5583 4.67632 10.275C4.39298 9.975 4.25132 9.621 4.25132 9.213C4.25132 8.805 4.41798 8.47567 4.75132 8.225C5.66798 7.525 6.68898 6.979 7.81432 6.587C8.93965 6.195 10.127 5.99933 11.3763 6ZM11.3763 0C13.4596 0 15.4223 0.341667 17.2643 1.025C19.1063 1.70833 20.7603 2.675 22.2263 3.925C22.5596 4.20833 22.7346 4.55833 22.7513 4.975C22.768 5.39167 22.6263 5.75 22.3263 6.05C22.043 6.33333 21.693 6.47933 21.2763 6.488C20.8596 6.49667 20.4846 6.36733 20.1513 6.1C18.9513 5.11667 17.6057 4.35433 16.1143 3.813C14.623 3.27167 13.0436 3.00067 11.3763 3C9.70898 2.99933 8.12998 3.27033 6.63932 3.813C5.14865 4.35567 3.80265 5.118 2.60132 6.1C2.26798 6.36667 1.89298 6.496 1.47632 6.488C1.05965 6.48 0.709649 6.334 0.426316 6.05C0.126316 5.75 -0.0153509 5.39167 0.00131579 4.975C0.0179825 4.55833 0.192982 4.20833 0.526316 3.925C1.99298 2.675 3.64732 1.70833 5.48932 1.025C7.33132 0.341667 9.29365 0 11.3763 0Z" fill="white"/>
</svg>
