<?xml version="1.0" standalone="no"?><!DOCTYPE svg PUBLIC "-//W3C//DTD SVG 1.1//EN" "http://www.w3.org/Graphics/SVG/1.1/DTD/svg11.dtd"><svg t="1765876023463" class="icon" viewBox="0 0 1024 1024" version="1.1" xmlns="http://www.w3.org/2000/svg" p-id="5334" xmlns:xlink="http://www.w3.org/1999/xlink" width="128" height="128"><path d="M808.578 288.96v-19.2c-1.856-0.32-2.688-0.64-3.52-0.64l-22.592-0.064c-12.032-0.064-18.368-4.096-18.56-11.904-0.064-8.064 6.272-12.352 19.008-12.352h28.288c-2.88-8.96-4.48-16-7.488-22.528a51.456 51.456 0 0 0-54.656-29.696c-17.088 2.176-39.808 22.208-41.6 40.064-1.28 12.992-0.96 26.112-0.64 39.168 0.128 5.76 0.256 11.52 0.256 17.152h101.504zM149.25 372.032c10.88-17.472 21.12-35.2 32.256-53.952-9.216 0-18.368 0-27.52-0.128-21.504-0.128-42.88-0.32-64.128 0.768a32.576 32.576 0 0 0-23.104 13.056c-5.888 9.664-6.656 22.464-9.536 34.048-0.448 1.856-0.128 3.84-0.64 5.76-2.432 10.24-5.504 20.352-7.296 30.72-2.112 11.2-2.944 22.656-4.352 33.92 0 0.576-0.384 1.088-0.512 1.6-2.496 9.984-5.76 19.84-7.232 29.888-2.432 16 0.96 30.208 14.976 40.64 3.84 2.88 6.592 4.096 9.728 0 3.072-4.096 5.952-8.32 8.768-12.608l30.08-46.208c2.944-4.48 6.016-8.96 8.704-13.632 4.8-8.384 8.96-17.088 14.208-25.344 8.256-12.992 17.344-25.472 25.6-38.528z m173.888-53.952h43.584c33.728 0.064 67.456 0.064 101.248-0.128 7.168-0.064 11.008 2.816 14.976 8.256 8.256 11.2 17.344 21.888 25.984 32.896 8.512 11.136 16.64 22.464 25.28 33.408 9.408 11.52 21.376 19.648 34.816 25.856 14.656 6.72 29.76 8.64 45.696 8.256 18.944-0.448 37.888-0.32 56.832-0.256l24.448 0.064c2.176 0 4.224 0.256 8.32 0.576-8.448 12.8-16.448 24.384-23.68 36.224-7.808 12.672-14.72 25.728-22.656 38.4-7.936 12.672-16.64 24.704-24.704 37.312-8.192 12.736-16 25.472-23.936 38.336-4.16 6.72-8.832 11.136-17.984 10.496-12.8-0.704-25.728-0.64-38.592 0.128-17.792 0.768-28.288-6.656-31.808-23.68-1.408-6.72-5.248-12.992-7.232-19.776-2.88-9.216-10.496-12.48-18.24-12.8-41.664-1.92-83.456-2.88-125.248-4.352-36.48-1.28-72.896-2.688-109.312-4.16-1.92-0.064-3.776-1.6-5.76-2.496 1.024-2.112 1.792-4.48 3.072-6.4 8.448-12.544 16.896-25.216 25.536-37.632 7.04-10.048 14.592-19.648 21.376-29.888 10.368-15.36 22.144-30.144 29.504-46.848 5.568-12.608 8.96-28.16 4.608-41.92-3.712-11.264-4.288-24.32-13.952-33.28-1.216-1.024-1.216-3.328-2.176-6.592z m201.856 0h10.752c101.696 0.128 203.456 0 305.216 0.384 16.064 0 32.64 0 48.128 3.776 14.08 3.2 26.24 11.584 32.512 26.88 4.8 11.584 4.8 23.488 4.736 35.328v14.4c0.064 48.64 0.128 97.152-1.536 145.792a38.4 38.4 0 0 1-20.736 31.744c-17.728 10.112-36.224 11.84-55.68 11.392-6.656-0.128-13.312-0.128-19.904-0.064h-17.024c-2.24 0-4.48-1.472-6.784-2.176 1.024-2.304 1.664-4.864 3.008-7.04 5.76-8.512 11.52-16.96 17.536-25.344 4.352-5.952 9.088-11.584 13.44-17.536 7.808-10.432 16-20.864 23.104-31.872 6.272-9.664 11.392-20.096 11.264-32.192a473.728 473.728 0 0 1-0.128-17.6c0.256-23.36-10.624-41.408-27.008-56.96a80.896 80.896 0 0 0-56.064-23.488c-19.2-0.256-38.016 4.864-54.464 14.72a16.448 16.448 0 0 1-7.872 1.792h-16.128c-37.696 0.192-75.328 0.32-112.96-0.32a38.016 38.016 0 0 1-21.76-8.256c-8.704-7.168-15.616-16.768-23.232-25.472-1.536-1.536-2.752-3.392-4.224-5.12-7.488-8.704-14.976-17.28-22.272-26.176-1.088-1.28-1.088-3.392-1.92-6.592zM0.706 715.008v-6.08c0.128-4.416 0.192-8.832-0.064-13.184-1.024-12.736 4.096-23.872 9.728-34.432 7.04-13.632 15.168-26.752 23.488-39.68 8.256-12.992 17.536-25.344 25.856-38.208 5.248-8.256 9.152-17.28 14.08-25.6 4.928-8.256 10.496-16 15.552-24l16.512-25.92c8.576-13.504 17.216-27.072 25.6-40.704 7.744-12.608 15.168-25.472 22.912-37.952 5.376-8.768 11.2-17.28 16.64-25.92 8-12.608 15.36-25.472 23.68-37.824 10.752-15.872 18.24-35.136 38.208-42.432a36.48 36.48 0 0 1 11.52-1.6c1.92 0 3.84-0.128 5.76-0.32 21.632-2.432 37.248 8.256 47.104 25.6 6.4 11.2 9.408 24.32 3.776 38.4-7.36 18.56-19.84 33.472-31.36 49.152-7.488 10.24-14.4 20.992-21.696 31.552-4.672 6.976-9.728 13.696-14.528 20.736-7.744 11.456-15.168 23.04-23.04 34.432-7.04 10.24-14.72 20.224-21.76 30.464-7.68 11.328-15.104 23.04-22.784 34.496-3.52 5.184-7.552 10.112-11.328 15.168-11.584 15.744-23.296 31.488-34.56 47.36-8.768 12.416-17.6 24.768-25.152 37.76a50.176 50.176 0 0 0-5.12 20.096c-0.768 9.152-0.448 18.432-0.128 27.712 0.896 22.912-10.752 37.568-30.72 46.656-16 7.168-47.36-5.632-53.376-22.08a87.232 87.232 0 0 1-4.672-20.992c-0.512-5.12-0.384-10.432-0.256-15.68l0.128-7.04z m589.504-24.832v24.32l-0.064 7.424c-0.128 5.632-0.256 11.328 0.256 16.96 0.192 5.76 1.536 11.52 3.84 16.896 15.552 30.784 45.056 33.536 69.824 14.4 11.264-8.704 12.992-22.4 14.72-35.136 0.96-7.68 0.768-15.424 0.512-23.232a319.168 319.168 0 0 1-0.192-12.288c0-1.92-0.064-3.904 0.768-5.312 11.008-16.64 21.888-33.344 33.472-49.6 9.152-12.8 19.328-24.704 28.992-37.12a391.491 391.491 0 0 0 12.992-17.664c5.632-7.936 10.816-16.064 16.512-23.872 5.888-8 12.352-15.488 18.304-23.424 10.752-14.208 21.312-28.672 31.808-43.072 3.52-4.8 7.744-9.344 9.984-14.592 6.912-15.744 7.68-32 0.192-47.616a49.856 49.856 0 0 0-14.336-18.304 53.12 53.12 0 0 0-40.128-8.448c-6.016 0.832-13.184 2.048-17.28 5.824a222.72 222.72 0 0 0-27.776 32.064c-11.52 16.576-21.44 34.368-32.32 51.456-7.936 12.608-16.512 24.832-24.512 37.44-10.688 16.832-20.992 33.984-31.488 51.008l-25.792 41.472c-4.8 7.68-9.344 15.68-14.72 23.04a61.056 61.056 0 0 0-13.568 37.376z m-464.448 31.616c2.176 20.608-2.176 40.064-11.776 58.304 0.832 0.64 1.152 1.28 1.6 1.344 1.6 0.256 3.264 0.128 4.992 0.256 8 0.64 16 0.32 24 0 14.336-0.512 28.672-1.024 42.88 3.84a75.534 75.534 0 0 1 30.144 17.216c30.208 30.016 60.16 60.352 90.304 90.24a35.712 35.712 0 0 1 12.096 25.92 28.48 28.48 0 0 0 5.12 15.232c4.224 5.76 8.96 10.624 18.304 9.92a376.32 376.32 0 0 1 34.944-0.576c4.8 0.128 9.6 0.192 14.464 0.192 6.848 0 14.848-8.128 15.744-14.848 1.152-7.68-1.92-14.08-5.056-20.48a97.328 97.328 0 0 1-2.432-5.184 135.68 135.68 0 0 0-34.432-48.512c-17.984-16-35.392-32.832-53.312-48.832-18.816-16.704-38.592-32.384-57.088-49.408-13.184-12.16-24.768-26.112-41.728-33.216-9.344-3.968-18.944-8.768-28.8-9.6-10.56-1.088-21.184-0.96-31.808-0.768-6.4 0-12.8 0.128-19.2 0-7.04-0.192-9.728 1.92-8.96 8.96z m630.528-8.768a978.496 978.496 0 0 1-12.544 0c-7.36-0.128-14.72-0.192-22.08 0.064-2.112 0.192-5.76 2.048-6.016 3.52-1.792 12.288-2.56 24.704-4.416 36.992a72.768 72.768 0 0 1-5.696 19.456c-3.264 7.04-3.136 8.512 5.12 8.576l15.872-0.064c10.624-0.128 21.248-0.192 31.808 0.256a60.213 60.213 0 0 1 23.68 5.248c10.624 5.12 20.48 11.84 29.056 19.904 30.336 30.528 59.776 61.824 89.344 92.992a30.12 30.12 0 0 1 8.96 23.68c-0.512 8.96 8.768 19.84 17.024 19.968 18.432 0.256 36.928 0.256 55.296 0 8.576-0.192 16-9.216 17.024-17.472 0.896-7.04-2.304-12.288-5.504-17.472-1.216-1.92-2.432-3.968-3.392-6.016-6.784-14.4-13.696-28.992-25.728-39.872-22.016-19.712-44.544-39.04-66.56-58.624-14.336-12.672-28.352-25.664-42.56-38.464-13.568-12.288-26.56-25.28-41.088-36.288a73.92 73.92 0 0 0-43.648-16.384 489.984 489.984 0 0 0-13.952 0z" p-id="5335" fill="#2c2c2c"></path></svg>